<svg width="42" height="48" viewBox="0 0 42 48" fill="none" xmlns="http://www.w3.org/2000/svg">
<g clip-path="url(#clip0_2488_2378)">
<path d="M2.50251 45.9036C2.50251 46.3977 2.31001 46.7185 1.925 46.8661L2.69501 47.9653H1.848L1.16463 46.9816H0.689152V47.9653H0V44.8853H1.16848C1.64716 44.8853 1.98917 44.9661 2.19451 45.1278C2.30239 45.2244 2.38637 45.3448 2.43982 45.4794C2.49326 45.6141 2.51472 45.7593 2.50251 45.9036V45.9036ZM1.67475 46.2713C1.72061 46.2228 1.75564 46.1651 1.77754 46.102C1.79944 46.039 1.80771 45.972 1.8018 45.9055C1.80965 45.8422 1.80162 45.7778 1.77843 45.7184C1.75524 45.6589 1.71763 45.6061 1.66898 45.5648C1.52682 45.4909 1.36662 45.4589 1.20698 45.4724H0.689152V46.3925H1.19158C1.36108 46.4075 1.53067 46.3648 1.67283 46.2713H1.67475Z" fill="#000099"/>
<path d="M5.43041 44.8816V45.4937H3.89041V46.129H5.27064V46.7161H3.89618V47.3552H5.47854V47.9655H3.20703V44.8854L5.43041 44.8816Z" fill="#000099"/>
<path d="M8.28907 47.9653L8.00224 47.2992H6.71056L6.42373 47.9653H5.69031L7.02241 44.8853H7.68846L9.02249 47.9653H8.28907ZM7.35929 45.7977L6.97429 46.6948H7.74429L7.35929 45.7977Z" fill="#000099"/>
<path d="M9.37866 47.9653V44.8853H10.0678V47.355H11.3826V47.9691L9.37866 47.9653Z" fill="#000099"/>
<path d="M15.1728 45.1568C15.2872 45.2645 15.3759 45.3965 15.4322 45.5432C15.4885 45.6898 15.5111 45.8472 15.4982 46.0038C15.5115 46.1594 15.4884 46.3159 15.4306 46.461C15.3727 46.606 15.2819 46.7355 15.1651 46.8393C14.8654 47.0386 14.5077 47.1321 14.1487 47.1049H13.7387V47.9654H13.0496V44.8854H14.1391C14.6127 44.8815 14.9572 44.972 15.1728 45.1568ZM14.6685 46.3696C14.7586 46.2542 14.8025 46.1094 14.7917 45.9634C14.7996 45.8909 14.7891 45.8177 14.7612 45.7504C14.7332 45.6831 14.6888 45.6239 14.6319 45.5784C14.4791 45.4926 14.3043 45.4537 14.1295 45.4667H13.7445V46.5024H14.2065C14.2885 46.5123 14.3716 46.5057 14.451 46.4829C14.5303 46.4601 14.6043 46.4215 14.6685 46.3696V46.3696Z" fill="#000099"/>
<path d="M18.5378 45.9036C18.5378 46.3977 18.3453 46.7186 17.9603 46.8661L18.7418 47.9692H17.8948L17.2095 46.9855H16.7244V47.9692H16.0353V44.8892H17.2057C17.685 44.8892 18.0257 44.97 18.2317 45.1317C18.3387 45.2281 18.422 45.348 18.4751 45.4819C18.5282 45.6157 18.5496 45.7601 18.5378 45.9036V45.9036ZM17.71 46.2713C17.7562 46.223 17.7916 46.1654 17.8139 46.1023C17.8361 46.0392 17.8447 45.9722 17.839 45.9056C17.8473 45.8425 17.8399 45.7784 17.8174 45.719C17.7949 45.6595 17.758 45.6066 17.71 45.5648C17.5672 45.4908 17.4064 45.4588 17.2461 45.4724H16.7244V46.3926H17.2269C17.397 46.4083 17.5675 46.3655 17.71 46.2713V46.2713Z" fill="#000099"/>
<path d="M21.8065 47.5477C21.4951 47.8443 21.0816 48.0097 20.6515 48.0097C20.2215 48.0097 19.8079 47.8443 19.4965 47.5477C19.197 47.2456 19.0289 46.8374 19.0289 46.412C19.0289 45.9865 19.197 45.5783 19.4965 45.2762C19.8086 44.9809 20.2219 44.8164 20.6515 44.8164C21.0811 44.8164 21.4944 44.9809 21.8065 45.2762C22.106 45.5783 22.2741 45.9865 22.2741 46.412C22.2741 46.8374 22.106 47.2456 21.8065 47.5477V47.5477ZM21.5736 46.4139C21.5788 46.1542 21.4837 45.9025 21.3079 45.7113C21.226 45.6199 21.1257 45.5468 21.0136 45.4967C20.9015 45.4467 20.7801 45.4208 20.6573 45.4208C20.5345 45.4208 20.4131 45.4467 20.301 45.4967C20.1889 45.5468 20.0886 45.6199 20.0066 45.7113C19.8367 45.9059 19.7431 46.1555 19.7431 46.4139C19.7431 46.6723 19.8367 46.9219 20.0066 47.1165C20.0889 47.2074 20.1893 47.28 20.3014 47.3297C20.4135 47.3794 20.5347 47.4051 20.6573 47.4051C20.7799 47.4051 20.9011 47.3794 21.0132 47.3297C21.1252 47.28 21.2257 47.2074 21.3079 47.1165C21.4867 46.9233 21.5821 46.6674 21.5736 46.4043V46.4139Z" fill="#000099"/>
<path d="M24.9808 45.1568C25.0945 45.2649 25.1826 45.3971 25.2385 45.5436C25.2945 45.6902 25.3169 45.8474 25.3042 46.0038C25.318 46.1594 25.2951 46.3161 25.2372 46.4612C25.1794 46.6063 25.0883 46.7358 24.9712 46.8393C24.6716 47.0389 24.3138 47.1324 23.9548 47.1049H23.5448V47.9654H22.8575V44.8854H23.9471C24.4206 44.8815 24.7652 44.972 24.9808 45.1568ZM24.4765 46.3696C24.5658 46.2538 24.6096 46.1093 24.5997 45.9634C24.6077 45.8907 24.5971 45.8173 24.5688 45.7499C24.5405 45.6825 24.4955 45.6235 24.438 45.5784C24.2858 45.4925 24.1117 45.4536 23.9375 45.4667H23.5525V46.5024H24.0164C24.0981 46.5121 24.1809 46.5053 24.2599 46.4825C24.3389 46.4597 24.4125 46.4213 24.4765 46.3696Z" fill="#000099"/>
<path d="M28.0665 44.8816V45.4937H26.5265V46.129H27.9125V46.7161H26.5323V47.3552H28.1146V47.9655H25.8431V44.8854L28.0665 44.8816Z" fill="#000099"/>
<path d="M31.2293 45.9036C31.2293 46.3977 31.0368 46.7186 30.6518 46.8661L31.4315 47.9692H30.5845L29.9011 46.9855H29.4237V47.9692H28.7365V44.8892H29.9049C30.3849 44.8892 30.7269 44.97 30.931 45.1317C31.0366 45.2289 31.1184 45.349 31.1701 45.4829C31.2219 45.6167 31.2421 45.7607 31.2293 45.9036V45.9036ZM30.3997 46.2713C30.4463 46.2233 30.4819 46.1657 30.5042 46.1026C30.5265 46.0394 30.5348 45.9722 30.5286 45.9056C30.5365 45.8422 30.5284 45.7779 30.5053 45.7184C30.4821 45.6589 30.4445 45.6062 30.3958 45.5648C30.2536 45.491 30.0934 45.4589 29.9338 45.4724H29.416V46.3926H29.9203C30.0892 46.4079 30.2583 46.3651 30.3997 46.2713V46.2713Z" fill="#000099"/>
<path d="M33.1793 45.4764V47.9655H32.4921V45.4764H31.6182V44.8816H34.0533V45.4764H33.1793Z" fill="#000099"/>
<path d="M34.5557 44.8816H35.2448V47.9616H34.5557V44.8816Z" fill="#000099"/>
<path d="M38.2267 44.8816V45.4937H36.6867V46.129H38.0689V46.7161H36.6906V47.3552H38.2748V47.9655H35.9976V44.8854L38.2267 44.8816Z" fill="#000099"/>
<path d="M39.609 45.4955C39.5771 45.5219 39.5517 45.5552 39.5347 45.5929C39.5177 45.6306 39.5095 45.6717 39.5108 45.713C39.5106 45.7561 39.5216 45.7986 39.5429 45.8361C39.5642 45.8736 39.5949 45.9048 39.6321 45.9267C39.8094 46.0155 39.9978 46.0802 40.1923 46.1192C40.4423 46.1712 40.6761 46.2828 40.8737 46.4445C40.9577 46.5253 41.023 46.6236 41.0649 46.7323C41.1068 46.8411 41.1243 46.9577 41.1163 47.074C41.1191 47.201 41.093 47.3269 41.04 47.4423C40.987 47.5577 40.9084 47.6595 40.8102 47.7401C40.576 47.9203 40.2854 48.0117 39.9901 47.998C39.4967 47.9957 39.0236 47.801 38.6715 47.4552L39.0815 46.9527C39.3267 47.2041 39.6539 47.3591 40.0036 47.3897C40.1095 47.3963 40.2146 47.3672 40.302 47.3069C40.3365 47.2819 40.3643 47.2488 40.3831 47.2106C40.4019 47.1723 40.411 47.1301 40.4098 47.0875C40.4109 47.0438 40.4008 47.0006 40.3806 46.9619C40.3604 46.9232 40.3307 46.8902 40.2943 46.8661C40.1529 46.7865 39.9995 46.7305 39.84 46.7006C39.5564 46.6482 39.2877 46.5345 39.0527 46.3675C38.9683 46.2775 38.9029 46.1713 38.8605 46.0554C38.818 45.9395 38.7994 45.8162 38.8057 45.6929C38.812 45.5697 38.8431 45.4489 38.8971 45.3379C38.9511 45.227 39.0269 45.128 39.12 45.047C39.3484 44.8816 39.6256 44.7976 39.9074 44.8083C40.1178 44.8087 40.3267 44.8445 40.5253 44.9142C40.7215 44.9799 40.9036 45.0817 41.0624 45.2145L40.7139 45.7169C40.479 45.5259 40.187 45.4189 39.8843 45.4127C39.7856 45.4072 39.6882 45.4365 39.609 45.4955V45.4955Z" fill="#000099"/>
<path d="M20.7247 13.0593V21.2848H18.7997V13.1671C19.3826 13.0935 19.9696 13.0569 20.5572 13.0574L20.7247 13.0593Z" fill="#85DAF2"/>
<path d="M34.6231 27.1215C34.622 29.927 33.7827 32.6682 32.2128 34.9933C30.6429 37.3184 28.4141 39.1215 25.8124 40.1711C24.5467 40.6841 23.2126 41.0084 21.8526 41.1336C21.4811 41.1683 21.1038 41.1875 20.7246 41.1914H20.5571C19.9695 41.1919 19.3825 41.1552 18.7996 41.0816V23.2099H20.7246V38.9353C21.1016 38.9316 21.4781 38.9085 21.8526 38.866C22.5222 38.7952 23.1843 38.6664 23.8316 38.481C24.5137 38.2847 25.1767 38.027 25.8124 37.711V23.2099H21.8526V10.2026L20.7246 9.04763L18.7996 7.07643L16.6397 4.86267V40.6312C15.8936 40.4172 15.1671 40.1396 14.4683 39.8015C12.2367 38.728 10.328 37.0844 8.93508 35.0369C7.54218 32.9893 6.71445 30.6104 6.53554 28.1404C6.35664 25.6705 6.83289 23.1971 7.91618 20.9702C8.99946 18.7433 10.6514 16.8418 12.705 15.4579V18.3031C11.3249 19.5365 10.2536 21.0767 9.57726 22.7997C8.90091 24.5227 8.63841 26.3804 8.81087 28.2234C8.98333 30.0663 9.58593 31.843 10.5702 33.4106C11.5545 34.9782 12.893 36.2929 14.478 37.249V0.208008L16.6494 2.38326L18.7996 4.54504L20.7246 6.47005L21.8526 7.60003L23.8316 9.58663V21.2849H27.8741V36.4C29.1084 35.4274 30.1362 34.2182 30.8973 32.8434C31.6584 31.4685 32.1375 29.9556 32.3066 28.3932C32.4756 26.8309 32.3312 25.2505 31.8818 23.7446C31.4324 22.2388 30.687 20.8378 29.6893 19.6236V16.4262C31.2382 17.7444 32.4818 19.3838 33.3337 21.2307C34.1857 23.0775 34.6257 25.0876 34.6231 27.1215V27.1215Z" fill="#000099"/>
<path d="M14.4684 0.207901V0" stroke="#231F20" stroke-width="0.496278" stroke-miterlimit="10"/>
<path d="M27.8741 8.06006V21.2848H25.8124V12.8206L24.8999 13.7427L23.8315 14.8226V11.962L25.8124 10.0486L27.8741 8.06006Z" fill="#85DAF2"/>
<path d="M21.947 10.3006L21.8527 10.2043" stroke="#231F20" stroke-width="0.496278" stroke-miterlimit="10"/>
</g>
<defs>
<clipPath id="clip0_2488_2378">
<rect width="41.1162" height="48" fill="white"/>
</clipPath>
</defs>
</svg>
