<svg xmlns="http://www.w3.org/2000/svg" viewBox="0 0 213.59 249.35"><defs><style>.cls-1{fill:#009;}.cls-2{fill:#85daf2;}.cls-3{fill:none;stroke:#231f20;stroke-miterlimit:10;}</style></defs><title>REAL PROP</title><g id="Layer_2" data-name="Layer 2"><g id="Layer_1-2" data-name="Layer 1"><path class="cls-1" d="M13,238.46q0,3.85-3,5L14,249.17H9.6l-3.55-5.11H3.58v5.11H0v-16H6.07q3.73,0,5.33,1.26A4.86,4.86,0,0,1,13,238.46Zm-4.3,1.91a2.45,2.45,0,0,0,.66-1.9,2,2,0,0,0-.69-1.77,4.4,4.4,0,0,0-2.4-.48H3.58V241H6.19A3.92,3.92,0,0,0,8.69,240.37Z"/><path class="cls-1" d="M28.21,233.15v3.18h-8v3.3h7.17v3.05H20.24V246h8.22v3.17H16.66v-16Z"/><path class="cls-1" d="M43.06,249.17l-1.49-3.46H34.86l-1.49,3.46H29.56l6.92-16h3.46l6.93,16Zm-4.83-11.26-2,4.66h4Z"/><path class="cls-1" d="M48.72,249.17v-16H52.3V246h6.83v3.19Z"/><path class="cls-1" d="M78.82,234.58a5.43,5.43,0,0,1,1.69,4.4,5.21,5.21,0,0,1-1.73,4.34,8.39,8.39,0,0,1-5.28,1.38H71.37v4.47H67.79v-16h5.66C75.91,233.15,77.7,233.62,78.82,234.58Zm-2.62,6.3a3.06,3.06,0,0,0,.64-2.11,2.25,2.25,0,0,0-.83-2,4.63,4.63,0,0,0-2.61-.58h-2v5.38h2.4A3.2,3.2,0,0,0,76.2,240.88Z"/><path class="cls-1" d="M96.3,238.46q0,3.85-3,5l4.06,5.73h-4.4l-3.56-5.11H86.88v5.11H83.3v-16h6.08c2.49,0,4.26.42,5.33,1.26A4.86,4.86,0,0,1,96.3,238.46ZM92,240.37a2.45,2.45,0,0,0,.67-1.9A2,2,0,0,0,92,236.7a4.42,4.42,0,0,0-2.41-.48H86.88V241h2.61A3.9,3.9,0,0,0,92,240.37Z"/><path class="cls-1" d="M113.28,247a8.7,8.7,0,0,1-12,0,8.38,8.38,0,0,1,0-11.8,8.73,8.73,0,0,1,12,0,8.38,8.38,0,0,1,0,11.8Zm-1.21-5.89a5.24,5.24,0,0,0-1.38-3.65,4.54,4.54,0,0,0-6.76,0,5.55,5.55,0,0,0,0,7.3,4.56,4.56,0,0,0,6.76,0A5.2,5.2,0,0,0,112.07,241.06Z"/><path class="cls-1" d="M129.77,234.58a5.46,5.46,0,0,1,1.68,4.4,5.18,5.18,0,0,1-1.73,4.34,8.37,8.37,0,0,1-5.28,1.38h-2.13v4.47h-3.57v-16h5.66C126.86,233.15,128.65,233.62,129.77,234.58Zm-2.62,6.3a3.11,3.11,0,0,0,.64-2.11,2.23,2.23,0,0,0-.84-2,4.59,4.59,0,0,0-2.6-.58h-2v5.38h2.41A3.2,3.2,0,0,0,127.15,240.88Z"/><path class="cls-1" d="M145.8,233.15v3.18h-8v3.3H145v3.05h-7.17V246h8.22v3.17h-11.8v-16Z"/><path class="cls-1" d="M162.23,238.46q0,3.85-3,5l4.05,5.73h-4.4l-3.55-5.11h-2.48v5.11h-3.57v-16h6.07q3.74,0,5.33,1.26A4.86,4.86,0,0,1,162.23,238.46Zm-4.31,1.91a2.41,2.41,0,0,0,.67-1.9,2,2,0,0,0-.69-1.77,4.4,4.4,0,0,0-2.4-.48h-2.69V241h2.62A3.87,3.87,0,0,0,157.92,240.37Z"/><path class="cls-1" d="M172.36,236.24v12.93h-3.57V236.24h-4.54v-3.09H176.9v3.09Z"/><path class="cls-1" d="M179.51,233.15h3.58v16h-3.58Z"/><path class="cls-1" d="M198.58,233.15v3.18h-8v3.3h7.18v3.05H190.6V246h8.23v3.17H187v-16Z"/><path class="cls-1" d="M205.76,236.34a1.41,1.41,0,0,0-.51,1.13,1.28,1.28,0,0,0,.63,1.11,11.6,11.6,0,0,0,2.91,1,8.24,8.24,0,0,1,3.54,1.69,4.14,4.14,0,0,1,1.26,3.27A4.35,4.35,0,0,1,212,248a6.49,6.49,0,0,1-4.26,1.34,9.84,9.84,0,0,1-6.85-2.82l2.13-2.61a7.62,7.62,0,0,0,4.79,2.27,2.46,2.46,0,0,0,1.55-.43,1.36,1.36,0,0,0,.56-1.14,1.34,1.34,0,0,0-.6-1.15,7.71,7.71,0,0,0-2.36-.86,10.29,10.29,0,0,1-4.09-1.73,4.77,4.77,0,0,1,.35-6.86,6.55,6.55,0,0,1,4.09-1.24,9.76,9.76,0,0,1,3.21.55,8.62,8.62,0,0,1,2.79,1.56l-1.81,2.61a7.06,7.06,0,0,0-4.31-1.58A2.19,2.19,0,0,0,205.76,236.34Z"/><path class="cls-2" d="M107.66,67.84v42.73h-10V68.4a72.43,72.43,0,0,1,9.13-.57Z"/><path class="cls-1" d="M179.86,140.89a73.13,73.13,0,0,1-45.77,67.79,72.44,72.44,0,0,1-20.57,5c-1.93.18-3.89.28-5.86.3h-.87a72.43,72.43,0,0,1-9.13-.57V120.57h10v81.69a56.72,56.72,0,0,0,5.86-.36,60.32,60.32,0,0,0,10.28-2,61,61,0,0,0,10.29-4V120.57H113.52V53l-5.86-6-10-10.24L86.44,25.26V211.07a70.59,70.59,0,0,1-11.28-4.31A73.08,73.08,0,0,1,66,80.3V95.08a61.44,61.44,0,0,0,9.21,98.42V1.08l11.28,11.3L97.66,23.61l10,10,5.86,5.87L123.8,49.8v60.77h21v78.52a61.36,61.36,0,0,0,9.43-87.15V85.33A72.84,72.84,0,0,1,179.86,140.89Z"/><line class="cls-3" x1="75.16" y1="1.08" x2="75.16"/><polygon class="cls-2" points="144.8 41.87 144.8 110.57 134.09 110.57 134.09 66.6 129.35 71.39 123.8 77 123.8 62.14 134.09 52.2 144.8 41.87"/><line class="cls-3" x1="114.01" y1="53.51" x2="113.52" y2="53.01"/></g></g></svg>