<svg width="285" height="288" viewBox="0 0 285 288" fill="none" xmlns="http://www.w3.org/2000/svg">
<path d="M47.1927 159.345C47.1927 159.345 41.2021 160.929 46.2427 173.86C51.2832 186.791 55.0175 193.323 55.0175 193.323C55.0175 193.323 55.8422 196.292 53.3945 196.49C50.9467 196.688 45.7346 195.315 44.3689 198.152C43.0032 200.989 44.877 204.189 49.1192 207.165C53.3615 210.14 62.4068 217.008 63.2249 217.628C64.043 218.249 64.7489 219.66 63.0995 220.063C61.4501 220.465 49.4227 220.512 49.7856 226.218C50.1484 231.925 63.3238 238.279 64.7489 239.005C66.174 239.73 66.4643 240.39 66.2664 241.188C66.0684 241.987 62.0175 241.63 58.5934 241.782C55.1692 241.934 51.2304 242.712 51.7187 245.985C52.2069 249.257 59.6358 256.792 79.0987 260.691L88.243 261.911L94.0159 254.654C105.417 238.391 105.601 227.822 103.695 225.117C101.788 222.412 98.4165 224.562 95.8104 226.812C93.2044 229.062 90.5323 232.09 89.8726 231.681C89.2128 231.272 88.9225 230.553 89.4569 229.042C89.9913 227.531 95.1507 213.868 91.4758 209.467C87.8009 205.067 79.0591 213.353 77.5879 214.191C76.1166 215.029 75.6614 213.531 75.8197 212.515C75.978 211.499 77.799 200.29 78.815 195.21C79.831 190.13 79.0855 186.56 76.0308 185.406C73.0883 184.297 70.2645 188.889 68.3512 190.433C66.4379 191.977 64.993 189.259 64.993 189.259C64.993 189.259 63.1919 181.955 57.9204 169.116C52.6489 156.277 47.0937 159.365 47.0937 159.365" fill="#EBEBEB"/>
<path d="M88.5003 264.115C84.6671 254.674 78.1222 237.771 72.4417 223.289C66.7612 208.807 61.6019 195.711 57.8148 186.25C55.9147 181.533 54.3841 177.673 53.3153 175.034L52.0947 171.986L51.7846 171.195C51.7465 171.104 51.7135 171.012 51.6857 170.917C51.6857 170.917 51.7319 171.003 51.811 171.181C51.8902 171.359 52.0024 171.63 52.1475 171.966L53.4208 174.995C54.516 177.634 56.0599 181.441 57.9996 186.164C61.8328 195.606 67.0251 208.695 72.7122 223.177C78.3993 237.659 84.898 254.568 88.6916 264.029" fill="#E0E0E0"/>
<path d="M51.5801 200.369C51.7952 200.427 52.0032 200.509 52.2003 200.613C52.5961 200.785 53.1569 201.049 53.8431 201.379C55.222 202.038 57.1023 203.021 59.1607 204.136L64.4388 207L66.0354 207.851C66.2387 207.944 66.4312 208.059 66.6094 208.194C66.3943 208.132 66.1846 208.053 65.9826 207.956C65.5934 207.785 65.0326 207.514 64.3464 207.178C62.9741 206.518 61.107 205.495 59.0684 204.387L53.7903 201.563L52.1937 200.712C51.9744 200.626 51.7679 200.511 51.5801 200.369Z" fill="#E0E0E0"/>
<path d="M67.2693 207.666C67.1967 207.633 69.0308 203.668 71.3664 198.812C73.7019 193.956 75.6482 190.044 75.7208 190.077C75.7934 190.11 73.9593 194.082 71.6237 198.937C69.2882 203.793 67.3419 207.706 67.2693 207.666Z" fill="#E0E0E0"/>
<path d="M74.995 230.296C75.1194 230.106 75.2631 229.929 75.4238 229.768L76.6642 228.389C77.7066 227.228 79.1383 225.611 80.6227 223.771C82.1072 221.93 83.4597 220.228 84.4032 218.981C84.8518 218.4 85.2213 217.906 85.5248 217.51C85.6493 217.32 85.7954 217.145 85.9602 216.988C85.8702 217.197 85.7549 217.395 85.6171 217.576C85.373 217.938 85.0234 218.466 84.5681 219.106C83.6642 220.38 82.3711 222.115 80.8471 223.955C79.323 225.796 77.865 227.399 76.7829 228.528C76.2419 229.088 75.7999 229.544 75.4634 229.847C75.3237 230.013 75.1666 230.163 74.995 230.296Z" fill="#E0E0E0"/>
<path d="M59.3522 226.819C59.5743 226.815 59.796 226.839 60.0119 226.891L61.6943 227.195C63.1128 227.465 65.0723 227.855 67.2297 228.31C69.3871 228.765 71.3334 229.187 72.7453 229.504L74.4079 229.9C74.6169 229.937 74.8207 229.999 75.0149 230.085C74.7927 230.089 74.571 230.065 74.3551 230.012L72.6727 229.702C71.2476 229.432 69.2948 229.042 67.1373 228.594C64.9799 228.145 63.027 227.716 61.6217 227.393L59.9526 227.004C59.7455 226.968 59.5437 226.905 59.3522 226.819Z" fill="#E0E0E0"/>
<path d="M63.6075 247.667C63.8785 247.678 64.148 247.713 64.4125 247.773L66.5699 248.156C68.3908 248.492 70.9045 248.974 73.6689 249.521C76.4333 250.069 78.947 250.59 80.7613 250.979L82.8989 251.448C83.1646 251.493 83.4252 251.564 83.6774 251.659C83.4087 251.653 83.1412 251.62 82.8791 251.56L80.7217 251.177C78.9008 250.841 76.3871 250.359 73.6161 249.805C70.8451 249.251 68.338 248.736 66.5303 248.353L64.3861 247.878C64.121 247.83 63.8605 247.76 63.6075 247.667Z" fill="#E0E0E0"/>
<path d="M83.2552 251.421C83.4087 251.186 83.5832 250.965 83.7765 250.762L85.2807 248.96C86.5541 247.436 88.2958 245.325 90.1563 242.937C92.0169 240.548 93.6465 238.358 94.8142 236.755L96.1997 234.855C96.3602 234.621 96.5389 234.4 96.7341 234.195C96.6117 234.455 96.4636 234.703 96.2921 234.934C95.9886 235.402 95.5466 236.069 94.9726 236.913C93.8444 238.543 92.2412 240.766 90.3543 243.155C88.4673 245.543 86.719 247.634 85.4127 249.132C84.7529 249.871 84.2185 250.451 83.8358 250.874C83.657 251.071 83.4629 251.254 83.2552 251.421Z" fill="#E0E0E0"/>
<path d="M209.038 190.624L209.791 190.169L214.693 198.271C214.827 198.494 215.004 198.688 215.213 198.842C215.422 198.996 215.66 199.108 215.912 199.171C216.165 199.233 216.427 199.245 216.684 199.206C216.941 199.167 217.188 199.078 217.411 198.944C217.633 198.81 217.828 198.633 217.982 198.424C218.136 198.214 218.248 197.977 218.31 197.724C218.373 197.472 218.385 197.21 218.346 196.953C218.307 196.695 218.218 196.448 218.084 196.226L213.188 188.124L213.94 187.669L218.836 195.771C219.228 196.42 219.346 197.198 219.164 197.934C218.982 198.67 218.515 199.304 217.866 199.696C217.217 200.088 216.439 200.206 215.702 200.024C214.966 199.842 214.332 199.375 213.94 198.726L209.038 190.624Z" fill="#EBEBEB"/>
<path d="M219.7 199.007L218.94 199.466L222.319 205.055L223.079 204.595L219.7 199.007Z" fill="#EBEBEB"/>
<path d="M115.267 0C114.765 7.12541 115.267 20.3998 112.674 27.0502C110.081 33.7005 106.617 40.562 100.138 43.5442C92.1421 47.2124 82.7471 45.6554 74.2164 47.8062C60.8497 51.171 51.1776 63.4359 47.0541 76.5915C42.9306 89.7471 43.3858 103.84 43.8807 117.615L112.1 127.076C112.1 127.076 112.456 99.3664 118.407 91.7858C124.358 84.2051 152.629 77.403 161.951 56.68C170.357 38.0286 172.89 8.45152 172.89 8.45152L115.267 0Z" fill="#F5F5F5"/>
<path d="M131.932 18.7306L131.048 17.101C130.925 17.1103 130.802 17.1103 130.679 17.101L129.425 16.9492L129.241 18.4271L128.752 18.3677L129.326 13.7032L131.068 13.9209C132.256 14.0661 132.896 14.7588 132.777 15.7551C132.749 16.0836 132.61 16.3929 132.384 16.6326C132.157 16.8722 131.856 17.028 131.53 17.0746L132.467 18.8098L131.932 18.7306ZM132.282 15.6693C132.374 14.9238 131.932 14.4355 131.002 14.3498L129.762 14.198L129.478 16.5336L130.712 16.6853C131.649 16.7513 132.223 16.4082 132.282 15.6759V15.6693Z" fill="#E0E0E0"/>
<path d="M136.907 18.9219L136.854 19.3442L133.555 18.9417L134.129 14.2838L137.323 14.6731L137.27 15.1019L134.578 14.772L134.373 16.4346L136.782 16.7315L136.729 17.1472L134.321 16.8503L134.103 18.5789L136.907 18.9219Z" fill="#E0E0E0"/>
<path d="M137.857 17.1076C137.892 16.7881 137.992 16.4791 138.151 16.1996C138.309 15.92 138.523 15.6758 138.78 15.4819C139.036 15.2879 139.329 15.1484 139.641 15.0717C139.953 14.995 140.278 14.9828 140.595 15.0359C140.912 15.0633 141.219 15.1567 141.498 15.3101C141.776 15.4635 142.019 15.6735 142.211 15.9266L141.862 16.2037C141.705 15.9965 141.507 15.8248 141.28 15.6997C141.052 15.5746 140.801 15.4991 140.542 15.478C140.284 15.4352 140.019 15.4452 139.764 15.5072C139.51 15.5692 139.27 15.682 139.06 15.8388C138.85 15.9956 138.674 16.1932 138.542 16.4198C138.411 16.6463 138.326 16.8972 138.294 17.1572C138.261 17.4173 138.282 17.6812 138.354 17.9332C138.426 18.1852 138.548 18.42 138.713 18.6236C138.878 18.8273 139.082 18.9954 139.314 19.1181C139.545 19.2408 139.799 19.3154 140.061 19.3376C140.316 19.3788 140.578 19.3655 140.828 19.2984C141.078 19.2313 141.311 19.112 141.512 18.9483L141.783 19.3046C141.532 19.5032 141.244 19.6474 140.935 19.7281C140.626 19.8087 140.303 19.824 139.988 19.773C139.67 19.7446 139.362 19.6523 139.081 19.5014C138.8 19.3506 138.552 19.1444 138.353 18.8954C138.154 18.6463 138.008 18.3595 137.922 18.0522C137.837 17.745 137.815 17.4236 137.857 17.1076Z" fill="#E0E0E0"/>
<path d="M146.117 20.0501L146.064 20.479L142.779 20.0501L143.353 15.3922L146.546 15.7881L146.493 16.2103L143.788 15.8804L143.584 17.5364L145.992 17.8333L145.946 18.2556L143.538 17.9587L143.32 19.6873L146.117 20.0501Z" fill="#E0E0E0"/>
<path d="M147.799 15.9662L148.288 16.0322L147.714 20.7099L147.219 20.6439L147.799 15.9662Z" fill="#E0E0E0"/>
<path d="M153.256 18.2622C153.13 19.2584 152.339 19.7664 151.158 19.6213L149.904 19.4629L149.726 20.9342L149.231 20.8748L149.805 16.2169L151.547 16.4346C152.735 16.5798 153.381 17.2659 153.256 18.2622ZM152.761 18.2028C152.853 17.4573 152.418 16.9756 151.481 16.8833L150.247 16.7315L149.957 19.0605L151.197 19.2122C152.128 19.3046 152.675 18.9351 152.761 18.2028Z" fill="#E0E0E0"/>
<path d="M155.215 17.3187L153.579 17.1142L153.632 16.6919L157.399 17.1538L157.346 17.5826L155.71 17.4111L155.189 21.6467L154.694 21.5807L155.215 17.3187Z" fill="#E0E0E0"/>
<path d="M147.846 30.1114C147.846 30.2104 141.611 29.4517 133.958 28.3961C126.305 27.3405 120.103 26.4168 120.103 26.3376C120.103 26.2585 126.331 26.9974 133.958 28.053C141.585 29.1086 147.852 30.0191 147.846 30.1114Z" fill="#E0E0E0"/>
<path d="M147.094 35.6666C147.094 35.7656 140.865 35.0069 133.239 33.9513C125.612 32.8957 119.384 31.972 119.384 31.8928C119.384 31.8136 125.612 32.5526 133.239 33.6082C140.865 34.6638 147.107 35.5743 147.094 35.6666Z" fill="#E0E0E0"/>
<path d="M144.553 41.334C144.553 41.4263 138.325 40.6742 130.698 39.6186C123.072 38.563 116.844 37.6393 116.844 37.5536C116.844 37.4678 123.065 38.2133 130.698 39.2755C138.332 40.3377 144.567 41.2416 144.553 41.334Z" fill="#E0E0E0"/>
<path d="M139.929 47.0475C139.929 47.1464 133.7 46.3877 126.041 45.3321C118.381 44.2765 112.186 43.3528 112.186 43.2737C112.186 43.1945 118.414 43.9334 126.074 44.989C133.733 46.0447 139.942 46.9551 139.929 47.0475Z" fill="#E0E0E0"/>
<path d="M132.559 52.7544C132.559 52.8468 126.331 52.0946 118.704 51.0324C111.077 49.9702 104.849 49.0531 104.849 48.974C104.849 48.8948 111.077 49.6337 118.704 50.6959C126.331 51.7582 132.572 52.6554 132.559 52.7544Z" fill="#E0E0E0"/>
<path d="M160.269 31.9654C157.982 31.8231 155.714 31.454 153.5 30.8636C154.649 30.8789 155.794 31.0071 156.917 31.2462C158.056 31.3737 159.179 31.6146 160.269 31.9654Z" fill="#E0E0E0"/>
<path d="M160.032 36.9202C158.889 36.9057 157.751 36.7797 156.634 36.5441C155.495 36.4166 154.373 36.1757 153.282 35.825C154.429 35.8328 155.573 35.9611 156.693 36.2076C157.827 36.3357 158.945 36.5744 160.032 36.9202Z" fill="#E0E0E0"/>
<path d="M158.349 43.8015C157.2 43.781 156.055 43.6484 154.932 43.4056C153.797 43.2622 152.676 43.0261 151.58 42.6997C151.58 42.5809 153.124 42.759 154.991 43.0625C156.132 43.1957 157.257 43.4433 158.349 43.8015Z" fill="#E0E0E0"/>
<path d="M155.921 49.5744C154.772 49.5539 153.627 49.4213 152.504 49.1785C151.369 49.0341 150.248 48.798 149.152 48.4726C149.152 48.3538 150.696 48.5319 152.563 48.8354C153.705 48.9677 154.83 49.2153 155.921 49.5744Z" fill="#E0E0E0"/>
<path d="M150.696 55.0834C149.547 55.0632 148.402 54.9306 147.278 54.6875C146.143 54.5479 145.022 54.3117 143.927 53.9816C143.927 53.8628 145.471 54.0409 147.331 54.351C148.474 54.4837 149.601 54.729 150.696 55.0834Z" fill="#E0E0E0"/>
<path d="M126.285 59.7215C126.285 59.8138 116.942 58.5735 105.449 56.9439C93.9564 55.3143 84.6406 53.9222 84.6538 53.8298C84.667 53.7375 93.996 54.9778 105.496 56.6074C116.995 58.237 126.285 59.6357 126.285 59.7215Z" fill="#E0E0E0"/>
<path d="M121.442 65.5735C121.288 65.5693 121.133 65.5561 120.98 65.534L119.661 65.3624L114.845 64.6565L98.9708 62.2154C92.7756 61.2389 87.1742 60.3284 83.1365 59.6489L78.3401 58.8242C77.7727 58.7186 77.3372 58.6395 77.0205 58.5735C76.867 58.5511 76.7164 58.5113 76.5719 58.4547C76.727 58.4601 76.8814 58.4778 77.0337 58.5075L78.3533 58.6922L83.1695 59.4114L99.0433 61.8723L114.878 64.419L119.674 65.2305L120.994 65.468C121.147 65.4843 121.298 65.5198 121.442 65.5735Z" fill="#E0E0E0"/>
<path d="M112.733 70.8912C112.158 70.9045 111.582 70.8536 111.018 70.7395C109.903 70.5943 108.287 70.37 106.287 70.0797C102.296 69.5057 96.7869 68.6678 90.7105 67.7178C84.6341 66.7677 79.1251 65.877 75.1468 65.2173L70.4361 64.4256L69.1627 64.188C69.0119 64.1697 68.8636 64.1343 68.7207 64.0825C68.8713 64.0779 69.0219 64.0912 69.1693 64.1221L70.4559 64.287L75.1864 64.9468L90.7633 67.3417L106.327 69.8092L112.733 70.8912Z" fill="#E0E0E0"/>
<path d="M141.98 62.9345C140.831 62.914 139.686 62.7814 138.563 62.5386C137.428 62.3943 136.308 62.1582 135.211 61.8327C135.211 61.7139 136.755 61.8921 138.622 62.1956C139.764 62.3269 140.889 62.5745 141.98 62.9345Z" fill="#E0E0E0"/>
<path d="M135.257 66.6687C134.108 66.6483 132.963 66.5157 131.84 66.2729C130.705 66.1285 129.585 65.8924 128.488 65.567C128.488 65.4482 130.032 65.6263 131.899 65.9298C133.041 66.0611 134.166 66.3087 135.257 66.6687Z" fill="#E0E0E0"/>
<path d="M126.206 72.9695C125.056 72.949 123.912 72.8164 122.788 72.5736C121.653 72.4331 120.532 72.1969 119.436 71.8677C119.436 71.7489 120.98 71.9271 122.847 72.2371C123.988 72.3682 125.113 72.6135 126.206 72.9695Z" fill="#E0E0E0"/>
<path d="M108.907 82.9186C108.907 83.0176 97.3543 81.3154 83.1761 79.1316C68.9978 76.9478 57.4454 75.0939 57.4454 75.0015C57.4454 74.9091 68.9912 76.6047 83.1761 78.7951C97.3609 80.9855 108.92 82.8262 108.907 82.9186Z" fill="#E0E0E0"/>
<path d="M101.999 95.4079C101.999 95.5003 98.1988 94.9659 93.554 94.2137C88.9093 93.4616 85.1487 92.7754 85.1619 92.6831C85.1751 92.5907 88.9621 93.1251 93.6068 93.8772C98.2515 94.6294 102.012 95.3089 101.999 95.4079Z" fill="#E0E0E0"/>
<path d="M284.238 283.789C284.238 283.888 220.604 283.961 142.125 283.961C63.647 283.961 0 283.888 0 283.789C0 283.69 63.6206 283.618 142.125 283.618C220.63 283.618 284.238 283.697 284.238 283.789Z" fill="#263238"/>
<path d="M70.5283 59.9788L70.5811 62.6178C70.5811 62.6178 71.6565 83.0704 71.5905 86.1448C71.5245 89.2193 61.2653 106.762 61.2653 106.762L67.566 117.035L82.6085 89.9847L79.0062 60.9552L78.9138 60.2361" fill="#FFBE9D"/>
<path d="M78.1684 56.8185L76.1429 49.3698L68.2258 53.9486C68.2258 54.6083 70.5944 59.9788 70.5944 59.9788L71.9667 61.4039C71.9667 61.4039 78.848 60.6781 78.9931 60.6056C79.1383 60.533 78.1684 56.8185 78.1684 56.8185Z" fill="#FFBE9D"/>
<path d="M76.387 49.8976C76.387 49.8976 76.4332 49.957 76.4662 50.056C76.7697 50.8609 77.6537 54.4962 77.2513 54.7667C76.8488 55.0372 75.4897 55.1032 75.272 54.6479C75.0543 54.1927 74.3022 50.0296 74.3022 50.0296C74.3022 50.0296 74.223 49.3698 75.2654 48.9278C75.912 48.6771 76.387 49.8976 76.387 49.8976Z" fill="#FFBE9D"/>
<path d="M73.8799 49.1587C73.8799 49.1587 73.9261 49.2181 73.9591 49.3105C74.2625 50.122 75.1466 53.7506 74.7442 54.0211C74.3417 54.2916 72.9826 54.3576 72.7649 53.9024C72.5472 53.4471 71.795 49.2841 71.795 49.2841C71.795 49.2841 71.7225 48.6243 72.7583 48.1889C73.4049 47.9316 73.8799 49.1587 73.8799 49.1587Z" fill="#FFBE9D"/>
<path d="M71.5905 49.0795C71.6289 49.1254 71.656 49.1796 71.6697 49.2379C71.9732 50.0428 72.8506 53.6781 72.4482 53.9486C72.0457 54.2191 70.6932 54.285 70.4689 53.8298C70.2446 53.3746 69.4991 49.2115 69.4991 49.2115C69.4991 49.2115 69.4199 48.5517 70.4623 48.1163C71.1155 47.8326 71.5905 49.0795 71.5905 49.0795Z" fill="#FFBE9D"/>
<path d="M69.3211 48.9872C69.3595 49.033 69.3866 49.0873 69.4003 49.1455C69.7037 49.9504 70.5812 53.5857 70.1788 53.8562C69.7763 54.1267 68.4172 54.1927 68.1995 53.7374C67.9818 53.2822 67.2296 49.1191 67.2296 49.1191C67.2296 49.1191 67.1505 48.4594 68.1929 48.0239C68.8461 47.76 69.3211 48.9872 69.3211 48.9872Z" fill="#FFBE9D"/>
<path d="M74.9884 53.5923C74.9721 52.98 74.8768 52.3724 74.7047 51.7846C74.6111 51.1895 74.4426 50.6088 74.2032 50.056C74.2195 50.6683 74.3149 51.2759 74.4869 51.8637C74.5806 52.4588 74.749 53.0396 74.9884 53.5923Z" fill="#EB996E"/>
<path d="M72.8441 54.1531C72.7774 53.29 72.6294 52.4351 72.4021 51.5998C72.2631 50.7449 72.0422 49.9053 71.7423 49.0927C71.8174 49.9548 71.9653 50.8089 72.1843 51.646C72.3319 52.4991 72.5526 53.3379 72.8441 54.1531Z" fill="#EB996E"/>
<g opacity="0.78">
<path opacity="0.78" d="M70.647 54.5358C70.5721 53.6715 70.4243 52.8152 70.2049 51.9759C70.0574 51.1228 69.8367 50.284 69.5452 49.4688C69.612 50.334 69.76 51.1911 69.9872 52.0287C70.1273 52.8834 70.3482 53.7228 70.647 54.5358Z" fill="#EB996E"/>
</g>
<path d="M72.3624 59.253L69.9609 57.3133C68.9086 56.4653 68.2254 55.243 68.0542 53.9024L67.9222 52.8798L75.1796 51.4151C75.1796 51.4151 75.1796 54.1135 73.1344 54.1465L75.6876 55.466L72.3624 59.253Z" fill="#FFBE9D"/>
<path d="M75.338 55.9872C75.305 55.9872 75.1467 55.6903 74.7113 55.2879C74.1095 54.7328 73.3261 54.4161 72.5077 54.3972H71.7291L72.4615 54.1267L74.1373 53.5065C74.4726 53.3273 74.7493 53.0553 74.9342 52.7231C75.119 52.3908 75.2043 52.0123 75.1797 51.6328C75.1738 51.5748 75.1627 51.5174 75.1467 51.4613L75.3512 51.5734C73.3258 52.0749 71.4916 52.4971 70.1523 52.728C69.4925 52.8468 68.9384 52.9193 68.5557 52.9655C68.3609 52.9931 68.1633 52.9931 67.9685 52.9655C68.6697 52.7616 69.381 52.5942 70.0995 52.4641C71.419 52.1804 73.24 51.7186 75.2654 51.2172L75.4238 51.1776L75.47 51.3293C75.4931 51.4049 75.5107 51.4821 75.5228 51.5602C75.5729 52.0226 75.4635 52.4882 75.2127 52.8798C74.9782 53.2305 74.6697 53.5256 74.3088 53.744L72.6132 54.3246L72.567 54.0475C73.4505 54.0834 74.2845 54.4648 74.8894 55.1098C75.1194 55.3536 75.275 55.658 75.338 55.9872Z" fill="#EB996E"/>
<path d="M74.896 52.6291C74.9554 52.6291 75.0741 52.9589 75.4436 53.2888C75.5371 53.3798 75.657 53.439 75.7861 53.458C75.9152 53.4769 76.047 53.4547 76.1627 53.3944C76.2915 53.287 76.3893 53.1473 76.4461 52.9896C76.5029 52.8319 76.5167 52.6619 76.486 52.4971C76.4002 51.679 76.3541 50.9137 76.2815 50.3859C76.2089 49.8581 76.1165 49.5216 76.1693 49.5018C76.2221 49.482 76.3739 49.7921 76.519 50.3397C76.6697 51.0446 76.7732 51.7587 76.8291 52.4773C76.8654 52.7024 76.8377 52.9331 76.749 53.1431C76.6604 53.3532 76.5143 53.534 76.3277 53.6649C76.1561 53.7526 75.9604 53.7814 75.7708 53.7468C75.5812 53.7123 75.4082 53.6162 75.2787 53.4736C75.1223 53.3031 75.0052 53.1004 74.9356 52.8798C74.8894 52.728 74.8762 52.6422 74.896 52.6291Z" fill="#EB996E"/>
<path d="M50.2342 76.5651C51.9892 76.4596 53.6188 77.5284 54.8525 78.8083C56.0863 80.0883 56.9968 81.6057 58.2569 82.8395C59.1938 83.7565 60.3285 84.5482 60.8959 85.7292C61.7998 87.6161 61.0411 90.0506 62.2155 91.8056C62.8752 92.7886 63.9902 93.3692 64.6566 94.3391C65.4813 95.5596 65.4219 97.1562 65.2372 98.6209C65.1929 99.6508 64.8311 100.642 64.2013 101.458C63.6136 102.006 62.8997 102.4 62.1231 102.606C56.3645 104.554 50.1465 104.688 44.3096 102.989" fill="#263238"/>
<path d="M38.1407 88.3287C37.9896 87.1235 38.082 85.9002 38.4125 84.7314C38.743 83.5625 39.3049 82.472 40.0648 81.5244C40.8247 80.5768 41.7672 79.7915 42.8363 79.215C43.9054 78.6385 45.0795 78.2826 46.2887 78.1684C48.6303 77.9876 50.9529 78.7056 52.7839 80.1763C54.615 81.647 55.817 83.76 56.1455 86.0855C56.7091 89.3966 57.0967 92.7353 57.3067 96.0875C57.2473 100.745 54.5225 102.553 53.4207 103.101C53.0236 103.245 52.6123 103.347 52.1936 103.404C52.1936 103.404 52.1936 103.404 52.1936 103.437L53.2294 108.781C53.6978 112.285 51.7449 115.379 48.2482 115.913C44.7515 116.448 42.0003 113.736 41.4659 110.233L38.1407 88.3287Z" fill="#FFBE9D"/>
<path d="M55.3407 88.8367C55.2681 88.9422 54.6809 88.6124 53.8628 88.7311C53.0447 88.8499 52.5433 89.3249 52.4575 89.2391C52.3718 89.1534 52.4575 89.0214 52.7017 88.7971C53.0086 88.5122 53.3954 88.328 53.8101 88.2693C54.2197 88.2109 54.6373 88.2825 55.0042 88.4738C55.2747 88.6256 55.3803 88.7839 55.3407 88.8367Z" fill="#263238"/>
<path d="M48.3341 90.3541C48.2549 90.4597 47.6743 90.1298 46.8562 90.2486C46.0381 90.3673 45.5367 90.8423 45.4444 90.7632C45.352 90.684 45.4443 90.5389 45.6885 90.3211C45.9944 90.0309 46.3851 89.846 46.8035 89.7933C47.2124 89.7288 47.6313 89.7982 47.9976 89.9913C48.2615 90.143 48.3737 90.3013 48.3341 90.3541Z" fill="#263238"/>
<path d="M51.0721 94.0752C51.47 93.8882 51.8885 93.7487 52.319 93.6595C52.517 93.6067 52.7017 93.5408 52.7149 93.4022C52.6998 93.1906 52.6216 92.9884 52.4906 92.8216L51.6725 91.3768C50.9338 90.1577 50.2919 88.8827 49.7526 87.5633C50.5921 88.7167 51.3357 89.937 51.976 91.2118C52.2531 91.7198 52.517 92.2081 52.7743 92.6699C52.9341 92.8967 53.011 93.1716 52.992 93.4484C52.9718 93.5234 52.9354 93.5931 52.8852 93.6524C52.835 93.7117 52.7723 93.7592 52.7017 93.7915C52.5957 93.8349 52.485 93.8659 52.3718 93.8838C51.9493 94.0063 51.512 94.0706 51.0721 94.0752Z" fill="#263238"/>
<path d="M52.1607 103.437C52.1607 103.437 49.1588 104.13 45.0221 102.395C45.0221 102.395 46.8034 106.241 52.4444 104.875L52.1607 103.437Z" fill="#EB996E"/>
<path d="M50.9995 96.0215C50.8248 95.8602 50.6127 95.745 50.3823 95.6863C50.1519 95.6276 49.9105 95.6271 49.68 95.685C49.509 95.7261 49.348 95.801 49.2063 95.9052C49.0647 96.0095 48.9453 96.1409 48.8553 96.292C48.7703 96.4392 48.7318 96.6087 48.7448 96.7782C48.7577 96.9477 48.8215 97.1094 48.9278 97.242C49.0765 97.3638 49.2576 97.4393 49.4487 97.4592C49.6399 97.4792 49.8326 97.4426 50.0032 97.3542C50.3541 97.1643 50.6654 96.909 50.9203 96.6021C50.9991 96.526 51.0639 96.4367 51.1116 96.3382C51.1345 96.2908 51.1423 96.2377 51.1341 96.1858C51.1258 96.1339 51.1019 96.0857 51.0655 96.0479" fill="#EB996E"/>
<path d="M48.8223 94.9593C48.9476 94.9593 49.073 95.7906 49.8911 96.2788C50.7092 96.767 51.613 96.5493 51.6328 96.668C51.6526 96.7868 51.4547 96.866 51.072 96.9319C50.572 97.0115 50.06 96.9109 49.6272 96.6483C49.209 96.4001 48.9056 95.9971 48.7827 95.5267C48.6969 95.1902 48.7629 94.9659 48.8223 94.9593Z" fill="#263238"/>
<path d="M47.7732 87.7877C47.727 88.0186 46.9221 88.0252 46.0117 88.2759C45.1012 88.5266 44.3953 88.8829 44.2435 88.7047C44.1775 88.6256 44.2435 88.4012 44.547 88.1505C44.9124 87.8382 45.344 87.613 45.8091 87.4918C46.2743 87.3707 46.7609 87.3568 47.2322 87.4512C47.6149 87.537 47.8062 87.6821 47.7732 87.7877Z" fill="#263238"/>
<path d="M54.5489 86.4087C54.4368 86.6067 53.8892 86.5011 53.2294 86.5869C52.5697 86.6727 52.0419 86.8838 51.9099 86.7122C51.778 86.5407 51.9099 86.4351 52.1144 86.2306C52.4092 85.9801 52.7723 85.8239 53.1569 85.782C53.5408 85.7307 53.9311 85.8023 54.2718 85.9865C54.4896 86.1382 54.5951 86.3098 54.5489 86.4087Z" fill="#263238"/>
<path d="M57.0561 85.0695C56.0928 86.5407 53.0381 85.6303 51.1908 84.6208C50.2286 85.237 49.0637 85.4529 47.9446 85.2225C46.8254 84.992 45.8406 84.3334 45.2002 83.3871C44.1446 84.7066 42.0004 84.2909 41.2416 82.7735C40.4829 81.2561 40.8986 79.1712 41.974 77.8451C43.0545 76.6066 44.5433 75.7967 46.17 75.5623C48.0369 75.1996 49.9692 75.3919 51.728 76.1153C53.4868 76.8388 54.9951 78.0617 56.0664 79.633C57.0825 81.1703 57.6961 83.2353 57.0891 85.0761" fill="#263238"/>
<path d="M42.2246 77.7329C38.7609 77.0732 35.4225 80.5237 35.0728 83.011C34.4724 87.2994 35.0728 87.8338 34.2679 89.8857C33.7599 91.2052 31.9983 92.5907 31.3056 93.9696C30.5534 95.4475 30.56 97.9282 31.0813 99.5248C31.5167 100.844 33.3046 104.559 33.3046 104.559C33.3046 104.559 38.4508 104.394 41.0832 103.721C41.7634 103.581 42.401 103.283 42.9437 102.85C43.4452 102.395 42.4093 100.825 42.5083 100.158C42.7788 98.258 44.1973 97.1563 43.8278 95.2825C43.2868 92.7952 41.3273 92.6435 41.3669 90.1166C41.3669 88.7971 43.4056 86.8178 43.5903 85.4983C43.775 84.1788 44.5536 79.4945 42.2708 77.7659" fill="#263238"/>
<path d="M36.3659 104.697C36.3659 104.697 36.1152 104.407 35.7062 103.879C35.0951 103.136 34.5808 102.318 34.1755 101.445C33.5642 100.159 33.3047 98.7336 33.4234 97.3146C33.489 96.4531 33.7244 95.6132 34.1162 94.8432C34.508 94.0732 35.0484 93.3883 35.7062 92.8282C36.4187 92.2542 37.2302 91.8188 37.923 91.2382C38.6114 90.6842 39.1152 89.9341 39.3678 89.0874C39.573 88.3372 39.7164 87.5716 39.7967 86.798C39.865 86.1385 39.9954 85.4868 40.1859 84.8517C40.3116 84.3965 40.5309 83.9724 40.8296 83.6066C41.1284 83.2408 41.5001 82.9414 41.9211 82.7273C42.246 82.5944 42.5928 82.5228 42.9437 82.5162C42.8546 82.486 42.7607 82.4726 42.6666 82.4766C42.3957 82.4722 42.1267 82.5216 41.8749 82.6217C41.4178 82.8198 41.0096 83.1156 40.6791 83.4883C40.3485 83.861 40.1036 84.3016 39.9616 84.7791C39.7471 85.4221 39.599 86.0853 39.5196 86.7584C39.4325 87.5151 39.2824 88.2633 39.071 88.995C38.8296 89.7793 38.3528 90.4703 37.7052 90.9743C37.0455 91.5285 36.2274 91.9573 35.4819 92.5643C34.7949 93.1489 34.2321 93.8652 33.8264 94.6709C33.4207 95.4765 33.1805 96.3552 33.1199 97.2552C33.0108 98.7204 33.2979 100.188 33.9512 101.504C34.3817 102.383 34.9324 103.198 35.5874 103.925C35.8183 104.176 36.0163 104.367 36.1482 104.486C36.2104 104.566 36.2838 104.638 36.3659 104.697Z" fill="#455A64"/>
<path d="M61.5424 102.454C61.5424 102.454 61.5952 102.395 61.6743 102.269C61.7818 102.081 61.8787 101.888 61.9646 101.689C62.2634 100.947 62.4158 100.153 62.4132 99.3532C62.419 98.1536 62.0826 96.9772 61.4434 95.9621C61.0426 95.3884 60.6017 94.8438 60.1239 94.3325C59.6321 93.807 59.2785 93.1678 59.0947 92.472C58.7846 91.0271 59.2596 89.569 59.1606 88.2231C59.1343 87.0287 58.8076 85.8601 58.2106 84.8253C57.7988 84.1389 57.2509 83.5439 56.6008 83.077C56.4226 82.9543 56.2376 82.842 56.0466 82.7405L55.842 82.6481C56.0529 82.833 56.2731 83.007 56.5018 83.1693C57.11 83.657 57.6185 84.2573 57.9995 84.9375C58.548 85.9512 58.8401 87.0837 58.8505 88.2363C58.8625 88.9203 58.8206 89.6041 58.7252 90.2815C58.619 91.0313 58.6346 91.7932 58.7714 92.5379C58.9667 93.2783 59.3431 93.9584 59.8666 94.5172C60.3408 95.0177 60.7816 95.5489 61.1861 96.1072C61.8127 97.0731 62.1556 98.1955 62.1757 99.3467C62.198 100.126 62.0818 100.904 61.8327 101.643C61.6677 102.17 61.516 102.441 61.5424 102.454Z" fill="#455A64"/>
<path d="M46.8892 76.0769C47.6345 76.0671 48.3796 76.1089 49.1191 76.2023C50.8922 76.4995 52.5165 77.3766 53.7375 78.6962C54.8934 80.073 55.6609 81.7333 55.9609 83.5058C56.0634 84.2467 56.1009 84.995 56.073 85.7424C56.1444 85.5496 56.1866 85.3473 56.1984 85.142C56.2631 84.5897 56.2631 84.0317 56.1984 83.4794C55.957 81.6388 55.1895 79.9069 53.9882 78.4917C52.724 77.1213 51.0201 76.2367 49.1719 75.9912C48.6176 75.923 48.057 75.923 47.5027 75.9912C47.295 75.9874 47.0879 76.0163 46.8892 76.0769Z" fill="#455A64"/>
<path d="M51.8637 82.9186C51.9151 82.7498 51.9396 82.5739 51.9363 82.3974C51.9519 81.9133 51.9009 81.4293 51.7845 80.9591C51.6027 80.1743 51.2631 79.4346 50.7863 78.7852C50.3095 78.1357 49.7056 77.5901 49.0112 77.1815C48.3169 76.7729 47.5466 76.5099 46.7474 76.4085C45.9482 76.3071 45.1366 76.3693 44.3622 76.5915C43.8991 76.7181 43.4552 76.9068 43.0427 77.1523C42.7524 77.3371 42.6073 77.4558 42.6205 77.4756C43.1989 77.1998 43.8019 76.979 44.4216 76.8158C45.9305 76.4302 47.5308 76.6571 48.8731 77.4469C50.2154 78.2367 51.1908 79.5254 51.5866 81.0317C51.7311 81.6519 51.8238 82.2831 51.8637 82.9186Z" fill="#455A64"/>
<path d="M36.9268 135.02C36.9268 135.02 39.2095 140.219 39.0776 142.68C38.9456 145.141 36.5903 153.137 36.5903 153.137L64.4915 155.743L64.6169 149.29L63.779 122.748L79.3361 99.0827L67.566 92.2608L56.1192 107.798L53.2228 106.677L40.6874 108.26V110.437L40.3311 110.477C37.5819 111.061 34.9474 112.093 32.5328 113.531C30.3375 114.899 28.5976 116.887 27.5335 119.245C26.4694 121.602 26.129 124.222 26.5553 126.773C27.0633 129.94 28.053 133.786 29.9531 136.009C33.6082 140.272 36.9268 135.02 36.9268 135.02Z" fill="#2193B0"/>
<path d="M32.9682 122.63C32.9682 122.63 31.5431 114.528 31.939 113.941C32.4272 113.248 38.2925 110.728 38.3782 110.985L39.6648 119.892L32.9682 122.63Z" fill="#FAFAFA"/>
<path d="M56.7459 123.078L56.0796 138.616H61.9449V123.078H56.7459Z" fill="#FAFAFA"/>
<path d="M47.0409 130.85C47.1505 130.838 47.2612 130.838 47.3708 130.85H48.3802L52.2398 130.791H52.352V130.91C52.3916 134.637 52.4113 140.212 52.4113 146.447V146.618H46.1964V146.447C46.4141 141.967 46.6121 138.075 46.7506 135.231C46.8298 133.911 46.8892 132.81 46.9353 132.018C46.9353 131.668 46.9749 131.358 46.9947 131.167C46.9832 131.075 46.9832 130.982 46.9947 130.89C47.0016 130.995 47.0016 131.101 46.9947 131.206C46.9947 131.444 46.9947 131.734 46.9947 132.091C46.9947 132.895 46.9419 133.991 46.9024 135.35C46.8034 138.141 46.6648 141.994 46.5065 146.434L46.3416 146.262H52.2068L52.0353 146.434C52.0353 140.199 52.0353 134.624 52.0947 130.896L52.2068 131.009L48.433 130.89H47.3972L47.0409 130.85Z" fill="#FAFAFA"/>
<path d="M69.6641 113.466L63.4756 109.553L68.912 101.616L75.2523 105.298L69.6641 113.466Z" fill="#FAFAFA"/>
<g opacity="0.4">
<path opacity="0.4" d="M63.4757 113.941H45.3125V119.832H63.4757V113.941Z" fill="white"/>
</g>
<path d="M63.2116 129.966C63.1797 129.787 63.1797 129.604 63.2116 129.425C63.2578 129.075 63.3172 128.574 63.3699 127.96C63.5132 126.349 63.5132 124.729 63.3699 123.118C63.2192 121.507 62.9233 119.912 62.4859 118.354C62.156 117.16 61.8855 116.434 61.9383 116.415C61.991 116.395 62.0504 116.573 62.189 116.896C62.391 117.349 62.5694 117.811 62.7234 118.282C63.2296 119.841 63.5615 121.452 63.713 123.085C63.8668 124.717 63.8336 126.362 63.614 127.987C63.5499 128.477 63.4596 128.964 63.3435 129.445C63.3275 129.625 63.2829 129.8 63.2116 129.966Z" fill="#263238"/>
<path d="M72.0195 94.8405C71.711 95.3294 71.3552 95.7869 70.9573 96.2062C70.2975 97.0177 69.3013 98.1261 68.2127 99.34L67.0515 100.62L66.9525 100.732L66.8338 100.653C65.8375 99.9932 64.9864 99.3796 64.3927 98.9508C64.0561 98.7455 63.7478 98.4971 63.4756 98.2119C63.8378 98.3641 64.1828 98.5543 64.5048 98.7793C65.1316 99.1619 66.0091 99.7161 67.0185 100.376H66.8074L67.9554 99.0564C69.044 97.8424 70.0402 96.767 70.7725 95.9951C71.1515 95.5724 71.5689 95.1858 72.0195 94.8405Z" fill="#FAFAFA"/>
<path d="M78.4323 100.455C77.7991 100.229 77.1875 99.946 76.6047 99.6106C75.4897 99.0498 73.9657 98.2449 72.2965 97.3476C70.6273 96.4503 69.1231 95.6124 68.0411 94.9988C67.4413 94.6921 66.8676 94.3368 66.3257 93.9366C66.9607 94.1636 67.5745 94.4462 68.1598 94.7811C69.2682 95.3485 70.7989 96.1468 72.4615 97.0441C74.124 97.9414 75.6349 98.7793 76.7169 99.3928C77.3178 99.6976 77.8917 100.053 78.4323 100.455Z" fill="#263238"/>
<path d="M15.6759 262.261L12.6871 275.773L7.23753 285.788C7.14276 285.96 7.0846 286.149 7.06671 286.344C7.04882 286.54 7.07159 286.736 7.13358 286.922C7.19558 287.108 7.29545 287.28 7.42689 287.425C7.55834 287.57 7.71851 287.687 7.89729 287.767C8.10541 287.866 8.33443 287.912 8.56442 287.902C8.79441 287.891 9.01838 287.825 9.21681 287.708C11.7503 286.243 21.0463 280.807 21.2112 279.791C21.4026 278.63 25.315 265.738 25.315 265.738L15.6759 262.261Z" fill="#2193B0"/>
<g opacity="0.6">
<path opacity="0.6" d="M7.89087 287.754L21.383 278.887L21.2444 279.455C21.1229 279.934 20.8413 280.358 20.4461 280.655C19.3443 281.447 16.2632 283.578 9.23018 287.682C9.03047 287.796 8.806 287.86 8.57612 287.868C8.34625 287.876 8.11787 287.828 7.91066 287.728L7.89087 287.754Z" fill="white"/>
</g>
<g opacity="0.6">
<path opacity="0.6" d="M19.7136 273.873C19.5177 273.954 19.3587 274.105 19.2674 274.296C19.176 274.487 19.1587 274.705 19.2188 274.909C19.292 275.106 19.4384 275.268 19.6276 275.36C19.8169 275.452 20.0343 275.468 20.2348 275.404C20.442 275.318 20.6101 275.159 20.7064 274.956C20.8027 274.754 20.8204 274.523 20.756 274.308C20.6564 274.11 20.4845 273.958 20.2757 273.883C20.0669 273.808 19.8373 273.816 19.6344 273.906" fill="white"/>
</g>
<path d="M12.4035 282.635C12.1851 282.14 11.8737 281.692 11.4864 281.315C11.04 281.004 10.5385 280.78 10.0085 280.655C10.0085 280.616 10.1999 280.556 10.5298 280.589C10.9533 280.645 11.3518 280.821 11.6777 281.097C12.0119 281.369 12.2577 281.734 12.3837 282.146C12.4695 282.423 12.4431 282.635 12.4035 282.635Z" fill="#263238"/>
<path d="M11.0048 284.198C10.9257 284.238 10.6024 283.697 9.95583 283.327C9.54441 283.138 9.1213 282.975 8.68909 282.839C8.92734 282.76 9.18093 282.74 9.42878 282.779C9.67664 282.818 9.91161 282.915 10.1142 283.063C10.8267 283.492 11.084 284.178 11.0048 284.198Z" fill="#263238"/>
<path d="M14.7852 280.761C14.3093 280.242 13.7978 279.757 13.2546 279.309C12.652 278.945 12.0236 278.625 11.3743 278.353C12.1128 278.389 12.8259 278.634 13.4299 279.061C14.034 279.487 14.5041 280.077 14.7852 280.761Z" fill="#263238"/>
<path d="M16.0057 276.73C15.953 276.802 15.2866 276.307 14.3299 276.037C13.3733 275.766 12.5486 275.806 12.5354 275.72C13.1425 275.498 13.8086 275.498 14.4157 275.72C15.0493 275.856 15.6134 276.214 16.0057 276.73Z" fill="#263238"/>
<path d="M16.9888 272.784C16.4485 272.449 15.8646 272.189 15.2536 272.012C14.6254 271.927 13.9884 271.927 13.3601 272.012C13.3601 271.979 13.5382 271.847 13.8879 271.742C14.3554 271.616 14.8459 271.603 15.3196 271.702C15.8007 271.799 16.2526 272.007 16.6391 272.309C16.8964 272.56 17.0152 272.738 16.9888 272.784Z" fill="#263238"/>
<path d="M15.445 271.267C15.4382 271.091 15.4745 270.917 15.5506 270.759C15.7098 270.303 15.9589 269.883 16.2829 269.525C16.495 269.239 16.797 269.032 17.1406 268.938C17.256 268.919 17.3744 268.935 17.4803 268.985C17.5863 269.034 17.6748 269.114 17.7344 269.215C17.8321 269.421 17.8532 269.655 17.7938 269.875C17.6574 270.322 17.3673 270.706 16.9749 270.959C16.5825 271.213 16.113 271.32 15.6496 271.26C15.1923 271.196 14.7644 270.998 14.4202 270.69C14.076 270.382 13.831 269.979 13.7165 269.532C13.6903 269.419 13.688 269.302 13.7096 269.189C13.7311 269.075 13.7762 268.967 13.8418 268.872C13.9197 268.778 14.0271 268.712 14.1467 268.686C14.2662 268.659 14.3912 268.674 14.5016 268.727C14.8111 268.877 15.0768 269.104 15.2735 269.387C15.5661 269.769 15.7894 270.2 15.9333 270.66C16.0023 270.822 16.0339 270.998 16.0256 271.175C15.8036 270.581 15.4921 270.025 15.102 269.525C14.9342 269.281 14.7072 269.084 14.4422 268.951C14.3837 268.922 14.317 268.914 14.2533 268.929C14.1896 268.943 14.1328 268.979 14.0925 269.03C14.053 269.095 14.0279 269.167 14.0188 269.242C14.0097 269.317 14.0168 269.394 14.0397 269.466C14.1496 269.848 14.3673 270.191 14.6668 270.453C14.9663 270.715 15.335 270.886 15.7287 270.944C16.1203 270.99 16.516 270.901 16.8506 270.693C17.1852 270.484 17.4387 270.168 17.5695 269.796C17.6251 269.647 17.6251 269.483 17.5695 269.334C17.5395 269.276 17.492 269.23 17.4338 269.202C17.3757 269.173 17.3099 269.164 17.2462 269.175C16.9577 269.256 16.7016 269.424 16.5138 269.657C16.0629 270.124 15.7008 270.67 15.445 271.267Z" fill="#263238"/>
<g opacity="0.3">
<path opacity="0.3" d="M15.3263 263.726L14.9238 265.652L24.4706 268.45L25.2887 265.745L15.676 262.261L15.3263 263.726Z" fill="black"/>
</g>
<path d="M59.4179 267.262L58.6064 278.062C58.6064 278.062 69.3143 282.509 69.3605 284.521L48.3604 283.71L48.9277 266.827L59.4179 267.262Z" fill="#2193B0"/>
<g opacity="0.6">
<path opacity="0.6" d="M52.1475 276.901C51.9436 276.956 51.767 277.083 51.6514 277.26C51.5357 277.436 51.4892 277.649 51.5207 277.858C51.5609 278.068 51.6811 278.254 51.8559 278.377C52.0306 278.5 52.2464 278.551 52.4576 278.518C52.6738 278.46 52.861 278.324 52.9829 278.137C53.1047 277.949 53.1527 277.723 53.1173 277.502C53.0462 277.291 52.8969 277.117 52.7004 277.013C52.5039 276.91 52.2752 276.887 52.0617 276.947" fill="white"/>
</g>
<g opacity="0.6">
<path opacity="0.6" d="M48.3604 283.71L48.4857 282.008L68.5754 283.426C68.5754 283.426 69.4925 283.868 69.3605 284.521L48.3604 283.71Z" fill="white"/>
</g>
<path d="M58.9496 277.97C58.9496 278.069 58.4283 278.095 57.9137 278.406C57.3991 278.716 57.1088 279.138 57.0165 279.098C56.9241 279.059 57.1022 278.438 57.7356 278.102C58.369 277.766 58.9891 277.878 58.9496 277.97Z" fill="#263238"/>
<path d="M61.1202 278.966C61.1202 279.065 60.6913 279.224 60.3219 279.626C59.9524 280.029 59.8402 280.497 59.7347 280.49C59.6291 280.484 59.5961 279.897 60.058 279.389C60.5198 278.881 61.1202 278.867 61.1202 278.966Z" fill="#263238"/>
<path d="M62.288 281.652C62.1956 281.652 62.0702 281.15 62.3539 280.603C62.6376 280.055 63.1325 279.844 63.172 279.943C63.2116 280.042 62.9015 280.319 62.6772 280.774C62.4529 281.229 62.3737 281.645 62.288 281.652Z" fill="#263238"/>
<path d="M58.8638 275.489C58.8176 275.582 58.3492 275.417 57.7686 275.437C57.188 275.456 56.7328 275.621 56.68 275.529C56.6272 275.437 57.0758 275.087 57.762 275.08C58.4481 275.074 58.9166 275.41 58.8638 275.489Z" fill="#263238"/>
<g opacity="0.3">
<path opacity="0.3" d="M59.2531 269.4L59.1145 271.326L48.7959 270.831L48.8619 268.608L59.2531 269.4Z" fill="black"/>
</g>
<path d="M58.9892 273.306C58.6396 273.386 58.2747 273.37 57.9335 273.259C57.5567 273.176 57.1912 273.047 56.8449 272.877C56.6417 272.776 56.4455 272.661 56.2578 272.534C56.1405 272.466 56.0356 272.379 55.9477 272.276C55.8861 272.198 55.8527 272.102 55.8527 272.003C55.8527 271.903 55.8861 271.807 55.9477 271.729C56.0016 271.658 56.0716 271.601 56.152 271.563C56.2324 271.526 56.3207 271.508 56.4095 271.511C56.5418 271.513 56.673 271.536 56.7988 271.577C57.026 271.64 57.2469 271.724 57.4585 271.828C57.8059 271.996 58.1243 272.219 58.402 272.487C58.8704 272.962 59.0221 273.352 58.9892 273.372C58.9562 273.391 58.7187 273.068 58.237 272.679C57.9534 272.453 57.6432 272.262 57.3134 272.111C57.1212 272.028 56.9226 271.959 56.7196 271.907C56.5019 271.834 56.3105 271.828 56.2512 271.907C56.1918 271.986 56.2512 271.96 56.2512 272.026C56.3161 272.098 56.3917 272.161 56.4755 272.21C56.6482 272.336 56.8289 272.451 57.0165 272.553C57.3372 272.726 57.6729 272.87 58.0193 272.982C58.35 273.066 58.6741 273.174 58.9892 273.306Z" fill="#263238"/>
<path d="M58.844 273.444C58.6578 273.137 58.5746 272.779 58.6065 272.421C58.6059 272.031 58.6705 271.643 58.7979 271.274C58.8724 271.055 58.9697 270.845 59.0882 270.647C59.1479 270.514 59.2394 270.399 59.3545 270.31C59.4696 270.222 59.6047 270.163 59.7479 270.139C59.8414 270.145 59.9314 270.177 60.0073 270.232C60.0832 270.287 60.142 270.362 60.1768 270.449C60.2264 270.573 60.2575 270.704 60.2691 270.838C60.3025 271.074 60.3025 271.314 60.2691 271.551C60.1926 271.942 60.0229 272.308 59.7743 272.619C59.3455 273.147 58.91 273.279 58.9034 273.22C58.8968 273.16 59.2399 272.982 59.5632 272.468C59.7516 272.171 59.8773 271.838 59.9326 271.491C59.9624 271.29 59.9624 271.085 59.9326 270.884C59.9326 270.66 59.8337 270.475 59.7479 270.495C59.6621 270.515 59.4642 270.653 59.3719 270.825C59.2591 271.002 59.1641 271.19 59.0882 271.386C58.9588 271.72 58.8766 272.071 58.844 272.428C58.8111 273.042 58.9034 273.431 58.844 273.444Z" fill="#263238"/>
<path d="M32.8099 128.91L38.2397 129.214C38.6225 130.74 39.1368 132.23 39.777 133.667C44.1512 126.074 47.5423 115.907 48.3868 111.816C48.2615 111.407 48.1163 110.958 47.9382 110.45C47.8055 109.688 47.8279 108.908 48.0042 108.154C48.1559 107.244 48.4066 106.017 48.4858 105.449C48.7167 103.721 48.9938 103.47 49.6008 103.648C50.4189 103.912 49.2643 108.498 49.9307 108.596C50.2935 108.649 50.7356 107.079 50.8609 105.793C50.9863 104.506 51.5735 100.514 52.0023 100.27C52.6621 99.881 53.1701 100.495 53.0117 101.781C52.8534 103.068 52.6489 106.954 53.335 107.006C54.0212 107.059 54.5688 100.481 54.5688 100.481C54.5688 100.481 54.4632 99.0564 55.2285 99.0893C56.6536 99.1487 55.5386 106.083 55.4199 106.736C55.3341 107.191 56.0796 107.277 56.139 106.782C56.1984 106.287 56.5481 100.185 57.9995 100.257C59.1079 100.297 57.1352 105.971 57.762 107.284C58.3888 108.596 58.8176 102.817 59.8798 102.896C60.2757 102.896 60.5396 103.002 59.8403 106.274C59.1353 108.877 58.2873 111.438 57.3002 113.947C55.6178 123.019 48.2351 152.042 36.6629 146.731C30.1841 143.755 27.1624 129.036 27.1624 129.036L32.8099 128.91Z" fill="#FFBE9D"/>
<path d="M57.3199 113.941C57.3314 113.872 57.3514 113.806 57.3793 113.743C57.4255 113.597 57.4915 113.406 57.5706 113.175C57.7488 112.647 58.0061 111.915 58.3294 110.985C58.6526 110.055 59.0485 108.867 59.4444 107.495C59.6423 106.835 59.8072 106.07 59.959 105.271C60.0315 104.875 60.1107 104.466 60.1569 104.044C60.1735 103.836 60.1735 103.626 60.1569 103.417C60.1569 103.2 60.1107 103.028 59.9392 103.022C59.7676 103.015 59.6423 103.12 59.5235 103.305C59.4115 103.5 59.3187 103.706 59.2464 103.919C59.0947 104.354 58.9693 104.816 58.8506 105.291C58.7318 105.766 58.6197 106.254 58.4745 106.749C58.4133 107.023 58.3014 107.282 58.1446 107.514C58.1018 107.568 58.0401 107.602 57.9725 107.611C57.9048 107.619 57.8365 107.601 57.7818 107.561C57.7177 107.501 57.6661 107.429 57.63 107.35C57.5722 107.215 57.5323 107.073 57.5113 106.927C57.4905 105.819 57.6012 104.711 57.8411 103.628C57.9401 103.074 58.0391 102.514 58.1116 101.946C58.15 101.662 58.172 101.375 58.1776 101.088C58.1776 100.831 58.1776 100.475 58.0259 100.429C57.8741 100.382 57.63 100.534 57.4981 100.772C57.3443 101.017 57.2224 101.281 57.1352 101.557C56.9498 102.135 56.8064 102.726 56.7063 103.325C56.6008 103.939 56.5216 104.559 56.449 105.186C56.449 105.502 56.3897 105.845 56.3567 106.136L56.3171 106.617C56.3225 106.72 56.3058 106.822 56.2683 106.918C56.2307 107.013 56.1731 107.1 56.0994 107.171C56.0039 107.242 55.8883 107.28 55.7695 107.28C55.6507 107.28 55.5351 107.242 55.4396 107.171C55.3864 107.136 55.3409 107.09 55.3058 107.037C55.2706 106.984 55.2466 106.924 55.2351 106.861C55.225 106.802 55.225 106.742 55.2351 106.683V106.564C55.2813 106.241 55.334 105.905 55.3802 105.595C55.4726 104.935 55.5518 104.275 55.6177 103.615C55.6837 102.956 55.7233 102.296 55.7365 101.636C55.7695 100.97 55.7028 100.303 55.5386 99.6567C55.5011 99.4921 55.4019 99.348 55.2615 99.2543C55.1941 99.234 55.1222 99.2344 55.0551 99.2556C54.988 99.2768 54.9289 99.3177 54.8854 99.373C54.7085 99.7021 54.6371 100.077 54.6809 100.448C54.5621 101.768 54.417 103.028 54.2322 104.282C54.1333 104.941 54.0343 105.535 53.876 106.149C53.8366 106.305 53.7882 106.46 53.7308 106.611C53.6783 106.797 53.5701 106.963 53.4207 107.086C53.3526 107.118 53.2756 107.128 53.2017 107.112C53.1277 107.097 53.0609 107.057 53.0117 107C52.9478 106.926 52.8985 106.841 52.8665 106.749C52.808 106.596 52.766 106.436 52.7412 106.274C52.6052 105.069 52.5941 103.853 52.7082 102.645C52.7845 102.084 52.8132 101.516 52.794 100.95C52.7792 100.709 52.6701 100.484 52.4905 100.323C52.4495 100.295 52.4029 100.276 52.3538 100.268C52.3048 100.26 52.2545 100.263 52.2068 100.277C52.1508 100.29 52.0974 100.313 52.0484 100.343C52.0141 100.366 51.9867 100.398 51.9693 100.435C51.7731 100.934 51.6272 101.451 51.5338 101.979C51.4283 102.507 51.3359 103.035 51.2501 103.556C51.1644 104.077 51.0918 104.585 51.0258 105.093C50.9598 105.601 50.9203 106.103 50.8213 106.597C50.739 107.086 50.6087 107.566 50.432 108.029C50.3902 108.146 50.3372 108.259 50.2737 108.366C50.1945 108.471 50.1549 108.61 49.9438 108.676C49.8901 108.685 49.8348 108.679 49.7845 108.658C49.7342 108.637 49.691 108.602 49.6601 108.557C49.6227 108.493 49.5939 108.424 49.5743 108.352C49.55 108.231 49.5346 108.107 49.5282 107.983C49.5282 107.039 49.6601 106.175 49.7063 105.344C49.746 104.945 49.746 104.542 49.7063 104.143C49.7063 103.965 49.6271 103.76 49.5216 103.714C49.4518 103.68 49.375 103.662 49.2972 103.662C49.2195 103.662 49.1427 103.68 49.0729 103.714C48.8441 103.964 48.7008 104.281 48.6639 104.618C48.5847 104.961 48.5517 105.278 48.4857 105.628C48.2548 106.947 48.0107 108.062 47.8986 108.979C47.8398 109.384 47.8398 109.795 47.8986 110.2C47.9777 110.53 48.0899 110.826 48.1493 111.057L48.3076 111.598C48.3338 111.657 48.3494 111.719 48.3538 111.783C48.321 111.728 48.2966 111.668 48.2812 111.605L48.0899 111.084C48.0107 110.846 47.8986 110.576 47.7996 110.213C47.7395 109.799 47.7395 109.379 47.7996 108.966C47.8986 108.029 48.1229 106.914 48.334 105.601C48.3934 105.278 48.4264 104.941 48.5055 104.579C48.5385 104.397 48.587 104.218 48.6507 104.044C48.7058 103.842 48.8264 103.663 48.9938 103.536C49.0956 103.483 49.2088 103.455 49.3236 103.455C49.4385 103.455 49.5517 103.483 49.6535 103.536C49.9174 103.688 49.924 103.939 49.9702 104.13C50.0096 104.545 50.0096 104.962 49.9702 105.377C49.9306 106.221 49.7987 107.105 49.8185 108.016C49.8243 108.122 49.8376 108.228 49.858 108.333C49.858 108.438 49.9372 108.478 49.924 108.458C49.9108 108.438 50.0296 108.366 50.0758 108.28C50.1294 108.181 50.1778 108.08 50.2209 107.976C50.3821 107.526 50.5035 107.062 50.5838 106.591C50.6761 106.116 50.7025 105.614 50.7751 105.106C50.8477 104.598 50.9071 104.077 50.9928 103.556C51.0786 103.035 51.1644 102.5 51.2699 101.966C51.3641 101.405 51.5212 100.856 51.7384 100.33C51.7797 100.242 51.8463 100.168 51.9297 100.119C52.0023 100.076 52.0798 100.043 52.1606 100.02C52.2497 99.9963 52.3427 99.9919 52.4336 100.007C52.5245 100.021 52.6113 100.055 52.6884 100.105C52.8174 100.208 52.9242 100.336 53.0025 100.481C53.0807 100.626 53.1287 100.786 53.1436 100.95C53.1833 101.25 53.1833 101.554 53.1436 101.854C53.1436 102.137 53.0909 102.428 53.0711 102.718C52.9524 103.896 52.9524 105.083 53.0711 106.261C53.0945 106.4 53.1298 106.537 53.1766 106.67C53.1977 106.722 53.2267 106.771 53.2624 106.815C53.2624 106.947 53.2624 106.848 53.2624 106.868C53.2624 106.888 53.2624 106.868 53.2624 106.822C53.331 106.73 53.3844 106.627 53.4207 106.518C53.4669 106.38 53.5131 106.235 53.5527 106.089C53.6978 105.502 53.8034 104.882 53.8958 104.262C54.0805 103.015 54.2191 101.742 54.3378 100.448C54.2859 99.9903 54.3831 99.5275 54.6149 99.1289C54.7009 99.0117 54.8232 98.9262 54.9628 98.8856C55.1023 98.8451 55.2514 98.8518 55.3868 98.9046C55.5043 98.9667 55.6073 99.0528 55.6892 99.1574C55.771 99.262 55.8299 99.3827 55.8619 99.5116C56.0407 100.191 56.1141 100.894 56.0796 101.596C56.0796 102.256 56.0202 102.956 55.9542 103.628C55.8882 104.301 55.8091 104.948 55.7167 105.608C55.6705 105.938 55.6177 106.268 55.5716 106.584C55.5254 106.795 55.5716 106.802 55.5716 106.861C55.6102 106.885 55.6548 106.898 55.7002 106.898C55.7457 106.898 55.7902 106.885 55.8289 106.861C55.9014 106.815 55.908 106.716 55.9212 106.538L55.9674 106.056C55.9674 105.74 56.0334 105.397 56.0598 105.106C56.1324 104.447 56.2181 103.84 56.3237 103.226C56.4273 102.609 56.575 102.001 56.7657 101.405C56.8646 101.104 56.9997 100.816 57.1682 100.547C57.2616 100.402 57.3827 100.277 57.5244 100.178C57.6015 100.11 57.6967 100.066 57.7985 100.051C57.9002 100.036 58.0041 100.051 58.0973 100.095C58.1905 100.138 58.269 100.208 58.3231 100.295C58.3772 100.383 58.4046 100.484 58.4019 100.587C58.4258 100.742 58.4369 100.899 58.4349 101.055C58.4255 101.354 58.3991 101.651 58.3557 101.946C58.2832 102.527 58.1776 103.087 58.0787 103.642C57.8393 104.693 57.7242 105.77 57.7356 106.848C57.7474 106.965 57.7786 107.078 57.8279 107.185C57.8449 107.225 57.8671 107.262 57.8939 107.297C57.8939 107.297 57.8939 107.297 57.8939 107.264C58.0192 107.06 58.1106 106.837 58.1644 106.604C58.3096 106.122 58.4217 105.634 58.5471 105.159C58.6724 104.684 58.7978 104.216 58.9627 103.767C59.0421 103.538 59.1437 103.317 59.2662 103.107C59.3292 102.994 59.4145 102.896 59.5169 102.817C59.5748 102.77 59.6424 102.736 59.7149 102.718C59.7846 102.705 59.8562 102.705 59.926 102.718C60.0021 102.725 60.0748 102.753 60.1364 102.798C60.198 102.844 60.2461 102.905 60.2756 102.975C60.3206 103.091 60.3452 103.214 60.3482 103.338C60.355 103.559 60.3417 103.78 60.3086 103.998C60.2625 104.433 60.1767 104.842 60.0975 105.245C59.9554 105.998 59.7726 106.742 59.5499 107.475C59.1409 108.847 58.7252 110.008 58.3821 110.952C58.0391 111.895 57.7224 112.634 57.564 113.122C57.4717 113.353 57.3925 113.538 57.3397 113.683C57.2869 113.828 57.3265 113.947 57.3199 113.941Z" fill="#EB996E"/>
<path d="M27.1227 129.57C28.1717 133.278 30.2236 139.005 32.4008 145.048C32.4714 145.243 32.598 145.412 32.7645 145.534C32.931 145.657 33.13 145.728 33.3366 145.738C33.5431 145.747 33.748 145.696 33.9255 145.59C34.1029 145.484 34.245 145.327 34.3339 145.141L39.7439 133.694C39.7439 133.694 38.4244 124.292 38.5497 124.622C38.6751 124.952 27.3866 125.843 27.3866 125.843L27.1227 129.57Z" fill="#2193B0"/>
<path d="M41.7562 130.448C41.7562 130.448 41.6111 130.336 41.3406 130.263C41.1572 130.207 40.9619 130.203 40.7766 130.252C40.5912 130.301 40.4232 130.401 40.2915 130.54L40.153 130.698L40.0672 130.494C39.7769 129.755 39.4075 128.798 39.038 127.743C38.4597 126.294 37.9857 124.806 37.6195 123.289C38.3091 124.69 38.8914 126.141 39.3613 127.631C39.7439 128.68 40.0738 129.649 40.3179 130.402L40.0936 130.362C40.285 130.167 40.5403 130.047 40.8127 130.025C41.0109 130.007 41.2105 130.039 41.3933 130.118C41.6902 130.23 41.7694 130.435 41.7562 130.448Z" fill="#263238"/>
<path d="M34.0833 141.334C34.2884 140.767 34.5515 140.223 34.8684 139.711C35.3896 138.734 36.1285 137.388 36.973 135.917C37.8175 134.446 38.5894 133.12 39.1634 132.17C39.4472 131.638 39.7808 131.134 40.1596 130.665C39.9504 131.23 39.6875 131.774 39.3745 132.288C38.8533 133.272 38.1078 134.611 37.2699 136.089C36.432 137.567 35.6535 138.886 35.0795 139.836C34.794 140.365 34.4605 140.866 34.0833 141.334Z" fill="#263238"/>
<path d="M30.4808 139.612C30.7739 139.363 31.0898 139.142 31.4243 138.952C32.0379 138.556 32.9285 138.002 34.0106 137.342L33.9512 137.52C33.3508 136.115 32.6317 134.472 31.8927 132.704C30.9559 130.481 30.118 128.435 29.5044 126.911L29.6891 126.971C28.8314 127.439 28.1321 127.809 27.6505 128.059C27.4047 128.206 27.1437 128.326 26.8719 128.416C27.0879 128.229 27.3248 128.067 27.5779 127.934C28.0463 127.644 28.7193 127.241 29.5572 126.753L29.6759 126.681L29.7353 126.812C30.3951 128.317 31.266 130.342 32.2028 132.572C32.9417 134.347 33.6213 135.996 34.1821 137.408L34.2283 137.527L34.1227 137.586C33.0275 138.246 32.1434 138.741 31.4837 139.091C31.1677 139.298 30.8318 139.472 30.4808 139.612Z" fill="#FAFAFA"/>
<path d="M59.8336 269.98C60.8003 269.953 61.7215 269.564 62.4162 268.891C63.1109 268.219 63.5288 267.31 63.5877 266.345C64.7159 248.083 69.796 165.013 68.78 162.407C67.632 159.477 64.6169 149.291 64.6169 149.291L37.6789 148.044C37.6789 148.044 30.9757 158.6 30.0125 162.677C29.1416 166.312 4.73708 243.214 1.70219 259.543C1.55199 260.354 1.70667 261.192 2.13653 261.896C2.56639 262.599 3.24112 263.12 4.03114 263.356L59.8336 269.98Z" fill="#263238"/>
<path d="M42.9966 148.618C42.9966 148.618 42.9636 148.716 42.8778 148.908L42.4952 149.739L40.9909 152.919C40.694 153.625 40.3707 154.41 40.0079 155.261C39.645 156.112 39.2491 157.049 38.8929 158.072C38.5366 159.095 38.1012 160.177 37.6987 161.338C37.2963 162.499 36.9202 163.739 36.4979 165.039L35.3038 169.156C34.9145 170.594 34.5451 172.098 34.136 173.655C33.727 175.212 33.4037 176.835 33.0144 178.505C32.6252 180.174 32.2755 181.896 31.939 183.671C31.2133 187.207 30.5007 190.928 29.7486 194.794C28.9965 198.66 28.1916 202.645 27.2481 206.709C26.7929 208.741 26.2651 210.721 25.7768 212.7C25.2886 214.679 24.7146 216.593 24.134 218.473C22.9927 222.24 21.7391 225.829 20.4592 229.207C17.8729 235.97 15.1811 241.914 12.8719 246.856C10.5628 251.797 8.53732 255.743 7.15182 258.468L5.54861 261.615C5.37047 261.958 5.22532 262.228 5.11976 262.42C5.07493 262.513 5.02425 262.603 4.96802 262.69C5.00378 262.593 5.04565 262.498 5.09337 262.406C5.18574 262.208 5.31769 261.931 5.48923 261.582C5.8521 260.843 6.37331 259.78 7.04626 258.421C8.36578 255.683 10.3451 251.718 12.6608 246.763C14.9766 241.809 17.609 235.864 20.1755 229.108C21.4422 225.73 22.6892 222.148 23.8306 218.387C24.4045 216.513 24.9192 214.58 25.4602 212.627C26.0012 210.675 26.4762 208.669 26.9182 206.63C27.8617 202.573 28.6534 198.575 29.4253 194.722C30.1972 190.869 30.8966 187.141 31.6355 183.605C31.9852 181.83 32.381 180.108 32.7373 178.439C33.0936 176.769 33.5092 175.14 33.8721 173.583C34.235 172.026 34.6638 170.522 35.0597 169.083C35.4555 167.645 35.891 166.279 36.2802 164.966L37.4942 161.239C37.9032 160.078 38.3321 158.996 38.7147 157.98C39.0974 156.963 39.4867 156 39.8627 155.176C40.2388 154.351 40.5687 153.539 40.8722 152.84C41.5319 151.461 42.0729 150.399 42.4292 149.68L42.8448 148.868L42.9966 148.618Z" fill="#455A64"/>
<path d="M19.2123 264.979C19.2123 264.979 19.2123 264.88 19.2783 264.683C19.3442 264.485 19.4168 264.174 19.5158 263.805L20.4526 260.44C21.2641 257.498 22.4319 253.275 23.8834 248.063C25.3349 242.851 27.004 236.603 28.8184 229.669C29.7157 226.199 30.6525 222.557 31.629 218.783C32.6054 215.009 33.5489 211.077 34.5517 207.066C35.5545 203.054 36.465 199.149 37.3821 195.322C38.2991 191.495 39.1172 187.86 39.9353 184.37C41.5254 177.383 42.9241 171.076 44.0654 165.778C45.2068 160.48 46.1107 156.198 46.7507 153.242C47.0607 151.771 47.3049 150.603 47.4764 149.825C47.5622 149.449 47.6281 149.165 47.6743 148.941C47.7205 148.716 47.7535 148.637 47.7535 148.637C47.7441 148.741 47.7286 148.845 47.7073 148.947C47.6677 149.159 47.615 149.455 47.5424 149.838C47.3906 150.636 47.1663 151.817 46.8826 153.269L45.794 158.666C45.352 160.777 44.8572 163.178 44.303 165.831C43.1946 171.109 41.8223 177.442 40.2388 184.443C39.4405 187.933 38.6092 191.607 37.7054 195.401C36.8015 199.195 35.8514 203.127 34.8882 207.151C33.9249 211.176 32.9089 215.069 31.9522 218.862C30.9956 222.656 30.0323 226.284 29.1285 229.748C27.2877 236.682 25.5856 242.943 24.1209 248.129L22.1416 255.169C21.5412 257.234 21.02 259.015 20.5978 260.447C20.1755 261.879 19.8325 263.013 19.6015 263.798C19.4894 264.168 19.397 264.458 19.3376 264.663C19.2783 264.867 19.2123 264.979 19.2123 264.979Z" fill="#455A64"/>
<path d="M51.3161 148.703C51.3161 148.703 51.3161 148.802 51.3623 149.007L51.4745 149.917C51.5207 150.32 51.58 150.815 51.646 151.389C51.712 151.963 51.7318 152.655 51.778 153.414C51.778 153.797 51.8242 154.199 51.8439 154.621C51.8637 155.044 51.8439 155.492 51.8439 155.941V157.392C51.8439 157.894 51.7978 158.422 51.778 158.963C51.7582 159.504 51.7252 160.064 51.6922 160.638C51.6592 161.212 51.5866 161.813 51.5273 162.426C51.4415 163.653 51.2304 164.933 51.0654 166.292C50.6564 168.991 50.1154 171.927 49.4226 175.061C48.7299 178.195 47.9184 181.52 47.0739 185.023C46.2294 188.526 45.3519 192.208 44.6262 196.054C43.9004 199.901 43.3067 203.912 42.7657 208.036C42.2247 212.159 41.8354 216.177 41.3736 220.076C40.9117 223.975 40.5159 227.736 40.054 231.292L39.3415 236.517C39.0644 238.2 38.8203 239.816 38.5432 241.426C38.2661 243.036 37.9824 244.527 37.6723 245.985C37.3622 247.443 37.0521 248.835 36.742 250.161C36.432 251.487 36.0823 252.741 35.7524 253.928C35.4225 255.116 35.0531 256.211 34.7364 257.227C34.5714 257.742 34.4263 258.243 34.2547 258.718C34.0832 259.193 33.9117 259.649 33.7533 260.084C33.43 260.948 33.1332 261.747 32.8627 262.459C32.2821 263.871 31.774 264.94 31.4574 265.679L31.0747 266.51C30.9889 266.695 30.9362 266.787 30.9362 266.787C30.9362 266.787 30.9362 266.682 31.0417 266.49C31.1473 266.299 31.2462 266.009 31.3914 265.646C31.6949 264.907 32.1765 263.825 32.7109 262.413L33.562 260.025L34.0568 258.665C34.2218 258.19 34.3603 257.682 34.5187 257.168C34.8287 256.132 35.1784 255.03 35.5083 253.869L36.4715 250.108L37.382 245.932C37.6789 244.474 37.9362 242.95 38.2331 241.373C38.53 239.796 38.7411 238.154 39.005 236.471C39.2689 234.789 39.4668 233.04 39.7044 231.252C40.1464 227.677 40.5752 223.923 41.0239 220.037C41.4725 216.151 41.8882 212.119 42.416 207.97C42.9438 203.82 43.564 199.821 44.2897 195.962C45.0154 192.102 45.9061 188.421 46.7572 184.924C47.6083 181.427 48.4396 178.096 49.1389 174.975C49.8383 171.854 50.3925 168.918 50.8213 166.227C50.9929 164.907 51.2106 163.587 51.3029 162.374C51.3689 161.767 51.4217 161.173 51.4811 160.599C51.5405 160.025 51.5471 159.464 51.58 158.923C51.613 158.382 51.6526 157.867 51.6592 157.359C51.6658 156.851 51.6592 156.376 51.6592 155.914C51.6592 155.453 51.6592 155.011 51.6592 154.595C51.6592 154.179 51.6196 153.777 51.6064 153.394C51.5668 152.635 51.5669 151.956 51.5075 151.375C51.4481 150.795 51.4085 150.3 51.3689 149.897C51.3293 149.495 51.3095 149.205 51.2898 148.987C51.2924 148.892 51.3012 148.797 51.3161 148.703Z" fill="#455A64"/>
<path d="M48.3736 269.195C48.3435 269.096 48.3193 268.994 48.301 268.892C48.2614 268.674 48.202 268.377 48.1295 267.994C48.0569 267.612 47.9711 267.104 47.8656 266.523C47.76 265.943 47.6214 265.283 47.5555 264.544C47.4895 263.805 47.3707 262.941 47.2586 262.017C47.1464 261.093 47.1266 260.077 47.0474 258.995C47.0474 258.454 46.9815 257.887 46.9617 257.313C46.9419 256.739 46.9617 256.132 46.9617 255.512C46.9617 254.892 46.9617 254.265 46.9617 253.612C46.9617 252.959 47.0145 252.292 47.0343 251.632C47.054 250.973 47.0936 250.247 47.12 249.534C47.1464 248.822 47.2388 248.09 47.2916 247.344C47.3905 245.853 47.5819 244.316 47.7666 242.726C47.9513 241.136 48.2152 239.486 48.4263 237.791C48.6375 236.095 48.9805 234.36 49.3236 232.585C50.6431 225.466 52.4245 217.727 54.0739 209.56C55.6212 201.88 56.7773 194.126 57.5376 186.329C58.2502 179.138 58.5207 172.639 58.613 167.196C58.613 164.465 58.613 161.991 58.613 159.827C58.613 157.663 58.5207 155.789 58.4547 154.258C58.3887 152.728 58.3293 151.547 58.2964 150.742C58.2964 150.353 58.2964 150.049 58.2964 149.831C58.2964 149.614 58.2964 149.515 58.2964 149.515C58.2964 149.515 58.2964 149.62 58.2964 149.825C58.2964 150.029 58.3359 150.353 58.3689 150.742C58.4217 151.54 58.5207 152.721 58.5866 154.252C58.6526 155.783 58.745 157.65 58.8044 159.82C58.8638 161.991 58.8835 164.439 58.8703 167.196C58.811 172.666 58.5603 179.178 57.8675 186.376C57.1209 194.186 55.9714 201.953 54.4236 209.645C52.7742 217.826 50.9598 225.559 49.6469 232.664C49.3038 234.432 49.0333 236.174 48.7364 237.857C48.4395 239.539 48.2152 241.188 48.0437 242.785C47.8722 244.382 47.6544 245.912 47.5555 247.403C47.4895 248.142 47.4301 248.868 47.3707 249.581C47.3114 250.293 47.3048 250.992 47.2718 251.672C47.2388 252.352 47.219 253.025 47.186 253.651V257.339C47.186 257.913 47.2388 258.474 47.2652 259.015C47.3311 260.097 47.3311 261.113 47.4433 262.03C47.5555 262.947 47.628 263.798 47.7072 264.564C47.7864 265.329 47.8985 265.989 47.9843 266.543L48.2218 268.014C48.2812 268.397 48.3208 268.674 48.3604 268.918C48.4 269.162 48.3736 269.195 48.3736 269.195Z" fill="#455A64"/>
<path d="M63.1588 149.225C63.1588 149.225 63.1917 149.323 63.2511 149.521L63.5084 150.392L63.9109 151.824C64.0984 152.475 64.2525 153.136 64.3727 153.803C64.5179 154.549 64.7224 155.373 64.8675 156.291C65.0127 157.208 65.138 158.204 65.2898 159.279C65.4415 160.355 65.4679 161.509 65.5669 162.736C65.6658 163.964 65.6658 165.257 65.6394 166.622C65.6394 169.347 65.4151 172.323 65.0655 175.509C64.7158 178.696 64.1682 182.074 63.5348 185.61L61.4632 196.707C60.7374 200.554 60.1041 204.552 59.5301 208.662C58.9561 212.773 58.4877 216.791 58.105 220.683C57.7223 224.576 57.4452 228.343 57.2209 231.932C56.9966 235.521 56.858 238.932 56.7921 242.132C56.7261 245.332 56.6865 248.307 56.6997 251.025C56.7129 253.744 56.7525 256.205 56.8185 258.362C56.8844 260.519 56.9636 262.38 57.023 263.897C57.0824 265.415 57.1549 266.583 57.1945 267.394C57.1945 267.786 57.2077 268.089 57.2341 268.305C57.2341 268.516 57.2341 268.621 57.2341 268.621C57.2341 268.621 57.2341 268.516 57.1945 268.311L57.1219 267.401C57.0692 266.602 56.9768 265.421 56.891 263.904C56.8053 262.387 56.6931 260.526 56.6271 258.369C56.5611 256.211 56.4886 253.75 56.4556 251.025C56.4226 248.301 56.4556 245.325 56.5084 242.125C56.5611 238.925 56.7129 235.528 56.9042 231.912C57.0956 228.297 57.3793 224.549 57.7685 220.65C58.1578 216.751 58.6064 212.733 59.1936 208.609C59.7808 204.486 60.401 200.494 61.1333 196.648L63.2247 185.557C63.8845 182.021 64.3925 178.643 64.7818 175.476C65.171 172.309 65.3558 169.334 65.3953 166.616C65.3953 165.257 65.3558 163.977 65.3492 162.743C65.3426 161.509 65.1776 160.374 65.0984 159.299C65.0193 158.224 64.8279 157.234 64.7092 156.317C64.5904 155.4 64.3793 154.582 64.2474 153.83C64.1154 153.077 63.9769 152.424 63.8119 151.85C63.647 151.276 63.5414 150.815 63.4424 150.419C63.3435 150.023 63.2709 149.759 63.2181 149.535C63.1653 149.31 63.1588 149.225 63.1588 149.225Z" fill="#455A64"/>
<path d="M188.744 284.68L105.727 284.297C100.933 284.274 96.344 282.349 92.9691 278.945C89.5941 275.54 87.7091 270.934 87.7284 266.141L88.6059 58.0127C88.6286 53.2159 90.5555 48.6245 93.9628 45.2481C97.3701 41.8717 101.979 39.9868 106.776 40.0078L189.793 40.3905C192.167 40.4009 194.516 40.8787 196.705 41.7968C198.894 42.7149 200.882 44.0552 202.553 45.7412C204.224 47.4272 205.547 49.4259 206.446 51.6231C207.345 53.8203 207.802 56.1731 207.792 58.5471L206.914 266.668C206.904 269.044 206.425 271.394 205.507 273.585C204.588 275.776 203.247 277.765 201.56 279.437C199.872 281.11 197.872 282.434 195.673 283.333C193.474 284.233 191.12 284.69 188.744 284.68Z" fill="#263238"/>
<path d="M188.962 46.2294L172.864 46.1502C171.804 46.171 170.796 46.6112 170.06 47.3742C169.324 48.1373 168.921 49.161 168.938 50.2209V53.1371C168.948 53.6621 168.854 54.1839 168.662 54.6727C168.47 55.1615 168.183 55.6076 167.819 55.9856C167.454 56.3636 167.019 56.6661 166.537 56.8758C166.056 57.0855 165.538 57.1983 165.013 57.2078L133.641 57.0626C132.581 57.0333 131.576 56.5848 130.847 55.8155C130.117 55.0462 129.722 54.0189 129.749 52.9589V50.0362C129.775 48.9762 129.38 47.9489 128.651 47.1796C127.921 46.4103 126.916 45.9618 125.856 45.9325H120.195L106.109 45.8731C104.446 45.8653 102.797 46.1852 101.257 46.8146C99.7174 47.444 98.3165 48.3705 97.1348 49.5413C95.953 50.712 95.0133 52.1041 94.3696 53.638C93.7258 55.1719 93.3904 56.8176 93.3826 58.4811L92.5249 261.628C92.5215 263.292 92.8459 264.94 93.4797 266.479C94.1135 268.018 95.0443 269.416 96.2188 270.595C97.3933 271.774 98.7886 272.71 100.325 273.349C101.861 273.988 103.508 274.319 105.173 274.322L188.025 274.704C189.688 274.712 191.337 274.392 192.876 273.763C194.416 273.133 195.816 272.206 196.997 271.036C198.179 269.865 199.118 268.473 199.761 266.939C200.404 265.405 200.738 263.759 200.745 262.096L201.596 58.9759C201.608 57.3083 201.289 55.6549 200.66 54.1106C200.03 52.5663 199.102 51.1617 197.928 49.9772C196.754 48.7928 195.358 47.852 193.819 47.2088C192.28 46.5657 190.63 46.2328 188.962 46.2294Z" fill="#FAFAFA"/>
<path d="M104.143 67.8233C104.053 67.8206 103.968 67.7827 103.906 67.7178L102.646 66.3982C102.615 66.3684 102.591 66.3325 102.575 66.2927C102.559 66.2529 102.551 66.2101 102.553 66.1673C102.553 66.1242 102.562 66.0815 102.579 66.0419C102.596 66.0022 102.621 65.9663 102.652 65.9364L103.919 64.729C103.949 64.6983 103.985 64.6739 104.025 64.6573C104.064 64.6406 104.107 64.632 104.15 64.632C104.193 64.632 104.235 64.6406 104.275 64.6573C104.315 64.6739 104.351 64.6983 104.381 64.729C104.412 64.7597 104.436 64.7962 104.453 64.8364C104.47 64.8766 104.478 64.9197 104.478 64.9633C104.478 65.0068 104.47 65.0499 104.453 65.0901C104.436 65.1303 104.412 65.1668 104.381 65.1975L103.352 66.1739L104.387 67.2559C104.418 67.2866 104.443 67.3231 104.46 67.3633C104.476 67.4035 104.485 67.4466 104.485 67.4901C104.485 67.5337 104.476 67.5768 104.46 67.617C104.443 67.6572 104.418 67.6937 104.387 67.7243C104.355 67.7561 104.317 67.7812 104.275 67.7982C104.233 67.8152 104.188 67.8237 104.143 67.8233Z" fill="#263238"/>
<path d="M116.712 151.877H113.921V150.557H121.06V151.877H118.269V158.969H116.712V151.877Z" fill="#2193B0"/>
<path d="M128.403 155.301V158.982H126.905V155.499C126.905 154.357 126.338 153.803 125.381 153.803C124.312 153.803 123.586 154.463 123.586 155.736V158.982H122.089V150.056H123.586V153.322C123.868 153.046 124.202 152.831 124.57 152.69C124.938 152.549 125.331 152.486 125.724 152.504C127.261 152.477 128.403 153.355 128.403 155.301Z" fill="#2193B0"/>
<path d="M135.68 155.209V158.969H134.268V158.184C134.032 158.487 133.722 158.725 133.369 158.876C133.017 159.027 132.631 159.086 132.249 159.048C130.784 159.048 129.854 158.243 129.854 157.128C129.854 156.013 130.58 155.222 132.526 155.222H134.202V155.123C134.202 154.245 133.674 153.731 132.605 153.731C131.89 153.721 131.192 153.953 130.626 154.39L130.039 153.302C130.833 152.751 131.784 152.471 132.75 152.504C134.611 152.477 135.68 153.355 135.68 155.209ZM134.202 156.957V156.218H132.651C131.629 156.218 131.332 156.601 131.332 157.069C131.332 157.537 131.794 157.96 132.559 157.96C132.904 157.989 133.249 157.907 133.544 157.727C133.84 157.546 134.07 157.277 134.202 156.957Z" fill="#2193B0"/>
<path d="M143.92 155.301V158.982H142.416V155.499C142.416 154.357 141.855 153.803 140.892 153.803C139.823 153.803 139.104 154.463 139.104 155.736V158.982H137.6V152.563H139.031V153.394C139.31 153.09 139.653 152.851 140.035 152.695C140.417 152.538 140.829 152.469 141.242 152.49C142.779 152.477 143.92 153.355 143.92 155.301Z" fill="#2193B0"/>
<path d="M148.446 156.218L147.331 157.28V158.976H145.827V150.056H147.331V155.433L150.439 152.55H152.24L149.561 155.242L152.49 158.969H150.696L148.446 156.218Z" fill="#2193B0"/>
<path d="M162.783 152.55L159.781 159.484C159.194 160.935 158.375 161.377 157.307 161.377C156.683 161.39 156.076 161.182 155.591 160.79L156.192 159.688C156.489 159.971 156.883 160.129 157.293 160.13C157.821 160.13 158.138 159.88 158.422 159.24L158.534 158.989L155.736 152.55H157.293L159.312 157.293L161.344 152.55H162.783Z" fill="#2193B0"/>
<path d="M163.007 155.756C162.983 155.075 163.164 154.403 163.525 153.825C163.886 153.248 164.411 152.791 165.034 152.515C165.656 152.238 166.347 152.153 167.018 152.272C167.689 152.391 168.309 152.707 168.798 153.181C169.288 153.654 169.625 154.263 169.766 154.93C169.907 155.596 169.846 156.29 169.59 156.921C169.334 157.552 168.895 158.093 168.33 158.473C167.765 158.853 167.099 159.056 166.418 159.055C165.973 159.08 165.528 159.012 165.11 158.856C164.693 158.701 164.312 158.461 163.992 158.151C163.671 157.841 163.419 157.469 163.249 157.056C163.08 156.644 162.997 156.202 163.007 155.756ZM168.331 155.756C168.317 155.383 168.193 155.022 167.976 154.718C167.758 154.414 167.456 154.181 167.107 154.048C166.758 153.914 166.377 153.886 166.013 153.967C165.648 154.048 165.315 154.235 165.055 154.504C164.795 154.772 164.62 155.111 164.552 155.479C164.483 155.846 164.524 156.225 164.669 156.57C164.814 156.914 165.058 157.208 165.368 157.415C165.679 157.623 166.044 157.734 166.418 157.735C166.677 157.741 166.933 157.694 167.173 157.595C167.412 157.497 167.628 157.35 167.808 157.164C167.988 156.979 168.127 156.757 168.217 156.515C168.307 156.273 168.346 156.014 168.331 155.756Z" fill="#2193B0"/>
<path d="M177.495 152.55V158.969H176.064V158.151C175.807 158.444 175.489 158.676 175.132 158.831C174.775 158.986 174.388 159.06 173.999 159.048C172.349 159.048 171.234 158.151 171.234 156.218V152.55H172.739V156.013C172.739 157.175 173.286 157.729 174.236 157.729C175.186 157.729 175.991 157.069 175.991 155.796V152.55H177.495Z" fill="#2193B0"/>
<path d="M179.184 158.111C179.185 157.986 179.211 157.863 179.261 157.748C179.31 157.633 179.382 157.53 179.473 157.444C179.564 157.357 179.671 157.29 179.788 157.246C179.905 157.202 180.029 157.182 180.154 157.188C180.401 157.188 180.638 157.286 180.812 157.46C180.986 157.635 181.084 157.871 181.084 158.118C181.084 158.365 180.986 158.601 180.812 158.776C180.638 158.95 180.401 159.048 180.154 159.048C180.028 159.053 179.903 159.032 179.786 158.987C179.668 158.942 179.561 158.873 179.47 158.786C179.38 158.698 179.308 158.594 179.259 158.478C179.21 158.362 179.184 158.237 179.184 158.111ZM179.27 150.557H181.045L180.748 156.178H179.554L179.27 150.557Z" fill="#2193B0"/>
<path d="M148.73 137.976C158.269 137.976 166.002 130.242 166.002 120.703C166.002 111.164 158.269 103.431 148.73 103.431C139.19 103.431 131.457 111.164 131.457 120.703C131.457 130.242 139.19 137.976 148.73 137.976Z" fill="#2193B0"/>
<path d="M157.234 113.413C157.452 113.591 154.226 117.932 150.029 123.105L147.483 126.192L147.133 126.615L146.764 126.232C143.465 122.847 141.241 120.34 141.4 120.182C141.558 120.024 144.072 122.26 147.45 125.539L146.737 125.612L149.231 122.491C153.427 117.286 157.01 113.235 157.234 113.413Z" fill="white"/>
<path d="M173.266 113.736C172.752 111.922 170.396 112.1 170.396 112.1L170.456 113.36C171.821 113.122 172.666 114.719 172.666 114.719L173.266 113.736Z" fill="#2193B0"/>
<path d="M123.23 117.549C122.722 115.735 120.36 115.907 120.36 115.907L120.426 117.173C121.792 116.936 122.636 118.532 122.636 118.532L123.23 117.549Z" fill="#E0E0E0"/>
<path d="M150.788 92.4456C153.526 93.2769 155.228 90.1232 155.228 90.1232L153.566 89.1732C152.748 91.1063 150.016 90.8819 150.016 90.8819L150.788 92.4456Z" fill="#E0E0E0"/>
<path d="M135.607 95.8433C134.334 95.9819 134.182 97.5785 134.182 97.5785L135.033 97.6775C135.033 96.7406 136.201 96.3579 136.201 96.3579L135.607 95.8433Z" fill="#2193B0"/>
<path d="M188.085 107.534C188.269 106.268 186.765 105.72 186.765 105.72L186.455 106.518C187.365 106.749 187.451 107.976 187.451 107.976L188.085 107.534Z" fill="#E0E0E0"/>
<path d="M143.036 79.1712C143.221 77.9044 141.717 77.3568 141.717 77.3568L141.406 78.1618C142.317 78.3927 142.403 79.6132 142.403 79.6132L143.036 79.1712Z" fill="#2193B0"/>
<path d="M111.579 99.604C111.354 101.583 113.98 102.071 113.98 102.071L114.455 100.752C112.879 100.607 112.654 98.7727 112.654 98.7727L111.579 99.604Z" fill="#2193B0"/>
<path d="M170.139 92.406C171.419 92.4785 171.828 90.9281 171.828 90.9281L171.003 90.6906C170.852 91.6143 169.638 91.8056 169.638 91.8056L170.139 92.406Z" fill="#2193B0"/>
<path d="M177.126 97.6181C176.783 97.7143 176.425 97.7478 176.07 97.717C175.715 97.7485 175.358 97.715 175.015 97.6181C175.711 97.4773 176.429 97.4773 177.126 97.6181Z" fill="#E0E0E0"/>
<path d="M178.247 94.7481C178.379 95.4546 178.379 96.1793 178.247 96.8857C178.107 96.1802 178.107 95.4537 178.247 94.7481Z" fill="#E0E0E0"/>
<path d="M179.435 97.5455C179.778 97.4493 180.136 97.4158 180.491 97.4465C180.846 97.415 181.203 97.4486 181.546 97.5455C180.85 97.6863 180.132 97.6863 179.435 97.5455Z" fill="#E0E0E0"/>
<path d="M178.32 100.422C178.179 99.7142 178.179 98.9856 178.32 98.2778C178.452 98.9865 178.452 99.7134 178.32 100.422Z" fill="#E0E0E0"/>
<path d="M180.022 99.2213C179.983 99.2543 179.778 99.0827 179.567 98.8386C179.356 98.5945 179.23 98.357 179.27 98.324C179.31 98.291 179.521 98.456 179.725 98.7067C179.93 98.9574 180.068 99.1487 180.022 99.2213Z" fill="#E0E0E0"/>
<path d="M179.923 95.9225C179.963 95.9687 179.824 96.1732 179.607 96.3909C179.389 96.6086 179.184 96.7538 179.145 96.7142C179.105 96.6746 179.244 96.4635 179.461 96.2458C179.679 96.0281 179.884 95.9225 179.923 95.9225Z" fill="#E0E0E0"/>
<path d="M177.509 96.7604C177.469 96.8066 177.271 96.701 177.066 96.5295C176.862 96.3579 176.73 96.1864 176.763 96.1468C176.796 96.1072 176.994 96.2062 177.198 96.3711C177.403 96.5361 177.541 96.7208 177.509 96.7604Z" fill="#E0E0E0"/>
<path d="M177.41 98.1986C177.456 98.2316 177.33 98.4362 177.132 98.6539C176.935 98.8716 176.743 99.0101 176.704 98.9706C176.664 98.931 176.783 98.7264 176.981 98.5153C177.179 98.3042 177.37 98.1591 177.41 98.1986Z" fill="#E0E0E0"/>
<path d="M119.648 91.733C118.951 91.8737 118.233 91.8737 117.536 91.733C117.879 91.6368 118.237 91.6033 118.592 91.634C118.947 91.6025 119.305 91.6361 119.648 91.733Z" fill="#2193B0"/>
<path d="M120.769 88.8631C120.91 89.5709 120.91 90.2995 120.769 91.0073C120.629 90.2995 120.629 89.5709 120.769 88.8631Z" fill="#2193B0"/>
<path d="M121.963 91.667C122.66 91.5263 123.378 91.5263 124.075 91.667C123.378 91.8078 122.66 91.8078 121.963 91.667Z" fill="#2193B0"/>
<path d="M120.842 94.537C120.701 93.8314 120.701 93.105 120.842 92.3994C120.983 93.105 120.983 93.8314 120.842 94.537Z" fill="#2193B0"/>
<path d="M122.55 93.2835C122.504 93.323 122.3 93.1515 122.095 92.9008C121.891 92.6501 121.752 92.4258 121.798 92.3862C121.845 92.3466 122.042 92.5247 122.254 92.7688C122.465 93.013 122.59 93.2835 122.55 93.2835Z" fill="#2193B0"/>
<path d="M122.452 90.0506C122.491 90.0902 122.346 90.3013 122.135 90.5191C121.924 90.7368 121.713 90.8753 121.673 90.8357C121.633 90.7962 121.772 90.5916 121.99 90.3739C122.207 90.1562 122.412 89.9847 122.452 90.0506Z" fill="#2193B0"/>
<path d="M120.03 90.8819C119.997 90.9215 119.799 90.8225 119.595 90.651C119.39 90.4795 119.252 90.3079 119.291 90.2618C119.331 90.2156 119.522 90.3211 119.727 90.4927C119.931 90.6642 120.07 90.8357 120.03 90.8819Z" fill="#2193B0"/>
<path d="M119.938 92.3136C119.977 92.3532 119.852 92.5577 119.661 92.7754C119.469 92.9932 119.272 93.1317 119.225 93.0921C119.179 93.0525 119.311 92.848 119.502 92.6369C119.694 92.4258 119.892 92.274 119.938 92.3136Z" fill="#2193B0"/>
<path d="M192.67 64.287C191.121 64.4565 189.562 64.5138 188.005 64.4585C186.451 64.5141 184.894 64.4567 183.347 64.287C184.894 64.1133 186.451 64.0559 188.005 64.1154C189.562 64.0561 191.121 64.1134 192.67 64.287Z" fill="#263238"/>
<path d="M192.67 66.2333C191.121 66.4069 189.562 66.4642 188.005 66.4048C186.451 66.4643 184.894 66.407 183.347 66.2333C184.894 66.0635 186.451 66.0062 188.005 66.0618C189.562 66.0065 191.121 66.0638 192.67 66.2333Z" fill="#263238"/>
<path d="M192.67 68.1664C191.121 68.34 189.562 68.3973 188.005 68.3379C186.451 68.3974 184.894 68.3401 183.347 68.1664C184.894 67.9966 186.451 67.9393 188.005 67.9949C189.562 67.9396 191.121 67.9969 192.67 68.1664Z" fill="#263238"/>
<path d="M255.895 240.285C256.888 240.759 257.776 241.429 258.505 242.254C259.234 243.079 259.789 244.043 260.137 245.088C260.82 247.187 261.012 249.415 260.698 251.599C260.223 255.822 257.821 260.084 255.241 263.475C251.685 260.374 250.867 254.958 250.623 252.187C250.24 247.806 252.206 239.651 255.901 240.311" fill="#2193B0"/>
<path d="M259.372 270.429C259.129 269.222 259.21 267.972 259.606 266.807C260.002 265.641 260.7 264.601 261.628 263.792C262.568 262.998 263.656 262.401 264.83 262.034C266.004 261.667 267.239 261.538 268.463 261.654C269.598 261.74 270.818 262.07 271.465 262.974C271.742 263.428 271.893 263.949 271.901 264.482C271.909 265.014 271.775 265.539 271.511 266.002C270.973 266.921 270.202 267.682 269.275 268.206C266.193 270.139 262.855 271.445 259.378 270.403" fill="#2193B0"/>
<path d="M254.812 283.373C254.829 283.082 254.871 282.793 254.938 282.509C255.05 281.896 255.195 281.11 255.367 280.16C255.766 277.55 256.583 275.022 257.788 272.672C259.042 270.325 260.898 268.353 263.165 266.959C263.855 266.551 264.59 266.225 265.355 265.989C265.626 265.896 265.844 265.863 266.015 265.824C266.187 265.784 266.24 265.784 266.24 265.824C264.482 266.393 262.856 267.307 261.455 268.513C260.055 269.718 258.909 271.19 258.085 272.844C256.898 275.17 256.064 277.661 255.611 280.233C255.393 281.216 255.215 282.014 255.083 282.555C255.017 282.835 254.926 283.109 254.812 283.373Z" fill="#263238"/>
<path d="M254.938 246.625C254.968 246.75 254.984 246.879 254.984 247.008C254.984 247.285 255.024 247.667 255.05 248.096C255.096 249.04 255.156 250.405 255.208 252.101C255.314 255.485 255.4 260.163 255.38 265.296C255.36 270.429 255.235 275.14 255.09 278.524C255.024 280.22 254.958 281.586 254.898 282.529C254.865 282.978 254.846 283.334 254.826 283.618C254.806 283.901 254.826 283.618 254.826 283.618C254.872 283.242 254.76 283.862 254.76 283.618C254.76 283.373 254.76 282.958 254.76 282.522C254.76 281.539 254.813 280.18 254.852 278.518C254.938 275.133 255.03 270.462 255.057 265.322C255.083 260.183 255.024 255.485 254.971 252.127C254.971 250.465 254.925 249.099 254.905 248.116C254.905 247.667 254.905 247.311 254.905 247.027C254.906 246.893 254.917 246.758 254.938 246.625Z" fill="#263238"/>
<path d="M253.223 272.995C252.792 270.437 251.758 268.018 250.207 265.938C248.656 263.858 246.632 262.177 244.303 261.034C243.115 260.467 241.565 260.091 240.588 260.975C239.612 261.859 239.823 263.449 240.304 264.682C241.35 267.231 243.126 269.414 245.41 270.956C247.693 272.497 250.382 273.329 253.137 273.345" fill="#2193B0"/>
<path d="M244.876 265.039C245.14 265.123 245.394 265.233 245.635 265.369C245.928 265.502 246.213 265.654 246.486 265.824C246.859 266.024 247.22 266.244 247.568 266.484C248.001 266.772 248.418 267.085 248.815 267.42C249.278 267.795 249.718 268.196 250.135 268.621C251.092 269.598 251.935 270.681 252.648 271.847C253.34 273.027 253.893 274.282 254.298 275.588C254.473 276.158 254.614 276.737 254.72 277.323C254.821 277.831 254.891 278.345 254.931 278.861C254.997 279.336 254.971 279.765 254.991 280.141C255.012 280.464 255.012 280.788 254.991 281.111C254.985 281.385 254.954 281.659 254.898 281.929C254.826 281.929 254.944 280.754 254.74 278.887C254.685 278.377 254.604 277.871 254.496 277.37C254.397 276.829 254.225 276.261 254.054 275.667C253.641 274.39 253.088 273.162 252.404 272.006C251.706 270.858 250.885 269.79 249.957 268.819C249.552 268.394 249.125 267.991 248.677 267.612C248.268 267.242 247.845 266.952 247.469 266.662C245.919 265.586 244.843 265.098 244.876 265.039Z" fill="#263238"/>
</svg>
