<svg width="623" height="465" viewBox="0 0 623 465" fill="none" xmlns="http://www.w3.org/2000/svg">
<path d="M623 408.491H0V408.803H623V408.491Z" fill="#EBEBEB"/>
<path d="M560.575 428.54H519.308V428.851H560.575V428.54Z" fill="#EBEBEB"/>
<path d="M412.7 431.929H401.872V432.24H412.7V431.929Z" fill="#EBEBEB"/>
<path d="M518.062 416.977H494.151V417.288H518.062V416.977Z" fill="#EBEBEB"/>
<path d="M119.18 419.07H65.3651V419.382H119.18V419.07Z" fill="#EBEBEB"/>
<path d="M138.169 419.07H130.282V419.382H138.169V419.07Z" fill="#EBEBEB"/>
<path d="M280.537 424.328H163.812V424.64H280.537V424.328Z" fill="#EBEBEB"/>
<path d="M295.302 352.92H54.7119C52.8272 352.917 51.0207 352.166 49.6892 350.832C48.3576 349.498 47.6097 347.69 47.6097 345.805V7.60345C47.6261 5.72949 48.3813 3.93769 49.711 2.61723C51.0408 1.29677 52.8379 0.554297 54.7119 0.551086H295.302C297.189 0.551086 298.999 1.30066 300.333 2.63492C301.667 3.96918 302.417 5.77882 302.417 7.66574V345.805C302.417 347.692 301.667 349.502 300.333 350.836C298.999 352.17 297.189 352.92 295.302 352.92ZM54.7119 0.800287C52.9098 0.803588 51.1826 1.5218 49.9094 2.79728C48.6363 4.07277 47.9212 5.80129 47.9212 7.60345V345.805C47.9212 347.607 48.6363 349.336 49.9094 350.611C51.1826 351.887 52.9098 352.605 54.7119 352.608H295.302C297.105 352.605 298.834 351.887 300.109 350.612C301.384 349.337 302.102 347.608 302.105 345.805V7.60345C302.102 5.80015 301.384 4.07165 300.109 2.79652C298.834 1.5214 297.105 0.803581 295.302 0.800287H54.7119Z" fill="#EBEBEB"/>
<path d="M564.824 352.92H324.222C322.336 352.917 320.528 352.166 319.194 350.832C317.861 349.499 317.11 347.691 317.107 345.805V7.60345C317.127 5.72836 317.884 3.93656 319.216 2.61645C320.548 1.29633 322.346 0.554262 324.222 0.551086H564.824C566.696 0.557571 568.49 1.30149 569.817 2.6216C571.144 3.94171 571.898 5.73165 571.914 7.60345V345.805C571.914 347.688 571.168 349.494 569.839 350.827C568.51 352.161 566.707 352.913 564.824 352.92ZM324.222 0.800287C322.418 0.803581 320.69 1.5214 319.415 2.79652C318.14 4.07165 317.422 5.80015 317.418 7.60345V345.805C317.422 347.608 318.14 349.337 319.415 350.612C320.69 351.887 322.418 352.605 324.222 352.608H564.824C566.628 352.605 568.356 351.887 569.631 350.612C570.906 349.337 571.624 347.608 571.627 345.805V7.60345C571.624 5.80015 570.906 4.07165 569.631 2.79652C568.356 1.5214 566.628 0.803581 564.824 0.800287H324.222Z" fill="#EBEBEB"/>
<path d="M447.326 227.959H419.541V239.783H447.326V227.959Z" fill="#FAFAFA"/>
<path d="M413.709 227.959H385.924V239.783H413.709V227.959Z" fill="#FAFAFA"/>
<path d="M380.092 227.959H352.307V239.783H380.092V227.959Z" fill="#FAFAFA"/>
<path d="M464.135 244.418H436.349V256.243H464.135V244.418Z" fill="#FAFAFA"/>
<path d="M430.518 244.418H402.732V256.243H430.518V244.418Z" fill="#FAFAFA"/>
<path d="M396.901 244.418H369.115V256.243H396.901V244.418Z" fill="#FAFAFA"/>
<path d="M363.284 244.418H335.498V256.243H363.284V244.418Z" fill="#FAFAFA"/>
<path d="M518.324 260.878H490.538V272.702H518.324V260.878Z" fill="#FAFAFA"/>
<path d="M484.706 260.878H456.921V272.702H484.706V260.878Z" fill="#FAFAFA"/>
<path d="M413.709 260.878H385.924V272.702H413.709V260.878Z" fill="#FAFAFA"/>
<path d="M380.092 260.878H352.307V272.702H380.092V260.878Z" fill="#FAFAFA"/>
<path d="M346.475 260.878H318.689V272.702H346.475V260.878Z" fill="#FAFAFA"/>
<path d="M501.515 277.325H473.729V289.15H501.515V277.325Z" fill="#FAFAFA"/>
<path d="M430.518 277.325H402.732V289.15H430.518V277.325Z" fill="#FAFAFA"/>
<path d="M396.901 277.325H369.115V289.15H396.901V277.325Z" fill="#FAFAFA"/>
<path d="M363.284 277.325H335.498V289.15H363.284V277.325Z" fill="#FAFAFA"/>
<path d="M232.142 60.3092H204.356V72.1338H232.142V60.3092Z" fill="#FAFAFA"/>
<path d="M198.525 60.3092H170.739V72.1338H198.525V60.3092Z" fill="#FAFAFA"/>
<path d="M248.951 76.7689H221.165V88.5934H248.951V76.7689Z" fill="#FAFAFA"/>
<path d="M215.334 76.7689H187.548V88.5934H215.334V76.7689Z" fill="#FAFAFA"/>
<path d="M148.1 76.7689H120.314V88.5934H148.1V76.7689Z" fill="#FAFAFA"/>
<path d="M114.482 76.7689H86.6967V88.5934H114.482V76.7689Z" fill="#FAFAFA"/>
<path d="M198.525 93.2286H170.739V105.053H198.525V93.2286Z" fill="#FAFAFA"/>
<path d="M504.555 156.625H476.77V168.45H504.555V156.625Z" fill="#FAFAFA"/>
<path d="M446.018 156.625H418.232V168.45H446.018V156.625Z" fill="#FAFAFA"/>
<path d="M521.376 173.085H493.59V184.909H521.376V173.085Z" fill="#FAFAFA"/>
<path d="M487.747 173.085H459.961V184.909H487.747V173.085Z" fill="#FAFAFA"/>
<path d="M200.905 140.028H173.119V151.853H200.905V140.028Z" fill="#FAFAFA"/>
<path d="M129.896 140.028H102.11V151.853H129.896V140.028Z" fill="#FAFAFA"/>
<path d="M217.714 156.476H189.928V168.3H217.714V156.476Z" fill="#FAFAFA"/>
<path d="M171.624 156.476H143.838V168.3H171.624V156.476Z" fill="#FAFAFA"/>
<path d="M504.555 189.544H476.77V201.369H504.555V189.544Z" fill="#FAFAFA"/>
<path d="M446.018 189.544H418.232V201.369H446.018V189.544Z" fill="#FAFAFA"/>
<path d="M131.291 93.2286H103.505V105.053H131.291V93.2286Z" fill="#FAFAFA"/>
<path d="M524.927 60.7578H497.142V72.5823H524.927V60.7578Z" fill="#FAFAFA"/>
<path d="M491.31 60.7578H463.524V72.5823H491.31V60.7578Z" fill="#FAFAFA"/>
<path d="M508.119 77.205H480.333V89.0296H508.119V77.205Z" fill="#FAFAFA"/>
<path d="M374.323 61.0194H346.538V72.844H374.323V61.0194Z" fill="#FAFAFA"/>
<path d="M340.706 61.0194H312.92V72.844H340.706V61.0194Z" fill="#FAFAFA"/>
<path d="M391.132 77.4666H363.346V89.2912H391.132V77.4666Z" fill="#FAFAFA"/>
<path d="M357.515 77.4666H329.729V89.2912H357.515V77.4666Z" fill="#FAFAFA"/>
<path d="M323.898 77.4666H296.112V89.2912H323.898V77.4666Z" fill="#FAFAFA"/>
<path d="M407.94 93.9263H380.155V105.751H407.94V93.9263Z" fill="#FAFAFA"/>
<path d="M374.323 93.9263H346.538V105.751H374.323V93.9263Z" fill="#FAFAFA"/>
<path d="M340.706 93.9263H312.92V105.751H340.706V93.9263Z" fill="#FAFAFA"/>
<path d="M391.132 110.386H363.346V122.211H391.132V110.386Z" fill="#FAFAFA"/>
<path d="M357.515 110.386H329.729V122.211H357.515V110.386Z" fill="#FAFAFA"/>
<path d="M165.17 223.498H137.384V235.322H165.17V223.498Z" fill="#FAFAFA"/>
<path d="M131.54 223.498H103.754V235.322H131.54V223.498Z" fill="#FAFAFA"/>
<path d="M261.685 224.993H233.899V236.818H261.685V224.993Z" fill="#FAFAFA"/>
<path d="M181.978 239.945H154.193V251.77H181.978V239.945Z" fill="#FAFAFA"/>
<path d="M148.349 239.945H120.563V251.77H148.349V239.945Z" fill="#FAFAFA"/>
<path d="M278.493 241.453H250.708V253.277H278.493V241.453Z" fill="#FAFAFA"/>
<path d="M244.864 241.453H217.078V253.277H244.864V241.453Z" fill="#FAFAFA"/>
<path d="M334.078 188.249H306.292V200.073H334.078V188.249Z" fill="#FAFAFA"/>
<path d="M159.775 180.424H131.989V192.248H159.775V180.424Z" fill="#FAFAFA"/>
<path d="M296.187 129.898H268.401V141.723H296.187V129.898Z" fill="#FAFAFA"/>
<path d="M317.269 171.801H289.483V183.626H317.269V171.801Z" fill="#FAFAFA"/>
<path d="M350.886 171.801H323.1V183.626H350.886V171.801Z" fill="#FAFAFA"/>
<path d="M477.093 396.443H449.308V408.267H477.093V396.443Z" fill="#FAFAFA"/>
<path d="M493.902 379.995H466.116V391.82H493.902V379.995Z" fill="#FAFAFA"/>
<path d="M165.17 256.405H137.384V268.229H165.17V256.405Z" fill="#FAFAFA"/>
<path d="M131.54 256.405H103.754V268.229H131.54V256.405Z" fill="#FAFAFA"/>
<path d="M181.978 272.864H154.193V284.689H181.978V272.864Z" fill="#FAFAFA"/>
<path d="M148.349 272.864H120.563V284.689H148.349V272.864Z" fill="#FAFAFA"/>
<path d="M217.925 318.381H190.14V330.205H217.925V318.381Z" fill="#FAFAFA"/>
<path d="M184.308 318.381H156.523V330.205H184.308V318.381Z" fill="#FAFAFA"/>
<path d="M150.679 318.381H122.893V330.205H150.679V318.381Z" fill="#FAFAFA"/>
<path d="M117.062 318.381H89.2759V330.205H117.062V318.381Z" fill="#FAFAFA"/>
<path d="M234.734 334.84H206.948V346.665H234.734V334.84Z" fill="#FAFAFA"/>
<path d="M201.117 334.84H173.331V346.665H201.117V334.84Z" fill="#FAFAFA"/>
<path d="M133.87 334.84H106.084V346.665H133.87V334.84Z" fill="#FAFAFA"/>
<path d="M251.542 351.288H223.757V363.112H251.542V351.288Z" fill="#FAFAFA"/>
<path d="M217.925 351.288H190.14V363.112H217.925V351.288Z" fill="#FAFAFA"/>
<path d="M184.308 351.288H156.523V363.112H184.308V351.288Z" fill="#FAFAFA"/>
<path d="M234.734 367.747H206.948V379.572H234.734V367.747Z" fill="#FAFAFA"/>
<path d="M201.117 367.747H173.331V379.572H201.117V367.747Z" fill="#FAFAFA"/>
<path d="M167.5 367.747H139.714V379.572H167.5V367.747Z" fill="#FAFAFA"/>
<path d="M445.358 317.621H417.572V329.445H445.358V317.621Z" fill="#FAFAFA"/>
<path d="M374.361 317.621H346.575V329.445H374.361V317.621Z" fill="#FAFAFA"/>
<path d="M340.744 317.621H312.958V329.445H340.744V317.621Z" fill="#FAFAFA"/>
<path d="M462.179 334.08H434.393V345.905H462.179V334.08Z" fill="#FAFAFA"/>
<path d="M391.169 334.08H363.383V345.905H391.169V334.08Z" fill="#FAFAFA"/>
<path d="M357.552 334.08H329.766V345.905H357.552V334.08Z" fill="#FAFAFA"/>
<path d="M323.935 334.08H296.149V345.905H323.935V334.08Z" fill="#FAFAFA"/>
<path d="M478.987 350.528H451.202V362.352H478.987V350.528Z" fill="#FAFAFA"/>
<path d="M445.358 350.528H417.572V362.352H445.358V350.528Z" fill="#FAFAFA"/>
<path d="M374.361 350.528H346.575V362.352H374.361V350.528Z" fill="#FAFAFA"/>
<path d="M340.744 350.528H312.958V362.352H340.744V350.528Z" fill="#FAFAFA"/>
<path d="M424.786 366.987H397V378.812H424.786V366.987Z" fill="#FAFAFA"/>
<path d="M391.169 366.987H363.383V378.812H391.169V366.987Z" fill="#FAFAFA"/>
<path d="M357.552 366.987H329.766V378.812H357.552V366.987Z" fill="#FAFAFA"/>
<path d="M323.935 366.987H296.149V378.812H323.935V366.987Z" fill="#FAFAFA"/>
<path d="M385.051 262.572H505.066V125.301L385.051 125.301V262.572Z" fill="#E0E0E0"/>
<path d="M385.276 262.572H500.668V125.301H385.276V262.572Z" fill="#E0E0E0"/>
<path d="M381.301 262.572H501.316V125.301L381.301 125.301V262.572Z" fill="#F0F0F0"/>
<path d="M386.758 256.255H496.083V129.662H386.758V256.255Z" fill="white"/>
<path d="M386.758 256.255H390.172V129.662H386.758V256.255Z" fill="#E0E0E0"/>
<path d="M389.811 220.707V224.121H496.394V220.707H389.811Z" fill="#E0E0E0"/>
<path d="M386.758 220.694H497.914V214.963H386.758V220.694Z" fill="#F0F0F0"/>
<path d="M131.951 262.572H251.966L251.966 125.301L131.951 125.301V262.572Z" fill="#E0E0E0"/>
<path d="M132.188 262.572H247.58L247.58 125.301H132.188V262.572Z" fill="#E0E0E0"/>
<path d="M128.213 262.572H248.228L248.228 125.301L128.213 125.301V262.572Z" fill="#F0F0F0"/>
<path d="M133.659 256.255H242.983L242.983 129.662H133.659V256.255Z" fill="white"/>
<path d="M133.658 256.255H137.073L137.073 129.662H133.658L133.658 256.255Z" fill="#E0E0E0"/>
<path d="M136.711 220.694V224.108H243.294V220.694H136.711Z" fill="#E0E0E0"/>
<path d="M133.658 220.694H244.814V214.963H133.658V220.694Z" fill="#F0F0F0"/>
<path d="M311.5 464.761C444.925 464.761 553.087 458.446 553.087 450.656C553.087 442.866 444.925 436.551 311.5 436.551C178.075 436.551 69.9131 442.866 69.9131 450.656C69.9131 458.446 178.075 464.761 311.5 464.761Z" fill="#F5F5F5"/>
<path d="M111.367 418.472C111.367 418.472 109.648 405.8 101.536 404.417C93.425 403.034 95.8672 396.941 93.7614 394.524C91.6557 392.107 86.1359 399.146 90.8582 405.937C95.5806 412.728 91.718 410.585 93.7614 416.89C95.8049 423.194 112.14 428.988 111.367 418.472Z" fill="#263238"/>
<path opacity="0.2" d="M111.367 418.472C111.367 418.472 109.648 405.8 101.536 404.417C93.425 403.034 95.8672 396.941 93.7614 394.524C91.6557 392.107 86.1359 399.146 90.8582 405.937C95.5806 412.728 91.718 410.585 93.7614 416.89C95.8049 423.194 112.14 428.988 111.367 418.472Z" fill="white"/>
<path d="M111.031 427.269C110.925 427.27 110.821 427.242 110.73 427.187C110.64 427.132 110.567 427.052 110.52 426.957C110.52 426.82 104.29 413.637 107.53 392.63C108.579 386.621 110.249 380.737 112.514 375.074C116.439 364.383 119.529 355.935 112.451 340.51C110.209 335.625 107.916 331.078 105.698 326.679C97.3748 310.157 90.8084 297.112 95.7301 283.891C95.7831 283.753 95.889 283.641 96.0244 283.58C96.1599 283.519 96.3139 283.515 96.4528 283.568C96.5231 283.59 96.5882 283.626 96.6438 283.675C96.6994 283.723 96.7444 283.783 96.776 283.849C96.8076 283.916 96.8251 283.988 96.8273 284.062C96.8296 284.136 96.8166 284.209 96.7892 284.278C92.0668 297.037 98.546 309.896 106.757 326.168C108.975 330.579 111.268 335.139 113.523 340.036C120.8 355.885 117.473 364.956 113.623 375.46C111.353 381.049 109.682 386.863 108.639 392.804C105.436 413.438 111.48 426.334 111.542 426.446C111.606 426.58 111.615 426.734 111.566 426.874C111.517 427.014 111.414 427.129 111.28 427.194C111.204 427.237 111.118 427.262 111.031 427.269Z" fill="#263238"/>
<path d="M106.358 424.191C106.358 424.191 101.113 416.291 108.676 412.229C116.239 408.168 117.759 411.445 122.382 408.491C127.005 405.538 130.606 398.523 131.403 403.022C132.2 407.52 126.805 410.136 128.712 412.205C130.618 414.273 116.04 427.73 106.358 424.191Z" fill="#263238"/>
<path d="M93.9856 290.682C93.9856 290.682 88.8895 275.169 100.502 274.846C112.115 274.522 99.3061 289.025 93.9856 290.682Z" fill="#263238"/>
<path d="M104.078 302.619C104.078 302.619 107.542 288.502 115.778 291.48C124.014 294.458 112.289 302.881 104.078 302.619Z" fill="#263238"/>
<path d="M90.0981 303.84C90.0981 303.84 91.3441 292.626 82.6221 292.352C73.9001 292.078 77.7378 302.083 90.0981 303.84Z" fill="#263238"/>
<path d="M95.9419 326.804C95.9419 326.804 84.2046 316.337 79.9806 324.125C75.7567 331.912 88.8148 333.532 95.9419 326.804Z" fill="#263238"/>
<path d="M116.675 324.947C116.675 324.947 118.881 307.503 128.363 313.023C137.845 318.543 124.936 326.692 116.675 324.947Z" fill="#263238"/>
<path d="M125.024 349.83C125.024 349.83 118.021 332.274 131.029 334.255C144.038 336.236 134.207 345.568 125.024 349.83Z" fill="#263238"/>
<path d="M105.063 356.097C105.063 356.097 94.0853 343.201 85.6873 347.263C77.2892 351.325 84.1547 364.221 105.063 356.097Z" fill="#263238"/>
<path d="M115.031 384.768C115.031 384.768 124.388 363.984 132.711 370.987C141.035 377.989 127.403 388.456 115.031 384.768Z" fill="#263238"/>
<path d="M101.437 383.547C101.437 383.547 103.929 367.423 94.646 368.719C85.3633 370.015 87.818 379.883 101.437 383.547Z" fill="#263238"/>
<g opacity="0.2">
<path opacity="0.2" d="M93.9855 290.682C93.9855 290.682 88.8894 275.17 100.502 274.846C112.115 274.522 99.3059 289.025 93.9855 290.682Z" fill="white"/>
<path opacity="0.2" d="M104.078 302.619C104.078 302.619 107.542 288.502 115.778 291.48C124.014 294.458 112.289 302.881 104.078 302.619Z" fill="white"/>
<path opacity="0.2" d="M90.098 303.84C90.098 303.84 91.344 292.626 82.622 292.352C73.9 292.078 77.7376 302.083 90.098 303.84Z" fill="white"/>
<path opacity="0.2" d="M95.9418 326.804C95.9418 326.804 84.2045 316.337 79.9805 324.125C75.7566 331.912 88.8147 333.532 95.9418 326.804Z" fill="white"/>
<path opacity="0.2" d="M116.675 324.947C116.675 324.947 118.881 307.503 128.363 313.023C137.845 318.543 124.936 326.692 116.675 324.947Z" fill="white"/>
<path opacity="0.2" d="M125.023 349.83C125.023 349.83 118.021 332.274 131.029 334.255C144.037 336.236 134.206 345.569 125.023 349.83Z" fill="white"/>
<path opacity="0.2" d="M105.063 356.097C105.063 356.097 94.0853 343.201 85.6873 347.263C77.2892 351.325 84.1547 364.221 105.063 356.097Z" fill="white"/>
<path opacity="0.2" d="M115.031 384.768C115.031 384.768 124.388 363.984 132.711 370.987C141.035 377.989 127.403 388.456 115.031 384.768Z" fill="white"/>
<path opacity="0.2" d="M101.437 383.547C101.437 383.547 103.929 367.423 94.6459 368.719C85.3632 370.015 87.8178 379.883 101.437 383.547Z" fill="white"/>
</g>
<path d="M99.0195 311.951C98.9246 311.951 98.8309 311.93 98.7454 311.889C91.8674 308.039 86.9208 300.762 86.7215 300.463C86.6792 300.402 86.6495 300.333 86.6341 300.26C86.6187 300.188 86.6179 300.113 86.6319 300.039C86.6458 299.966 86.6741 299.897 86.7151 299.835C86.7562 299.773 86.8092 299.72 86.871 299.678C86.9955 299.596 87.1472 299.566 87.2938 299.594C87.4404 299.622 87.5703 299.706 87.656 299.828C90.6423 304.106 94.4242 307.769 98.7952 310.618C99.8418 308.674 103.617 301.971 106.77 300.077C106.897 299.999 107.05 299.975 107.195 300.011C107.266 300.028 107.334 300.059 107.394 300.103C107.453 300.146 107.504 300.201 107.542 300.264C107.581 300.327 107.606 300.397 107.618 300.47C107.629 300.543 107.626 300.617 107.609 300.689C107.591 300.761 107.56 300.828 107.517 300.888C107.473 300.948 107.418 300.998 107.355 301.036C104.003 303.043 99.5553 311.565 99.5179 311.652C99.4828 311.718 99.435 311.776 99.3773 311.823C99.3195 311.87 99.2529 311.905 99.1815 311.926C99.1298 311.946 99.0746 311.954 99.0195 311.951Z" fill="#263238"/>
<path d="M109.648 333.52C109.526 333.523 109.407 333.483 109.311 333.408C99.5304 326.019 87.033 326.33 86.8835 326.33C86.7353 326.328 86.5933 326.27 86.4851 326.169C86.3769 326.068 86.3102 325.93 86.2979 325.782C86.2962 325.708 86.3091 325.635 86.3357 325.566C86.3624 325.498 86.4023 325.435 86.4532 325.382C86.5042 325.329 86.5651 325.286 86.6325 325.256C86.6999 325.227 86.7725 325.21 86.8461 325.209C86.9707 325.209 99.4432 324.885 109.461 332.137C110.769 330.056 115.791 322.493 122.245 318.692C122.374 318.616 122.528 318.595 122.673 318.632C122.817 318.669 122.941 318.763 123.017 318.892C123.094 319.021 123.115 319.174 123.078 319.319C123.04 319.464 122.947 319.588 122.818 319.664C115.703 323.851 110.159 333.146 110.109 333.246C110.068 333.312 110.013 333.37 109.949 333.415C109.885 333.46 109.812 333.492 109.735 333.507L109.648 333.52Z" fill="#263238"/>
<path d="M116.439 362.016C116.338 362.016 116.239 361.991 116.152 361.941C116.015 361.854 101.723 353.643 91.3939 353.443C91.258 353.423 91.1339 353.355 91.0441 353.251C90.9544 353.147 90.905 353.014 90.905 352.876C90.905 352.739 90.9544 352.606 91.0441 352.502C91.1339 352.398 91.258 352.33 91.3939 352.309C101.237 352.509 114.059 359.474 116.314 360.77C122.943 355.175 128.213 341.457 128.263 341.32C128.287 341.247 128.324 341.181 128.375 341.124C128.425 341.066 128.486 341.02 128.554 340.987C128.623 340.954 128.697 340.936 128.773 340.933C128.849 340.93 128.925 340.942 128.996 340.969C129.067 340.996 129.132 341.037 129.186 341.09C129.241 341.143 129.284 341.206 129.313 341.276C129.343 341.346 129.358 341.422 129.357 341.498C129.356 341.574 129.34 341.649 129.31 341.718C129.085 342.304 123.728 356.272 116.725 361.891C116.642 361.957 116.543 362 116.439 362.016Z" fill="#263238"/>
<path d="M108.165 391.471C108.065 391.47 107.966 391.444 107.879 391.396C102.483 388.306 95.5058 374.787 95.2192 374.214C95.1498 374.082 95.1357 373.927 95.1801 373.785C95.2245 373.642 95.3237 373.523 95.4559 373.454C95.5881 373.385 95.7424 373.37 95.885 373.415C96.0275 373.459 96.1466 373.559 96.216 373.691C96.216 373.828 102.957 386.774 108.028 390.163C112.156 385.342 117.619 381.852 123.728 380.133C123.87 380.09 124.023 380.105 124.154 380.175C124.285 380.245 124.382 380.364 124.425 380.506C124.468 380.65 124.453 380.805 124.384 380.938C124.314 381.071 124.194 381.171 124.052 381.217C118.013 382.888 112.631 386.366 108.626 391.185C108.578 391.266 108.511 391.335 108.431 391.384C108.351 391.434 108.259 391.464 108.165 391.471Z" fill="#263238"/>
<path d="M107.156 422.297C107.156 422.297 102.658 415.145 97.5866 414.123C92.5154 413.102 90.3224 407.258 88.4534 410.772C86.5844 414.285 91.7429 425.948 107.156 422.297Z" fill="#263238"/>
<path d="M88.8521 450.37H126.332L128.836 420.104H86.3477L88.8521 450.37Z" fill="#407BFF"/>
<path d="M85.463 425.836H129.709L130.282 419.419H84.9023L85.463 425.836Z" fill="#407BFF"/>
<path opacity="0.3" d="M85.463 425.836H129.709L130.282 419.419H84.9023L85.463 425.836Z" fill="white"/>
<path d="M349.466 191.712L347.572 192.074C347.423 192.084 347.275 192.05 347.145 191.977C347.015 191.904 346.91 191.794 346.842 191.661C346.774 191.528 346.747 191.378 346.764 191.23C346.781 191.082 346.841 190.942 346.936 190.828H347.011C346.475 191.064 345.939 191.301 345.379 191.513C345.333 192.343 345.333 193.175 345.379 194.005L357.602 257.227L312.073 266.049C312.086 266.14 312.086 266.232 312.073 266.323C312.054 266.52 311.959 266.702 311.808 266.83C311.656 266.958 311.461 267.022 311.263 267.008C310.528 266.871 309.781 266.734 309.033 266.634L248.751 278.322C248.741 278.428 248.707 278.53 248.652 278.621C248.424 279.004 248.17 279.37 247.892 279.717C247.927 279.94 247.901 280.168 247.817 280.378C247.351 281.776 246.745 283.125 246.01 284.402C245.772 284.739 245.416 284.974 245.013 285.063C244.751 285.117 244.479 285.095 244.228 285C243.943 285.616 243.734 286.265 243.605 286.932L340.195 268.242L340.283 268.13C340.846 267.598 341.513 267.19 342.242 266.93C342.972 266.671 343.747 266.566 344.519 266.622C345.069 265.979 345.721 265.431 346.45 265.002C346.779 264.786 347.156 264.656 347.548 264.623C347.94 264.591 348.333 264.657 348.693 264.815C349.172 265.098 349.537 265.539 349.727 266.061C350.678 265.945 351.635 265.878 352.593 265.862L366.299 263.195L352.905 194.13C351.578 193.616 350.398 192.786 349.466 191.712Z" fill="#407BFF"/>
<path d="M224.604 101.365L225.053 101.452L234.061 99.7077C235.058 99.2716 236.042 98.8106 237.002 98.3994C238.814 97.5425 240.762 97.007 242.758 96.817C243.948 96.7621 245.137 96.9398 246.259 97.3403L323.736 82.326L330.925 119.382C331.009 119.263 331.125 119.171 331.259 119.116C331.394 119.061 331.541 119.045 331.684 119.072C331.827 119.098 331.959 119.165 332.066 119.264C332.172 119.363 332.247 119.49 332.283 119.631C332.701 121.261 332.927 122.933 332.956 124.615C332.917 125.423 332.731 126.217 332.408 126.958L344.631 190.043C345.366 189.769 346.089 189.47 346.812 189.146C346.884 188.711 347.043 188.296 347.281 187.925C347.519 187.555 347.83 187.236 348.195 186.99C348.717 186.743 349.312 186.699 349.864 186.865C350.152 186.211 350.361 185.525 350.487 184.822C350.663 183.965 350.742 183.092 350.724 182.218L350.238 179.664C350.238 179.526 350.126 179.402 350.064 179.277C350.012 179.181 349.986 179.074 349.986 178.966C349.986 178.857 350.012 178.75 350.064 178.654L337.205 112.342C337.131 112.354 337.055 112.354 336.981 112.342C336.531 112.39 336.076 112.315 335.665 112.124C335.255 111.933 334.904 111.633 334.651 111.258C334.296 110.532 334.187 109.71 334.339 108.916C334.464 107.981 334.701 107.059 334.887 106.137C335.088 105.323 335.147 104.48 335.062 103.645C335.032 103.504 335.047 103.357 335.105 103.225C335.163 103.093 335.261 102.983 335.386 102.91L329.679 73.4919L217.95 95.247C215.875 96.4538 213.51 97.07 211.11 97.0288C210.996 97.0217 210.887 96.986 210.791 96.9249C210.695 96.8639 210.616 96.7796 210.562 96.6799L155.127 107.433C155.094 107.577 155.022 107.709 154.919 107.815C154.816 107.921 154.685 107.995 154.541 108.031L151.626 108.592C151.614 109.035 151.481 109.466 151.239 109.838C151.22 110.012 151.135 110.172 151.003 110.286C150.811 110.443 150.628 110.609 150.455 110.785C150.118 111.096 149.794 111.433 149.445 111.732C149.327 111.846 149.181 111.927 149.022 111.968C148.892 111.991 148.758 111.98 148.634 111.936C148.51 111.892 148.399 111.818 148.311 111.719C148.183 111.566 148.116 111.371 148.124 111.171C148.117 111.1 148.117 111.03 148.124 110.959C147.676 110.959 147.227 110.959 146.791 110.847C146.595 110.825 146.415 110.729 146.288 110.578C146.16 110.428 146.095 110.234 146.106 110.037C146.122 109.841 146.215 109.659 146.364 109.531C146.513 109.402 146.707 109.338 146.903 109.352C147.374 109.42 147.848 109.458 148.324 109.464H148.698C148.751 109.47 148.806 109.47 148.86 109.464C148.493 109.412 148.158 109.23 147.913 108.953C147.909 108.92 147.909 108.886 147.913 108.853L115.816 115.083C115.964 115.085 116.11 115.124 116.239 115.195C116.4 115.309 116.51 115.48 116.547 115.672C116.584 115.865 116.545 116.065 116.439 116.23C116.182 116.571 115.894 116.888 115.579 117.177L115.492 117.276C115.492 117.214 115.567 117.276 115.492 117.276C115.438 117.34 115.388 117.406 115.342 117.476C115.342 117.476 115.342 117.575 115.342 117.613C115.336 117.654 115.336 117.696 115.342 117.737C115.336 117.762 115.336 117.788 115.342 117.812C115.326 117.94 115.278 118.062 115.202 118.167C115.127 118.272 115.026 118.356 114.909 118.412C114.793 118.467 114.664 118.493 114.535 118.486C114.406 118.48 114.281 118.441 114.171 118.373C114.105 118.337 114.033 118.312 113.959 118.298C113.882 118.267 113.803 118.243 113.722 118.223C113.725 118.574 113.63 118.919 113.448 119.22C113.377 119.324 113.279 119.406 113.165 119.459C113.051 119.511 112.925 119.532 112.8 119.519C112.675 120.22 112.44 120.898 112.103 121.525C111.726 122.166 111.216 122.719 110.607 123.145C110.728 123.307 110.828 123.482 110.906 123.668L158.628 114.423V114.348C158.831 114.009 159.092 113.71 159.401 113.464C159.605 113.312 159.842 113.209 160.093 113.164C160.344 113.118 160.601 113.131 160.846 113.202C161.238 113.323 161.605 113.513 161.93 113.763L223.719 101.789C223.791 101.623 223.92 101.489 224.082 101.411C224.245 101.334 224.43 101.317 224.604 101.365Z" fill="#407BFF"/>
<path d="M141.508 299.143L130.294 241.39C130.196 241.502 130.066 241.583 129.922 241.62C129.777 241.658 129.625 241.652 129.484 241.602C129.298 241.537 129.145 241.401 129.059 241.224C128.972 241.046 128.96 240.842 129.023 240.655C129.21 240.107 129.492 239.597 129.858 239.148L115.168 163.254L115.031 163.017C114.732 162.401 114.518 161.747 114.395 161.073C114.138 161.054 113.88 161.054 113.623 161.073C113.51 161.092 113.394 161.085 113.284 161.053C113.174 161.021 113.073 160.965 112.988 160.888C112.903 160.812 112.836 160.717 112.793 160.611C112.749 160.505 112.731 160.39 112.738 160.276C112.723 158.838 113.093 157.423 113.81 156.176L107.854 125.475C107.754 125.311 107.667 125.141 107.592 124.964L107.293 124.403C107.171 124.4 107.051 124.364 106.948 124.298C106.845 124.232 106.762 124.139 106.707 124.03C106.621 123.853 106.608 123.649 106.671 123.462C106.734 123.275 106.868 123.121 107.044 123.033C107.355 122.912 107.639 122.73 107.879 122.497C108.048 122.304 108.187 122.085 108.29 121.849C108.486 121.322 108.591 120.766 108.601 120.204C108.414 119.951 108.279 119.663 108.203 119.357C108.146 118.939 108.184 118.513 108.315 118.111C108.341 118.006 108.397 117.911 108.477 117.837C108.477 117.364 108.402 116.89 108.377 116.417L98.8451 118.261L126.045 258.585C126.181 258.512 126.339 258.493 126.489 258.529C126.638 258.566 126.769 258.657 126.855 258.785C127.56 259.547 127.947 260.55 127.939 261.588C127.902 261.793 127.843 261.993 127.765 262.186C127.89 262.277 127.983 262.407 128.028 262.555C128.073 262.704 128.068 262.863 128.014 263.009C127.649 263.723 127.531 264.538 127.678 265.326C127.834 266.068 128.046 266.797 128.313 267.507C128.783 268.699 128.844 270.014 128.487 271.245L135.59 307.914L137.608 307.516C138.743 307.141 139.9 306.837 141.072 306.606C141.054 306.52 141.055 306.431 141.075 306.345C141.094 306.259 141.131 306.178 141.184 306.108C141.48 305.765 141.797 305.441 142.131 305.136C142.1 305.009 142.1 304.876 142.131 304.75C142.34 303.887 142.826 303.117 143.514 302.557C144.139 302.096 144.909 301.879 145.682 301.946C146.427 302.04 147.142 302.297 147.775 302.7C148.408 303.103 148.945 303.641 149.345 304.276C151.389 303.778 153.594 303.03 155.575 304.039L233.027 289.087C233.05 288.885 233.092 288.684 233.151 288.489C233.468 287.48 234.059 286.578 234.858 285.885C234.978 285.783 235.127 285.721 235.284 285.71C235.441 285.699 235.598 285.738 235.731 285.823C235.791 285.725 235.875 285.644 235.975 285.588C236.076 285.532 236.189 285.502 236.304 285.502C236.419 285.502 236.532 285.532 236.632 285.588C236.732 285.644 236.817 285.725 236.877 285.823L237.188 286.197L237.326 286.321L237.562 286.483L237.824 286.608C237.587 285.887 237.587 285.11 237.824 284.39C237.97 283.985 238.198 283.614 238.494 283.301C238.79 282.988 239.147 282.739 239.543 282.571C239.47 282.471 239.422 282.354 239.406 282.231C239.389 282.109 239.404 281.983 239.449 281.868C239.493 281.752 239.567 281.65 239.662 281.57C239.757 281.49 239.87 281.436 239.992 281.412C240.154 281.392 240.319 281.425 240.461 281.506C240.603 281.586 240.715 281.711 240.781 281.861C240.847 282.01 240.862 282.177 240.826 282.337C240.789 282.496 240.702 282.639 240.578 282.745L240.665 282.845C240.751 283.022 240.765 283.226 240.702 283.412C240.639 283.599 240.504 283.753 240.328 283.842L240.042 283.979L239.88 284.066L239.793 284.128L239.593 284.303L239.518 284.39L239.394 284.577V284.652C239.366 284.717 239.341 284.783 239.319 284.851C239.567 284.524 239.856 284.231 240.179 283.979C240.395 283.829 240.63 283.708 240.877 283.617C241.487 282.272 242.06 280.901 242.633 279.555L141.508 299.143Z" fill="#407BFF"/>
<path d="M159.924 241.029C160.057 240.884 160.213 240.762 160.385 240.668L182.888 196.21L172.546 198.216L163.475 215.972C163.532 215.985 163.586 216.006 163.637 216.034C163.798 216.148 163.908 216.318 163.945 216.511C163.982 216.704 163.943 216.904 163.837 217.068C163.625 217.38 163.463 217.716 163.276 218.04C163.438 218.14 163.587 218.265 163.749 218.352C163.872 218.435 163.967 218.553 164.023 218.691C164.078 218.828 164.091 218.979 164.061 219.124C164.03 219.268 163.959 219.4 163.855 219.504C163.751 219.608 163.619 219.679 163.475 219.71L163.226 219.847H163.164H163.089L162.603 220.071H162.491L162.317 220.208L161.93 220.545L161.731 220.757L161.644 220.856L161.295 221.305C161.046 221.641 160.821 221.99 160.585 222.339C160.469 222.502 160.295 222.613 160.099 222.651L146.829 248.642L148.075 255.346L153.968 254.199C154.157 253.641 154.473 253.133 154.89 252.716C155.088 252.531 155.305 252.368 155.538 252.231C155.532 252.185 155.532 252.139 155.538 252.093C155.818 249.076 156.799 246.166 158.404 243.596C158.324 243.471 158.282 243.326 158.282 243.178C158.282 243.03 158.324 242.885 158.404 242.761C158.607 242.406 158.686 241.994 158.628 241.59C158.63 241.44 158.675 241.294 158.757 241.17C158.84 241.045 158.957 240.948 159.094 240.888C159.231 240.829 159.383 240.811 159.53 240.836C159.677 240.861 159.814 240.928 159.924 241.029Z" fill="#407BFF"/>
<path d="M198.687 237.079C198.674 237.266 198.623 237.448 198.538 237.615C198.168 238.338 197.567 238.917 196.831 239.26C196.681 239.484 196.519 239.696 196.382 239.908C196.301 240.021 196.189 240.108 196.058 240.157C196.058 240.269 195.971 240.394 195.946 240.506C195.917 240.602 195.868 240.692 195.803 240.77C195.738 240.847 195.658 240.911 195.568 240.956C195.478 241.002 195.379 241.029 195.278 241.035C195.177 241.042 195.076 241.028 194.981 240.994C194.886 240.96 194.798 240.907 194.724 240.839C194.649 240.77 194.59 240.688 194.548 240.595C194.507 240.503 194.485 240.403 194.483 240.302C194.481 240.201 194.5 240.101 194.538 240.007C194.661 239.579 194.819 239.163 195.011 238.761L194.301 238.898C194.108 238.932 193.91 238.89 193.748 238.78C193.585 238.671 193.471 238.504 193.429 238.313C193.41 238.256 193.41 238.195 193.429 238.138L192.993 238.226L190.177 223.585L181.181 225.329L183.997 239.883L161.731 244.194C161.581 244.269 161.444 244.381 161.295 244.468V244.568C161.35 244.729 161.348 244.903 161.29 245.063C161.232 245.223 161.122 245.359 160.977 245.447C160.831 245.536 160.66 245.572 160.492 245.551C160.323 245.529 160.167 245.45 160.049 245.328C159.634 245.685 159.254 246.081 158.915 246.511C159.045 246.474 159.183 246.475 159.313 246.512C159.443 246.55 159.56 246.623 159.65 246.723C159.719 246.792 159.774 246.873 159.812 246.963C159.85 247.053 159.869 247.149 159.869 247.247C159.869 247.344 159.85 247.44 159.812 247.53C159.774 247.62 159.719 247.701 159.65 247.77L159.052 248.268C159.128 248.394 159.168 248.539 159.168 248.686C159.168 248.833 159.128 248.977 159.052 249.103V249.19C159.046 249.236 159.046 249.282 159.052 249.327C159.052 249.502 159.052 249.689 159.052 249.876C159.026 250.21 158.88 250.524 158.641 250.76C158.369 250.994 158.036 251.145 157.681 251.196H157.594C157.629 251.569 157.683 251.939 157.756 252.305C157.926 252.643 158.059 252.998 158.155 253.364L185.43 248.081L188.495 264.703L197.79 262.909L194.6 246.437L207.322 243.945L205.727 235.721L198.687 237.079Z" fill="#407BFF"/>
<path d="M252.689 192.223L252.091 192.747C251.804 192.996 251.53 193.245 251.268 193.507L250.932 193.88L250.745 194.105C250.531 194.415 250.212 194.638 249.847 194.731C249.481 194.824 249.095 194.781 248.758 194.611C248.422 194.44 248.159 194.154 248.018 193.804C247.877 193.454 247.867 193.065 247.991 192.709L248.34 191.388C248.34 191.388 248.241 191.289 248.203 191.214C248.102 191.027 248.051 190.816 248.054 190.603C248.029 190.401 248.055 190.196 248.129 190.005C248.129 189.856 248.241 189.706 248.303 189.557C248.03 189.293 247.803 188.985 247.63 188.647V188.548C242.375 185.783 236.315 184.954 230.51 186.205C214.811 189.245 205.59 203.961 209.777 225.778C213.963 247.595 228.093 257.788 243.792 254.748C245.203 254.479 246.59 254.1 247.942 253.614C248.378 252.991 248.814 252.368 249.188 251.757C249.336 251.543 249.535 251.371 249.767 251.255C250 251.138 250.257 251.083 250.517 251.093C250.777 251.103 251.03 251.178 251.252 251.311C251.475 251.445 251.661 251.633 251.792 251.857C262.345 245.976 267.828 232.93 264.389 215.187C262.433 204.895 258.221 197.17 252.689 192.223ZM242.148 246.237C231.619 248.281 222.673 241.079 219.346 223.934C216.019 206.789 221.626 196.771 232.155 194.74C234.921 194.142 237.798 194.307 240.478 195.218C243.158 196.129 245.539 197.751 247.368 199.911C247.546 199.785 247.744 199.692 247.954 199.637C248.362 199.564 248.782 199.653 249.124 199.886C249.467 200.119 249.704 200.477 249.786 200.883C249.918 201.674 249.939 202.479 249.848 203.275C252.321 207.507 254.01 212.15 254.832 216.981C258.184 234.188 252.577 244.219 242.148 246.237Z" fill="#407BFF"/>
<path d="M320.907 213.393L318.091 198.839L309.083 200.584L311.911 215.137L286.156 220.121L310.79 171.452L300.448 173.446L291.19 191.588C291.103 193.853 290.644 196.088 289.832 198.204C289.775 198.344 289.678 198.464 289.552 198.548C289.427 198.633 289.279 198.678 289.128 198.678C288.977 198.678 288.829 198.633 288.704 198.548C288.578 198.464 288.481 198.344 288.424 198.204C288.175 200.135 287.269 201.922 285.857 203.263C285.765 203.349 285.651 203.407 285.528 203.431C285.405 203.455 285.277 203.444 285.16 203.4L274.681 223.934L275.927 230.637L291.427 227.635C292.749 226.583 294.312 225.876 295.975 225.579C297.435 225.241 298.925 225.045 300.423 224.993C301.546 224.907 302.676 224.991 303.775 225.242L313.17 223.423L316.359 239.883L325.642 238.088L322.452 221.629L335.186 219.137L333.592 210.913L320.907 213.393Z" fill="#407BFF"/>
<path d="M149.645 173.508L148.174 165.933L163.376 162.992L162.229 157.099L147.028 160.039L145.658 152.924L162.865 149.598L161.619 143.517L136.886 148.314L139.004 159.229C139.381 159.422 139.716 159.689 139.988 160.014C140.458 160.608 140.74 161.328 140.798 162.083C140.96 163.64 140.574 165.247 140.798 166.755C140.829 166.881 140.821 167.013 140.777 167.135C140.732 167.257 140.653 167.363 140.549 167.44L143.29 181.047L168.634 176.137L167.463 170.007L149.645 173.508Z" fill="#407BFF"/>
<path d="M194.276 160.251C196.115 159.085 197.558 157.389 198.414 155.388C199.27 153.386 199.5 151.172 199.074 149.037C198.948 149.168 198.781 149.252 198.6 149.274C198.454 149.283 198.309 149.25 198.182 149.176C198.056 149.103 197.954 148.994 197.89 148.862C197.72 148.465 197.606 148.046 197.553 147.616C197.553 147.554 197.553 147.504 197.553 147.442C197.323 147.148 197.157 146.808 197.067 146.445C197.038 146.251 197.083 146.053 197.194 145.891C197.305 145.729 197.474 145.615 197.666 145.573C197.741 145.553 197.82 145.55 197.898 145.563C197.975 145.576 198.049 145.605 198.114 145.648C195.734 140.327 190.003 137.96 182.502 139.418L168.335 142.159L170.254 152.04C170.405 152.104 170.526 152.225 170.59 152.376C171.796 154.825 172.547 157.472 172.808 160.189C172.838 160.383 172.793 160.581 172.681 160.743C172.57 160.905 172.402 161.019 172.21 161.061C172.14 161.073 172.068 161.073 171.998 161.061L174.677 174.991L182.253 173.521L180.483 164.413L187.448 163.054L195.522 170.954L203.659 169.372L194.276 160.251ZM185.48 157.148L179.25 158.394L177.032 146.993L183.262 145.747C187.884 144.85 190.638 146.495 191.336 150.096C192.034 153.697 190.115 156.301 185.48 157.148Z" fill="#407BFF"/>
<path d="M228.654 153.585C230.554 152.378 232.031 150.608 232.877 148.522C233.724 146.436 233.898 144.137 233.376 141.947C231.956 134.608 225.613 131.132 216.866 132.826L202.699 135.58L209.042 168.3L216.617 166.842L214.848 157.722L221.813 156.363L229.9 164.263L238.036 162.681L228.654 153.585ZM219.857 150.495L213.627 151.741L211.421 140.327L217.589 139.081C217.975 139.007 218.349 138.957 218.698 138.919L218.935 138.72C218.957 138.533 218.999 138.35 219.059 138.172C219.141 137.956 219.288 137.771 219.48 137.643C219.673 137.516 219.9 137.452 220.131 137.462C220.573 137.506 221 137.65 221.377 137.885C221.442 137.807 221.523 137.743 221.614 137.698C221.619 137.459 221.648 137.221 221.701 136.988C221.773 136.81 221.912 136.667 222.087 136.588C222.263 136.509 222.462 136.501 222.643 136.565C222.824 136.629 222.974 136.761 223.06 136.932C223.147 137.104 223.165 137.302 223.109 137.486C222.959 138.06 223.234 138.57 223.184 139.156C223.167 139.295 223.124 139.431 223.059 139.555C223.76 139.961 224.358 140.523 224.807 141.197C225.256 141.871 225.545 142.639 225.651 143.442C226.398 146.993 224.48 149.598 219.857 150.495Z" fill="#407BFF"/>
<path d="M264.501 126.509L264.115 126.609C264.023 126.64 263.935 126.682 263.853 126.733C263.814 126.756 263.78 126.785 263.753 126.821C263.643 126.952 263.495 127.048 263.33 127.095C263.233 127.112 263.133 127.11 263.037 127.089C262.941 127.067 262.85 127.027 262.769 126.97C262.685 126.919 262.614 126.851 262.56 126.769C262.506 126.687 262.471 126.594 262.458 126.497C262.419 126.302 262.459 126.101 262.57 125.936C262.57 125.936 262.644 125.874 262.669 125.836C259.479 124.819 256.082 124.635 252.801 125.301C242.459 127.307 236.292 135.979 238.173 145.698C240.054 155.416 249.026 161.16 259.355 159.154C269.684 157.148 275.877 148.526 273.983 138.757C273.518 136.099 272.411 133.594 270.759 131.459C269.106 129.325 266.958 127.626 264.501 126.509ZM258.121 152.675C255.344 153.214 252.466 152.627 250.121 151.044C247.776 149.461 246.156 147.011 245.618 144.234C245.079 141.456 245.666 138.578 247.249 136.233C248.832 133.889 251.282 132.269 254.059 131.73C255.458 131.456 256.897 131.456 258.296 131.73C258.296 131.556 258.408 131.381 258.47 131.232C258.532 131.062 258.654 130.921 258.812 130.834C258.97 130.747 259.154 130.72 259.33 130.758C259.469 130.782 259.596 130.85 259.694 130.95C259.793 131.051 259.857 131.18 259.878 131.319L260.314 131.207C260.414 130.895 260.514 130.596 260.601 130.285C260.688 129.973 260.701 129.923 260.738 129.749C260.765 129.663 260.785 129.576 260.8 129.487V129.4L260.875 128.951V128.789C260.8 128.291 261.324 127.693 261.859 127.955L263.342 128.665C263.525 128.737 263.673 128.877 263.757 129.056C263.84 129.234 263.852 129.437 263.791 129.624C263.703 129.81 263.628 130.001 263.566 130.197C263.566 130.26 263.566 130.334 263.504 130.397C263.504 130.397 263.504 130.397 263.504 130.484C263.479 130.782 263.479 131.083 263.504 131.381C263.531 132.09 263.489 132.799 263.38 133.499C263.414 133.58 263.432 133.667 263.432 133.755C263.432 133.843 263.414 133.929 263.38 134.01C263.354 134.095 263.307 134.173 263.243 134.234C264.872 135.847 265.964 137.922 266.37 140.178C266.71 141.544 266.764 142.965 266.526 144.353C266.289 145.74 265.766 147.063 264.99 148.238C264.215 149.413 263.204 150.414 262.022 151.178C260.839 151.941 259.511 152.451 258.121 152.675Z" fill="#407BFF"/>
<path d="M307.338 128.578C307.297 128.572 307.255 128.572 307.214 128.578C306.916 128.472 306.642 128.312 306.404 128.104C306.291 128.297 306.162 128.481 306.018 128.652C305.903 128.81 305.732 128.919 305.54 128.956C305.348 128.993 305.149 128.955 304.984 128.852C304.821 128.74 304.708 128.569 304.671 128.376C304.633 128.182 304.674 127.981 304.784 127.817C305.52 126.815 305.984 125.639 306.13 124.403C303.638 119.345 298.018 117.139 290.704 118.56L276.537 121.301L282.842 153.996L290.418 152.526L288.648 143.405L295.614 142.059L303.7 149.946L311.837 148.376L302.454 139.281C304.221 138.165 305.625 136.558 306.492 134.657C307.36 132.756 307.654 130.643 307.338 128.578ZM293.695 136.178L287.465 137.424L285.334 125.961L291.564 124.715C296.199 123.818 298.94 125.475 299.638 129.076C300.336 132.677 298.317 135.281 293.695 136.178Z" fill="#407BFF"/>
<path d="M241.437 326.579H294.691C296.139 326.579 297.572 326.865 298.909 327.419C300.246 327.973 301.461 328.786 302.484 329.81C303.507 330.834 304.318 332.05 304.871 333.388C305.424 334.725 305.708 336.159 305.706 337.607V356.297C305.708 357.744 305.424 359.178 304.871 360.516C304.318 361.853 303.507 363.069 302.484 364.093C301.461 365.117 300.246 365.93 298.909 366.484C297.572 367.038 296.139 367.324 294.691 367.324H259.305L243.107 384.643L251.829 367.324H241.387C238.463 367.324 235.658 366.162 233.59 364.094C231.522 362.026 230.36 359.221 230.36 356.297V337.607C230.36 336.154 230.647 334.716 231.204 333.375C231.762 332.034 232.578 330.816 233.608 329.792C234.637 328.767 235.858 327.956 237.202 327.404C238.546 326.853 239.985 326.573 241.437 326.579Z" fill="#407BFF"/>
<path opacity="0.7" d="M241.437 326.579H294.691C296.139 326.579 297.572 326.865 298.909 327.419C300.246 327.973 301.461 328.786 302.484 329.81C303.507 330.834 304.318 332.05 304.871 333.388C305.424 334.725 305.708 336.159 305.706 337.607V356.297C305.708 357.744 305.424 359.178 304.871 360.516C304.318 361.853 303.507 363.069 302.484 364.093C301.461 365.117 300.246 365.93 298.909 366.484C297.572 367.038 296.139 367.324 294.691 367.324H259.305L243.107 384.643L251.829 367.324H241.387C238.463 367.324 235.658 366.162 233.59 364.094C231.522 362.026 230.36 359.221 230.36 356.297V337.607C230.36 336.154 230.647 334.716 231.204 333.375C231.762 332.034 232.578 330.816 233.608 329.792C234.637 328.767 235.858 327.956 237.202 327.404C238.546 326.853 239.985 326.573 241.437 326.579Z" fill="white"/>
<path d="M244.042 345.917C243.994 344.659 244.324 343.416 244.988 342.347C245.653 341.278 246.621 340.431 247.77 339.916C248.919 339.401 250.195 339.241 251.435 339.457C252.675 339.672 253.823 340.253 254.731 341.125C255.638 341.997 256.265 343.12 256.53 344.351C256.795 345.582 256.686 346.863 256.218 348.032C255.749 349.2 254.943 350.202 253.901 350.908C252.859 351.615 251.63 351.994 250.371 351.998C249.55 352.039 248.73 351.911 247.96 351.623C247.19 351.335 246.487 350.893 245.894 350.324C245.301 349.754 244.831 349.07 244.513 348.312C244.194 347.554 244.034 346.739 244.042 345.917ZM254.969 345.917C254.979 345 254.716 344.1 254.213 343.333C253.709 342.566 252.99 341.966 252.144 341.609C251.299 341.252 250.367 341.155 249.466 341.33C248.566 341.504 247.737 341.943 247.087 342.59C246.436 343.237 245.993 344.063 245.813 344.963C245.634 345.862 245.726 346.795 246.078 347.642C246.43 348.489 247.027 349.213 247.791 349.72C248.556 350.227 249.454 350.495 250.371 350.49C250.978 350.509 251.582 350.404 252.147 350.181C252.712 349.958 253.225 349.622 253.655 349.194C254.086 348.766 254.424 348.255 254.65 347.691C254.876 347.128 254.985 346.524 254.969 345.917Z" fill="#407BFF"/>
<path d="M258.196 347.363C258.171 346.432 258.424 345.516 258.923 344.73C259.421 343.943 260.142 343.324 260.995 342.949C261.847 342.575 262.791 342.463 263.707 342.627C264.623 342.791 265.47 343.225 266.138 343.872C266.807 344.52 267.268 345.352 267.462 346.262C267.655 347.173 267.574 348.12 267.227 348.984C266.88 349.848 266.284 350.588 265.514 351.112C264.745 351.635 263.837 351.918 262.906 351.923C262.292 351.954 261.678 351.858 261.103 351.642C260.527 351.426 260.002 351.093 259.561 350.666C259.119 350.238 258.77 349.724 258.535 349.156C258.301 348.588 258.185 347.977 258.196 347.363ZM265.909 347.363C265.935 346.948 265.877 346.532 265.736 346.141C265.596 345.75 265.377 345.392 265.092 345.088C264.808 344.785 264.465 344.544 264.083 344.378C263.702 344.213 263.29 344.128 262.875 344.128C262.459 344.128 262.048 344.213 261.667 344.378C261.285 344.544 260.942 344.785 260.657 345.088C260.373 345.392 260.154 345.75 260.013 346.141C259.873 346.532 259.814 346.948 259.841 347.363C259.814 347.778 259.873 348.193 260.013 348.585C260.154 348.976 260.373 349.334 260.657 349.637C260.942 349.94 261.285 350.182 261.667 350.347C262.048 350.512 262.459 350.598 262.875 350.598C263.29 350.598 263.702 350.512 264.083 350.347C264.465 350.182 264.808 349.94 265.092 349.637C265.377 349.334 265.596 348.976 265.736 348.585C265.877 348.193 265.935 347.778 265.909 347.363Z" fill="#407BFF"/>
<path d="M279.104 347.363C279.138 347.972 279.043 348.581 278.828 349.151C278.612 349.722 278.279 350.24 277.851 350.675C277.422 351.109 276.908 351.449 276.341 351.672C275.773 351.896 275.165 351.998 274.556 351.973C273.954 351.991 273.356 351.868 272.811 351.613C272.265 351.357 271.787 350.977 271.416 350.503V355.163H269.784V342.865H271.341V344.298C271.715 343.804 272.202 343.407 272.762 343.143C273.322 342.878 273.937 342.753 274.556 342.777C275.163 342.752 275.769 342.854 276.334 343.076C276.9 343.298 277.413 343.636 277.841 344.067C278.269 344.499 278.602 345.015 278.82 345.582C279.037 346.149 279.134 346.756 279.104 347.363ZM277.459 347.363C277.43 346.772 277.228 346.202 276.879 345.725C276.529 345.247 276.048 344.882 275.493 344.675C274.939 344.469 274.336 344.429 273.759 344.561C273.182 344.693 272.657 344.991 272.248 345.419C271.838 345.847 271.564 346.385 271.457 346.967C271.35 347.549 271.417 348.149 271.648 348.694C271.879 349.239 272.264 349.704 272.757 350.032C273.249 350.36 273.827 350.537 274.419 350.54C274.835 350.553 275.249 350.479 275.634 350.323C276.019 350.166 276.367 349.93 276.656 349.631C276.945 349.332 277.168 348.975 277.31 348.585C277.453 348.194 277.512 347.778 277.484 347.363H277.459Z" fill="#407BFF"/>
<path d="M280.25 350.914L280.923 349.668C281.869 350.27 282.967 350.59 284.088 350.59C285.596 350.59 286.219 350.141 286.219 349.344C286.219 347.325 280.537 349.082 280.537 345.494C280.537 343.886 281.982 342.79 284.275 342.79C285.42 342.772 286.55 343.056 287.552 343.612L286.854 344.858C286.078 344.374 285.177 344.127 284.262 344.148C282.83 344.148 282.132 344.671 282.132 345.394C282.132 347.512 287.839 345.78 287.839 349.282C287.839 350.901 286.343 351.948 283.951 351.948C282.641 351.988 281.35 351.627 280.25 350.914Z" fill="#407BFF"/>
<path d="M289.521 350.876C289.52 350.731 289.55 350.587 289.606 350.453C289.663 350.319 289.746 350.198 289.851 350.096C289.956 349.995 290.08 349.916 290.216 349.864C290.351 349.812 290.496 349.787 290.642 349.792C290.785 349.789 290.928 349.815 291.061 349.868C291.194 349.921 291.315 350.001 291.416 350.102C291.517 350.204 291.597 350.325 291.65 350.458C291.704 350.591 291.729 350.733 291.726 350.876C291.728 351.02 291.701 351.162 291.647 351.295C291.593 351.428 291.514 351.549 291.413 351.651C291.312 351.753 291.192 351.834 291.06 351.889C290.927 351.944 290.785 351.973 290.642 351.973C290.496 351.976 290.351 351.95 290.215 351.897C290.079 351.843 289.955 351.763 289.85 351.661C289.746 351.559 289.663 351.437 289.606 351.302C289.55 351.167 289.52 351.023 289.521 350.876ZM289.67 339.986H291.564L291.24 348.11H289.994L289.67 339.986Z" fill="#407BFF"/>
<path d="M551.978 132.353C551.978 136.415 529.762 139.904 497.939 141.436L495.385 141.561L491.946 141.698C487.174 141.885 482.214 142.022 477.106 142.134H474.813H473.567C469.642 142.196 465.63 142.221 461.556 142.221C454.179 142.221 447.015 142.122 440.15 141.947L435.166 141.785C422.643 141.374 411.28 140.664 401.71 139.742C382.933 137.923 371.084 135.269 371.084 132.266C371.084 127.793 397.997 124.03 435.016 122.784L437.919 122.684C440.503 122.609 443.123 122.547 445.781 122.497C448.984 122.435 452.248 122.397 455.55 122.372H461.568C470.888 122.372 479.884 122.522 488.345 122.821L492.357 122.958L497.578 123.182L498.936 123.257L502.412 123.432C531.731 125.151 551.978 128.478 551.978 132.353Z" fill="#263238"/>
<path opacity="0.4" d="M551.978 132.353C551.978 136.415 529.762 139.904 497.939 141.436L495.385 141.561L491.946 141.698C487.174 141.885 482.214 142.022 477.106 142.134H474.813H473.567C469.642 142.196 465.63 142.221 461.556 142.221C454.179 142.221 447.015 142.122 440.15 141.947L435.166 141.785C422.643 141.374 411.28 140.664 401.71 139.742C382.933 137.923 371.084 135.269 371.084 132.266C371.084 130.945 373.439 129.674 377.712 128.528C385.606 130.377 393.628 131.627 401.71 132.266C411.28 133.188 422.643 133.898 435.166 134.309L440.15 134.471C447.015 134.646 454.179 134.745 461.556 134.745C465.63 134.745 469.642 134.745 473.567 134.658H474.813H477.106C482.214 134.546 487.174 134.409 491.946 134.222L495.385 134.085L497.939 133.96C519.408 132.926 536.49 131.007 545.349 128.615C549.561 129.774 551.978 131.02 551.978 132.353Z" fill="white"/>
<path d="M455.413 122.46C455.322 123.944 454.764 125.362 453.818 126.509C452.784 127.755 451.899 128.702 450.89 129.736C450.292 130.347 449.644 130.982 449.083 131.531C448.685 131.942 448.273 132.328 447.837 132.702C445.727 134.651 443.497 136.465 441.159 138.134L440.748 138.421L439.663 139.144C438.171 140.142 436.614 141.041 435.003 141.835C434.405 142.134 433.757 142.421 433.159 142.695C431.667 143.323 430.13 143.839 428.562 144.24C427.166 144.614 425.833 144.938 424.512 145.212C422.656 145.623 420.774 145.997 418.992 146.333C415.591 146.993 412.202 147.579 408.788 148.077C405.884 148.514 402.981 148.925 400.066 149.323C397.723 149.61 395.381 149.859 393.013 150.059C392.753 150.09 392.489 150.09 392.228 150.059C391.439 149.951 390.711 149.577 390.162 149C389.614 148.422 389.279 147.675 389.213 146.881C389.2 146.724 389.2 146.565 389.213 146.408C389.245 145.718 389.481 145.054 389.891 144.499C390.302 143.945 390.868 143.525 391.518 143.293L391.817 143.193C395.044 142.034 398.284 140.938 401.536 139.879L406.458 138.284C411.442 136.664 416.426 135.144 421.273 133.537C422.519 133.138 423.677 132.727 424.786 132.291C425.742 131.974 426.661 131.556 427.527 131.045C428.088 130.721 428.649 130.359 429.222 129.973C430.478 129.129 431.689 128.218 432.848 127.244C434.493 125.886 436.137 124.391 437.745 122.834C440.328 122.759 442.949 122.696 445.607 122.647C448.847 122.522 452.111 122.485 455.413 122.46Z" fill="#FFB573"/>
<path d="M455.563 127.494C455.475 127.755 455.376 128.004 455.276 128.254C455.176 128.503 455.064 128.752 454.94 129.001C454.83 129.246 454.705 129.483 454.566 129.711L454.155 130.422V130.484C453.872 130.924 453.573 131.34 453.257 131.73C452.921 132.166 452.572 132.59 452.198 132.976L451.849 133.362C451.307 133.942 450.733 134.491 450.13 135.007C449.931 135.194 449.719 135.368 449.507 135.53C449.434 135.604 449.355 135.671 449.27 135.73C447.402 137.22 445.4 138.534 443.289 139.655L442.529 140.041L441.782 140.415L441.495 140.539L440.586 139.742L439.813 139.044L438.069 137.499L429.347 129.811L428.686 129.225C428.686 129.225 431.353 126.248 434.916 122.771L437.819 122.672C440.403 122.597 443.024 122.534 445.682 122.485C448.884 122.422 452.148 122.385 455.45 122.36H456.173C456.352 124.095 456.143 125.849 455.563 127.494Z" fill="#407BFF"/>
<path opacity="0.7" d="M455.575 127.494C455.488 127.752 455.388 128.005 455.276 128.254C455.176 128.503 455.064 128.752 454.94 129.001C454.83 129.246 454.705 129.483 454.566 129.711L454.155 130.422V130.484C453.872 130.924 453.573 131.34 453.257 131.73C452.921 132.166 452.572 132.59 452.198 132.976L451.849 133.362C451.307 133.942 450.733 134.491 450.13 135.007C449.931 135.194 449.719 135.368 449.507 135.53C449.434 135.604 449.355 135.671 449.27 135.73C447.402 137.22 445.4 138.534 443.289 139.655L442.529 140.041L441.782 140.415L441.495 140.539L440.586 139.742L439.813 139.044L438.069 137.499L429.347 129.811L428.686 129.225C428.686 129.225 431.353 126.248 434.916 122.771L437.819 122.672C440.403 122.597 443.024 122.534 445.682 122.485C448.884 122.422 452.148 122.385 455.45 122.36H456.186C456.365 124.095 456.156 125.849 455.575 127.494Z" fill="white"/>
<path opacity="0.1" d="M449.183 135.817C446.784 137.734 444.16 139.354 441.371 140.639L437.944 137.611C439.744 132.266 442.986 127.522 447.314 123.905C448.871 126.796 449.37 132.839 449.183 135.817Z" fill="black"/>
<path d="M392.839 143.255L381.276 141.486L381.363 151.728C381.363 151.728 389.288 154.108 393.487 148.725L392.839 143.255Z" fill="#EBB376"/>
<path d="M373.389 144.252L375.295 151.865L381.351 151.728L381.264 141.486L373.389 144.252Z" fill="#EBB376"/>
<path d="M497.441 123.245C497.341 123.506 497.229 123.768 497.129 124.042C496.83 124.802 496.543 125.575 496.269 126.347C496.095 126.821 495.933 127.294 495.771 127.78C495.609 128.266 495.435 128.752 495.285 129.238C494.824 130.683 494.375 132.141 493.939 133.624C493.924 133.704 493.904 133.783 493.877 133.861C493.404 135.505 492.98 137.187 492.569 138.845V139.044C492.357 139.916 492.133 140.788 491.933 141.673C491.834 142.072 491.746 142.458 491.659 142.857C491.323 144.389 490.999 145.934 490.7 147.467C490.588 148.04 490.475 148.613 490.376 149.174C490.276 149.735 490.139 150.42 490.039 150.956C490.039 151.08 490.039 151.205 489.977 151.33C489.915 151.653 489.852 151.977 489.803 152.301C489.641 153.211 489.491 154.108 489.342 154.993C489.342 155.13 489.342 155.254 489.279 155.392L489.13 156.326C488.831 158.145 488.569 159.927 488.332 161.659C488.326 161.758 488.326 161.858 488.332 161.958C488.071 163.864 487.846 165.696 487.647 167.478C487.56 168.213 487.473 168.936 487.398 169.646C487.286 170.643 487.186 171.602 487.099 172.536C487.024 173.222 486.962 173.895 486.899 174.543C486.837 175.19 486.787 175.789 486.737 176.324C486.688 176.86 486.638 177.471 486.588 178.006C486.463 179.527 486.364 180.897 486.276 182.081C486.276 182.604 486.214 183.078 486.177 183.526C486.077 185.183 486.027 186.342 486.002 186.865C486.002 187.077 486.002 187.189 486.002 187.189L463.911 185.158H463.587L459.849 184.81L454.229 184.286L447.314 183.713L445.682 183.564L437.421 182.804C437.421 182.019 437.346 181.258 437.334 180.486C437.334 180.274 437.334 180.062 437.334 179.85C437.097 173.047 437.221 166.805 437.583 161.16C437.782 158.203 438.04 155.392 438.355 152.725C438.804 148.887 439.365 145.361 440 142.109C440.137 141.374 440.287 140.651 440.436 139.954C440.536 139.468 440.635 139.007 440.748 138.546C441.584 134.806 442.615 131.113 443.838 127.481C444.436 125.737 445.084 124.154 445.619 122.721C448.822 122.659 452.086 122.622 455.388 122.597H461.406C470.726 122.597 479.722 122.746 488.183 123.045L492.195 123.182L497.441 123.245Z" fill="#407BFF"/>
<path opacity="0.7" d="M497.441 123.245C497.341 123.506 497.229 123.768 497.129 124.042C496.83 124.802 496.543 125.575 496.269 126.347C496.095 126.821 495.933 127.294 495.771 127.78C495.609 128.266 495.435 128.752 495.285 129.238V129.325C494.824 130.746 494.4 132.166 493.977 133.624C493.962 133.704 493.941 133.783 493.914 133.861C493.316 135.979 492.756 138.134 492.232 140.302C492.12 140.763 492.02 141.237 491.921 141.698C491.821 142.159 491.734 142.483 491.647 142.882C491.31 144.414 490.986 145.959 490.687 147.492C490.563 148.065 490.451 148.638 490.351 149.211C490.239 149.797 490.127 150.395 490.027 150.981C490.027 151.105 490.027 151.242 489.952 151.367C489.89 151.691 489.827 152.015 489.778 152.339C489.616 153.248 489.466 154.145 489.317 155.03C489.317 155.167 489.317 155.292 489.254 155.429L489.105 156.363C488.818 158.183 488.544 159.964 488.307 161.696C488.301 161.796 488.301 161.896 488.307 161.995C488.046 163.902 487.821 165.733 487.622 167.515C487.535 168.25 487.448 168.973 487.373 169.683C487.261 170.68 487.161 171.639 487.074 172.574C486.999 173.259 486.937 173.932 486.874 174.58C486.812 175.228 486.762 175.826 486.713 176.362C486.663 176.897 486.613 177.508 486.563 178.044C486.438 179.564 486.339 180.934 486.251 182.118C486.251 182.642 486.189 183.115 486.152 183.564C486.052 185.221 486.002 186.38 485.977 186.903C485.977 187.115 485.977 187.227 485.977 187.227L463.886 185.196H463.562L459.824 184.847L454.204 184.324L447.314 183.713L445.682 183.564L437.421 182.804C437.421 182.019 437.346 181.258 437.334 180.486C437.334 180.274 437.334 180.062 437.334 179.85C437.097 173.047 437.221 166.805 437.583 161.16C437.782 158.203 438.04 155.392 438.355 152.725C438.804 148.887 439.365 145.361 440 142.109C440.137 141.374 440.287 140.651 440.436 139.954C440.536 139.468 440.635 139.007 440.748 138.546C441.584 134.806 442.615 131.113 443.838 127.481C444.436 125.737 445.084 124.154 445.619 122.721C448.822 122.659 452.086 122.622 455.388 122.597H461.406C470.726 122.597 479.722 122.746 488.183 123.045L492.195 123.182L497.441 123.245Z" fill="white"/>
<path d="M378.161 288.626C378.161 288.626 393.736 282.147 394.272 275.73C394.277 275.577 394.315 275.426 394.382 275.287C394.449 275.149 394.545 275.026 394.662 274.927C394.779 274.827 394.916 274.753 395.063 274.709C395.21 274.665 395.365 274.652 395.518 274.671L407.405 275.394C407.685 275.417 407.954 275.515 408.184 275.677C408.414 275.839 408.596 276.06 408.713 276.316L413.473 287.318L410.171 287.767L408.788 286.259L407.542 288.128C389.649 290.62 381.899 291.43 378.211 290.807C377.538 289.299 378.161 288.626 378.161 288.626Z" fill="black"/>
<path d="M451.164 223.921C450.479 223.772 450.105 223.66 450.105 223.66L394.035 216.657L410.707 276.029L393.736 277.649C393.736 277.649 355.01 202.951 370.835 192.173C386.659 181.395 435.726 193.295 435.726 193.295L437.658 178.505L486.438 182.143C494.276 230.899 457.893 225.329 451.164 223.921Z" fill="#263238"/>
<path d="M435.003 395.446C435.003 395.446 451.8 393.839 454.179 387.808C454.229 387.667 454.307 387.537 454.408 387.427C454.509 387.317 454.631 387.229 454.768 387.167C454.904 387.105 455.051 387.072 455.2 387.068C455.35 387.065 455.498 387.092 455.637 387.147L466.851 391.309C467.111 391.412 467.338 391.581 467.511 391.8C467.684 392.019 467.796 392.279 467.836 392.555L469.181 404.467L465.892 403.931L464.995 402.087L463.3 403.52C445.482 400.642 437.807 399.209 434.468 397.527C434.156 395.882 435.003 395.446 435.003 395.446Z" fill="black"/>
<path d="M486.924 199.811C486.85 200.11 484.819 209.455 482.165 222.85C482.015 223.61 481.866 224.407 481.704 225.192C480.458 231.559 479.087 238.724 477.741 246.188C476.097 255.271 474.464 264.878 473.094 273.936C471.235 285.284 470.025 296.728 469.468 308.213C468.82 337.083 467.611 394.05 467.611 394.05L452.074 391.558C452.074 391.558 443.489 330.803 443.588 301.385C443.663 282.695 448.298 244.181 451.463 220.233C453.058 207.948 454.279 199.475 454.279 199.475L471.885 199.637L486.924 199.811Z" fill="#263238"/>
<path d="M485.703 186.89L486.737 186.978L486.688 183.601L485.778 183.539L485.703 186.89Z" fill="#263238"/>
<path d="M447.351 183.912L468.16 185.532L468.259 182.181L447.526 180.586L447.351 183.912Z" fill="#263238"/>
<path d="M445.918 180.461L437.122 179.776L436.81 183.09L445.719 183.788L445.918 180.461Z" fill="#263238"/>
<path d="M484.171 183.414L469.854 182.305L469.792 185.657L484.059 186.766L484.171 183.414Z" fill="#263238"/>
<g opacity="0.2">
<path opacity="0.2" d="M485.703 186.89L486.737 186.978L486.687 183.601L485.778 183.539L485.703 186.89Z" fill="white"/>
<path opacity="0.2" d="M447.351 183.912L468.159 185.532L468.259 182.18L447.526 180.586L447.351 183.912Z" fill="white"/>
<path opacity="0.2" d="M445.918 180.461L437.122 179.776L436.81 183.09L445.719 183.788L445.918 180.461Z" fill="white"/>
<path opacity="0.2" d="M484.171 183.414L469.854 182.305L469.792 185.657L484.058 186.766L484.171 183.414Z" fill="white"/>
</g>
<path d="M459.575 185.308H459.475L454.291 184.822C454.02 184.8 453.769 184.673 453.59 184.468C453.411 184.263 453.318 183.997 453.332 183.726L453.407 181.695C453.411 181.552 453.446 181.411 453.508 181.282C453.57 181.154 453.659 181.039 453.768 180.947C453.873 180.85 453.997 180.776 454.132 180.731C454.268 180.686 454.411 180.67 454.553 180.685L459.712 181.084C459.983 181.103 460.236 181.227 460.417 181.429C460.598 181.632 460.694 181.897 460.683 182.168V184.286C460.681 184.43 460.649 184.572 460.589 184.703C460.529 184.834 460.442 184.951 460.335 185.046C460.124 185.228 459.852 185.321 459.575 185.308ZM454.466 181.57C454.434 181.559 454.399 181.559 454.366 181.57C454.358 181.588 454.354 181.607 454.354 181.626C454.354 181.645 454.358 181.664 454.366 181.682L454.279 183.713C454.277 183.734 454.28 183.755 454.287 183.774C454.293 183.794 454.304 183.812 454.318 183.827C454.332 183.842 454.349 183.854 454.368 183.863C454.387 183.871 454.408 183.875 454.429 183.875L459.612 184.361C459.632 184.369 459.653 184.373 459.674 184.373C459.696 184.373 459.717 184.369 459.737 184.361C459.751 184.325 459.751 184.285 459.737 184.249V182.131C459.737 182.09 459.721 182.05 459.694 182.02C459.666 181.99 459.628 181.972 459.587 181.969L454.429 181.57H454.466Z" fill="white"/>
<path d="M459.5 183.588L457.918 183.439C457.797 183.426 457.687 183.367 457.61 183.274C457.533 183.181 457.496 183.061 457.506 182.941C457.519 182.824 457.577 182.716 457.668 182.642C457.759 182.567 457.875 182.531 457.992 182.542L459.575 182.691C459.694 182.691 459.808 182.739 459.892 182.823C459.976 182.907 460.023 183.021 460.023 183.14C460.023 183.259 459.976 183.373 459.892 183.457C459.808 183.541 459.694 183.588 459.575 183.588H459.5Z" fill="white"/>
<path opacity="0.1" d="M493.877 133.873C493.279 135.991 492.718 138.147 492.195 140.315C491.996 141.175 491.796 142.034 491.609 142.894C490.675 147.118 489.877 151.354 489.217 155.441L489.068 156.376C480.507 159.129 471.623 157.236 471.91 148.987C472.321 137.935 481.741 132.789 481.741 132.789C485.94 130.484 490.338 131.381 493.877 133.873Z" fill="black"/>
<path d="M410.133 450.37H421.659L384.179 154.195H372.654L410.133 450.37Z" fill="#263238"/>
<path opacity="0.4" d="M410.133 450.37H421.659L384.179 154.195H372.654L410.133 450.37Z" fill="white"/>
<path d="M386.036 198.092H422.681C423.137 198.067 423.577 197.914 423.95 197.649C424.323 197.384 424.613 197.02 424.786 196.597L427.116 191.613H381.6L383.93 196.597C384.104 197.02 384.394 197.384 384.766 197.649C385.139 197.914 385.579 198.067 386.036 198.092Z" fill="#263238"/>
<path opacity="0.4" d="M386.036 198.092H422.681C423.137 198.067 423.577 197.914 423.95 197.649C424.323 197.384 424.613 197.02 424.786 196.597L427.116 191.613H381.6L383.93 196.597C384.104 197.02 384.394 197.384 384.766 197.649C385.139 197.914 385.579 198.067 386.036 198.092Z" fill="white"/>
<path d="M382.21 194.005H426.493C427.808 194.005 428.873 192.94 428.873 191.625V191.089C428.873 189.775 427.808 188.71 426.493 188.71H382.21C380.896 188.71 379.831 189.775 379.831 191.089V191.625C379.831 192.94 380.896 194.005 382.21 194.005Z" fill="#263238"/>
<path opacity="0.1" d="M382.21 194.005H426.493C427.808 194.005 428.873 192.94 428.873 191.625V191.089C428.873 189.775 427.808 188.71 426.493 188.71H382.21C380.896 188.71 379.831 189.775 379.831 191.089V191.625C379.831 192.94 380.896 194.005 382.21 194.005Z" fill="white"/>
<path d="M392.727 240.431H429.359C429.818 240.408 430.26 240.254 430.634 239.987C431.007 239.719 431.296 239.35 431.465 238.923L433.795 234.002H388.291L390.609 238.923C390.78 239.351 391.071 239.721 391.446 239.988C391.822 240.255 392.266 240.409 392.727 240.431Z" fill="#263238"/>
<path opacity="0.4" d="M392.727 240.431H429.359C429.818 240.408 430.26 240.254 430.634 239.987C431.007 239.719 431.296 239.35 431.465 238.923L433.795 234.002H388.291L390.609 238.923C390.78 239.351 391.071 239.721 391.446 239.988C391.822 240.255 392.266 240.409 392.727 240.431Z" fill="white"/>
<path d="M388.902 236.344H433.184C434.499 236.344 435.564 235.279 435.564 233.964V233.428C435.564 232.114 434.499 231.049 433.184 231.049H388.902C387.587 231.049 386.522 232.114 386.522 233.428V233.964C386.522 235.279 387.587 236.344 388.902 236.344Z" fill="#263238"/>
<path opacity="0.1" d="M388.902 236.344H433.184C434.499 236.344 435.564 235.279 435.564 233.964V233.428C435.564 232.114 434.499 231.049 433.184 231.049H388.902C387.587 231.049 386.522 232.114 386.522 233.428V233.964C386.522 235.279 387.587 236.344 388.902 236.344Z" fill="white"/>
<path d="M399.405 296.464H436.1C436.559 296.444 437.004 296.293 437.379 296.028C437.755 295.763 438.046 295.395 438.218 294.968L440.536 289.984H394.982L397.312 294.968C397.481 295.392 397.768 295.758 398.139 296.023C398.51 296.288 398.95 296.441 399.405 296.464Z" fill="#263238"/>
<path opacity="0.4" d="M399.405 296.464H436.1C436.559 296.444 437.004 296.293 437.379 296.028C437.755 295.763 438.046 295.395 438.218 294.968L440.536 289.984H394.982L397.312 294.968C397.481 295.392 397.768 295.758 398.139 296.023C398.51 296.288 398.95 296.441 399.405 296.464Z" fill="white"/>
<path d="M395.58 292.389H439.863C441.177 292.389 442.243 291.324 442.243 290.009V289.474C442.243 288.159 441.177 287.094 439.863 287.094H395.58C394.266 287.094 393.2 288.159 393.2 289.474V290.009C393.2 291.324 394.266 292.389 395.58 292.389Z" fill="#263238"/>
<path opacity="0.1" d="M395.58 292.389H439.863C441.177 292.389 442.243 291.324 442.243 290.009V289.474C442.243 288.159 441.177 287.094 439.863 287.094H395.58C394.266 287.094 393.2 288.159 393.2 289.474V290.009C393.2 291.324 394.266 292.389 395.58 292.389Z" fill="white"/>
<path d="M406.084 352.509H442.729C443.186 352.487 443.628 352.335 444.001 352.07C444.374 351.805 444.663 351.438 444.835 351.013L447.165 346.029H401.648L403.978 351.013C404.149 351.438 404.439 351.805 404.812 352.07C405.185 352.335 405.627 352.487 406.084 352.509Z" fill="#263238"/>
<path opacity="0.4" d="M406.084 352.509H442.729C443.186 352.487 443.628 352.335 444.001 352.07C444.374 351.805 444.663 351.438 444.835 351.013L447.165 346.029H401.648L403.978 351.013C404.149 351.438 404.439 351.805 404.812 352.07C405.185 352.335 405.627 352.487 406.084 352.509Z" fill="white"/>
<path d="M402.259 348.434H446.542C447.856 348.434 448.921 347.369 448.921 346.054V345.519C448.921 344.204 447.856 343.139 446.542 343.139H402.259C400.944 343.139 399.879 344.204 399.879 345.519V346.054C399.879 347.369 400.944 348.434 402.259 348.434Z" fill="#263238"/>
<path opacity="0.1" d="M402.259 348.434H446.542C447.856 348.434 448.921 347.369 448.921 346.054V345.519C448.921 344.204 447.856 343.139 446.542 343.139H402.259C400.944 343.139 399.879 344.204 399.879 345.519V346.054C399.879 347.369 400.944 348.434 402.259 348.434Z" fill="white"/>
<path d="M412.775 408.554H449.407C449.865 408.534 450.307 408.382 450.68 408.117C451.054 407.851 451.343 407.484 451.513 407.059L453.843 402.075H408.327L410.657 407.059C410.829 407.485 411.12 407.853 411.496 408.118C411.871 408.383 412.315 408.535 412.775 408.554Z" fill="#263238"/>
<path opacity="0.4" d="M412.775 408.554H449.407C449.865 408.534 450.307 408.382 450.68 408.117C451.054 407.851 451.343 407.484 451.513 407.059L453.843 402.075H408.327L410.657 407.059C410.829 407.485 411.12 407.853 411.496 408.118C411.871 408.383 412.315 408.535 412.775 408.554Z" fill="white"/>
<path d="M408.937 404.479H453.22C454.534 404.479 455.6 403.414 455.6 402.099V401.564C455.6 400.249 454.534 399.184 453.22 399.184H408.937C407.623 399.184 406.557 400.249 406.557 401.564V402.099C406.557 403.414 407.623 404.479 408.937 404.479Z" fill="#263238"/>
<path opacity="0.1" d="M408.937 404.479H453.22C454.534 404.479 455.6 403.414 455.6 402.099V401.564C455.6 400.249 454.534 399.184 453.22 399.184H408.937C407.623 399.184 406.557 400.249 406.557 401.564V402.099C406.557 403.414 407.623 404.479 408.937 404.479Z" fill="white"/>
<path d="M454.628 450.37H466.153L428.674 154.195H417.148L454.628 450.37Z" fill="#263238"/>
<path opacity="0.7" d="M454.628 450.37H466.153L428.674 154.195H417.148L454.628 450.37Z" fill="white"/>
<path d="M333.629 450.37H322.103L359.571 154.195H371.096L333.629 450.37Z" fill="#263238"/>
<path opacity="0.4" d="M333.629 450.37H322.103L359.571 154.195H371.096L333.629 450.37Z" fill="white"/>
<path d="M402.209 198.092H365.576C365.118 198.07 364.675 197.917 364.3 197.652C363.925 197.388 363.633 197.021 363.458 196.597L361.141 191.613H406.645L404.315 196.597C404.143 197.021 403.854 197.388 403.481 197.653C403.107 197.918 402.666 198.07 402.209 198.092Z" fill="#263238"/>
<path opacity="0.5" d="M402.209 198.092H365.576C365.118 198.07 364.675 197.917 364.3 197.652C363.925 197.388 363.633 197.021 363.458 196.597L361.141 191.613H406.645L404.315 196.597C404.143 197.021 403.854 197.388 403.481 197.653C403.107 197.918 402.666 198.07 402.209 198.092Z" fill="white"/>
<path d="M406.034 188.722H361.751C360.437 188.722 359.371 189.787 359.371 191.102V191.638C359.371 192.952 360.437 194.017 361.751 194.017H406.034C407.348 194.017 408.414 192.952 408.414 191.638V191.102C408.414 189.787 407.348 188.722 406.034 188.722Z" fill="#263238"/>
<path opacity="0.2" d="M406.034 188.722H361.751C360.437 188.722 359.371 189.787 359.371 191.102V191.638C359.371 192.952 360.437 194.017 361.751 194.017H406.034C407.348 194.017 408.414 192.952 408.414 191.638V191.102C408.414 189.787 407.348 188.722 406.034 188.722Z" fill="white"/>
<path d="M395.53 240.431H358.848C358.39 240.407 357.948 240.252 357.575 239.985C357.202 239.718 356.913 239.349 356.742 238.923L354.412 234.002H399.966L397.636 238.923C397.465 239.349 397.177 239.718 396.803 239.985C396.43 240.252 395.988 240.407 395.53 240.431Z" fill="#263238"/>
<path opacity="0.5" d="M395.53 240.431H358.848C358.39 240.407 357.948 240.252 357.575 239.985C357.202 239.718 356.913 239.349 356.742 238.923L354.412 234.002H399.966L397.636 238.923C397.465 239.349 397.177 239.718 396.803 239.985C396.43 240.252 395.988 240.407 395.53 240.431Z" fill="white"/>
<path d="M399.355 231.049H355.073C353.758 231.049 352.693 232.114 352.693 233.428V233.964C352.693 235.279 353.758 236.344 355.073 236.344H399.355C400.67 236.344 401.735 235.279 401.735 233.964V233.428C401.735 232.114 400.67 231.049 399.355 231.049Z" fill="#263238"/>
<path opacity="0.2" d="M399.355 231.049H355.073C353.758 231.049 352.693 232.114 352.693 233.428V233.964C352.693 235.279 353.758 236.344 355.073 236.344H399.355C400.67 236.344 401.735 235.279 401.735 233.964V233.428C401.735 232.114 400.67 231.049 399.355 231.049Z" fill="white"/>
<path d="M388.839 296.464H352.207C351.749 296.443 351.307 296.292 350.933 296.027C350.56 295.761 350.271 295.394 350.101 294.968L347.771 289.984H393.275L390.957 294.968C390.785 295.395 390.494 295.763 390.118 296.028C389.743 296.293 389.299 296.444 388.839 296.464Z" fill="#263238"/>
<path opacity="0.5" d="M388.839 296.464H352.207C351.749 296.443 351.307 296.292 350.933 296.027C350.56 295.761 350.271 295.394 350.101 294.968L347.771 289.984H393.275L390.957 294.968C390.785 295.395 390.494 295.763 390.118 296.028C389.743 296.293 389.299 296.444 388.839 296.464Z" fill="white"/>
<path d="M392.664 287.094H348.382C347.067 287.094 346.002 288.159 346.002 289.474V290.009C346.002 291.324 347.067 292.389 348.382 292.389H392.664C393.979 292.389 395.044 291.324 395.044 290.009V289.474C395.044 288.159 393.979 287.094 392.664 287.094Z" fill="#263238"/>
<path opacity="0.2" d="M392.664 287.094H348.382C347.067 287.094 346.002 288.159 346.002 289.474V290.009C346.002 291.324 347.067 292.389 348.382 292.389H392.664C393.979 292.389 395.044 291.324 395.044 290.009V289.474C395.044 288.159 393.979 287.094 392.664 287.094Z" fill="white"/>
<path d="M382.161 352.509H345.528C345.069 352.488 344.626 352.336 344.25 352.071C343.875 351.806 343.583 351.439 343.41 351.013L341.093 346.029H386.596L384.266 351.013C384.097 351.439 383.808 351.806 383.434 352.072C383.06 352.337 382.618 352.489 382.161 352.509Z" fill="#263238"/>
<path opacity="0.5" d="M382.161 352.509H345.528C345.069 352.488 344.626 352.336 344.25 352.071C343.875 351.806 343.583 351.439 343.41 351.013L341.093 346.029H386.596L384.266 351.013C384.097 351.439 383.808 351.806 383.434 352.072C383.06 352.337 382.618 352.489 382.161 352.509Z" fill="white"/>
<path d="M385.986 343.139H341.703C340.389 343.139 339.323 344.204 339.323 345.519V346.054C339.323 347.369 340.389 348.434 341.703 348.434H385.986C387.3 348.434 388.366 347.369 388.366 346.054V345.519C388.366 344.204 387.3 343.139 385.986 343.139Z" fill="#263238"/>
<path opacity="0.2" d="M385.986 343.139H341.703C340.389 343.139 339.323 344.204 339.323 345.519V346.054C339.323 347.369 340.389 348.434 341.703 348.434H385.986C387.3 348.434 388.366 347.369 388.366 346.054V345.519C388.366 344.204 387.3 343.139 385.986 343.139Z" fill="white"/>
<path d="M375.482 408.554H338.837C338.38 408.532 337.939 408.38 337.565 408.115C337.192 407.85 336.903 407.483 336.732 407.059L334.401 402.075H379.918L377.588 407.059C377.418 407.484 377.129 407.851 376.755 408.117C376.382 408.382 375.94 408.534 375.482 408.554Z" fill="#263238"/>
<path opacity="0.5" d="M375.482 408.554H338.837C338.38 408.532 337.939 408.38 337.565 408.115C337.192 407.85 336.903 407.483 336.732 407.059L334.401 402.075H379.918L377.588 407.059C377.418 407.484 377.129 407.851 376.755 408.117C376.382 408.382 375.94 408.534 375.482 408.554Z" fill="white"/>
<path d="M379.307 399.184H335.024C333.71 399.184 332.645 400.249 332.645 401.564V402.099C332.645 403.414 333.71 404.479 335.024 404.479H379.307C380.622 404.479 381.687 403.414 381.687 402.099V401.564C381.687 400.249 380.622 399.184 379.307 399.184Z" fill="#263238"/>
<path opacity="0.2" d="M379.307 399.184H335.024C333.71 399.184 332.645 400.249 332.645 401.564V402.099C332.645 403.414 333.71 404.479 335.024 404.479H379.307C380.622 404.479 381.687 403.414 381.687 402.099V401.564C381.687 400.249 380.622 399.184 379.307 399.184Z" fill="white"/>
<path d="M378.111 450.37H366.586L404.065 154.195H415.591L378.111 450.37Z" fill="#263238"/>
<path opacity="0.7" d="M378.111 450.37H366.586L404.065 154.195H415.591L378.111 450.37Z" fill="white"/>
<path d="M430.518 155.703H357.477C357.021 155.678 356.581 155.525 356.208 155.26C355.835 154.996 355.545 154.631 355.372 154.208L353.042 149.224H434.954L432.636 154.208C432.454 154.627 432.16 154.989 431.787 155.253C431.413 155.516 430.974 155.672 430.518 155.703Z" fill="#263238"/>
<path opacity="0.5" d="M430.518 155.703H357.477C357.021 155.678 356.581 155.525 356.208 155.26C355.835 154.996 355.545 154.631 355.372 154.208L353.042 149.224H434.954L432.636 154.208C432.454 154.627 432.16 154.989 431.787 155.253C431.413 155.516 430.974 155.672 430.518 155.703Z" fill="white"/>
<path d="M434.343 146.333H353.665C352.35 146.333 351.285 147.399 351.285 148.713V149.249C351.285 150.563 352.35 151.629 353.665 151.629H434.343C435.658 151.629 436.723 150.563 436.723 149.249V148.713C436.723 147.399 435.658 146.333 434.343 146.333Z" fill="#263238"/>
<path opacity="0.2" d="M434.343 146.333H353.665C352.35 146.333 351.285 147.399 351.285 148.713V149.249C351.285 150.563 352.35 151.629 353.665 151.629H434.343C435.658 151.629 436.723 150.563 436.723 149.249V148.713C436.723 147.399 435.658 146.333 434.343 146.333Z" fill="white"/>
<path d="M435.627 154.469L426.045 147.716L421.559 156.924C421.559 156.924 427.59 162.581 433.745 159.64L435.627 154.469Z" fill="#EBB376"/>
<path d="M417.771 146.682L416.077 154.345L421.559 156.924L426.045 147.716L417.771 146.682Z" fill="#EBB376"/>
<path d="M501.129 133.163C499.247 136.066 497.328 138.845 495.322 141.561C493.815 143.567 492.27 145.548 490.65 147.492C490.164 148.09 489.665 148.676 489.167 149.261C488.183 150.395 487.186 151.529 486.139 152.65C484.893 154.046 483.485 155.416 482.027 156.762L481.193 157.51C480.105 158.516 478.961 159.46 477.766 160.338C475.989 161.67 474.04 162.755 471.972 163.565C471.36 163.803 470.731 163.995 470.091 164.138C469.48 164.288 468.957 164.363 468.396 164.462C467.409 164.597 466.415 164.68 465.418 164.712C463.537 164.774 461.78 164.712 460.048 164.624C456.609 164.437 453.295 163.976 450.018 163.49C445.831 162.83 441.719 162.008 437.645 160.998C436.137 160.65 434.642 160.263 433.147 159.865L430.767 159.204C430.008 158.982 429.348 158.508 428.895 157.86C428.442 157.212 428.223 156.429 428.275 155.641C428.292 155.388 428.334 155.138 428.4 154.893C428.578 154.246 428.942 153.665 429.447 153.222C429.952 152.779 430.575 152.494 431.241 152.401C431.452 152.376 431.665 152.376 431.876 152.401H431.938H432.81C434.692 152.463 436.548 152.538 438.455 152.588C442.654 152.738 446.84 152.85 450.915 152.912C454.042 152.912 457.145 152.912 460.148 152.812C461.643 152.75 463.101 152.625 464.421 152.438C465.411 152.369 466.38 152.128 467.287 151.728C468.154 151.231 468.964 150.642 469.705 149.971C470.452 149.323 471.237 148.601 472.01 147.816C472.234 147.604 472.446 147.38 472.658 147.155C473.094 146.707 473.517 146.233 473.904 145.76C474.975 144.589 476.009 143.368 477.043 142.109C477.504 141.536 477.978 140.963 478.439 140.377C480.682 137.549 482.912 134.571 485.068 131.568C486.538 129.537 487.983 127.481 489.379 125.463L489.454 125.338C490.148 124.323 491.104 123.513 492.22 122.995L497.44 123.22L498.799 123.295C498.941 123.373 499.079 123.46 499.21 123.556C500.717 124.593 501.761 126.176 502.119 127.97C502.477 129.764 502.122 131.627 501.129 133.163Z" fill="#FFB573"/>
<path d="M497.877 141.436C495.523 144.835 492.884 148.028 489.99 150.981C489.217 151.778 488.395 152.6 487.498 153.473L486.102 152.688L473.879 145.81L472.745 145.174C472.745 145.174 473.542 143.928 474.726 142.196C476.209 139.954 478.315 136.751 480.271 133.736C481.791 131.369 483.211 129.113 484.146 127.506C485.184 125.725 486.555 124.16 488.183 122.896L492.195 123.033L497.416 123.257L498.774 123.332L502.25 123.506C503.857 127.219 503.509 133.113 497.877 141.436Z" fill="#407BFF"/>
<path opacity="0.7" d="M497.877 141.436C495.523 144.835 492.884 148.028 489.99 150.981C489.217 151.778 488.395 152.6 487.498 153.473L486.102 152.688L473.879 145.81L472.745 145.174C472.745 145.174 473.542 143.928 474.726 142.196C476.209 139.954 478.315 136.751 480.271 133.736C481.791 131.369 483.211 129.113 484.146 127.506C485.184 125.725 486.555 124.16 488.183 122.896L492.195 123.033L497.416 123.257L498.774 123.332L502.25 123.506C503.857 127.219 503.509 133.113 497.877 141.436Z" fill="white"/>
<path d="M315.662 450.158C315.668 450.228 315.668 450.299 315.662 450.37C315.667 450.403 315.667 450.436 315.662 450.469C315.646 450.533 315.626 450.596 315.599 450.656C315.563 450.74 315.517 450.82 315.462 450.893C315.408 450.982 315.346 451.065 315.275 451.142C314.687 451.715 313.993 452.167 313.232 452.475L312.621 452.737C312.023 452.986 311.375 453.223 310.59 453.46C310.117 453.609 309.619 453.746 309.083 453.896C300.361 456.251 283.602 458.145 262.532 459.191L260.04 459.316L255.953 459.49L251.754 459.64L248.851 459.739C246.546 459.802 244.216 459.864 241.849 459.901H240.989H239.382H237.824C235.644 459.901 233.438 459.901 231.22 459.976H225.202C217.925 459.976 210.836 459.889 204.02 459.702L201.005 459.602C200.133 459.602 199.26 459.602 198.401 459.528L194.388 459.391L189.168 459.166L187.81 459.092L184.333 458.917C178.614 458.593 173.244 458.219 168.31 457.771C156.498 456.724 147.128 455.366 141.334 453.796L140.835 453.659L140.287 453.497C139.353 453.223 138.543 452.936 137.795 452.662C137.533 452.55 137.284 452.45 137.06 452.338C136.688 452.164 136.326 451.969 135.976 451.753C135.857 451.684 135.744 451.605 135.64 451.516L135.365 451.304L135.104 451.042C135.034 450.97 134.971 450.89 134.917 450.806C134.825 450.673 134.758 450.526 134.718 450.37V450.232C134.711 450.175 134.711 450.116 134.718 450.058C134.718 445.996 156.934 442.507 188.757 440.975L191.311 440.85L194.75 440.713L200.033 440.526L202.886 440.439L209.59 440.277H209.951H211.882H213.191C215.159 440.277 217.14 440.277 219.146 440.215H219.745C221.551 440.215 223.37 440.215 225.202 440.215C232.578 440.215 239.743 440.314 246.608 440.489L251.592 440.651L253.711 440.726H253.922L256.24 440.813L257.76 440.875L261.697 441.049L265.435 441.236C272.562 441.623 279.141 442.109 285.072 442.682C303.812 444.538 315.662 447.192 315.662 450.158Z" fill="#263238"/>
<path opacity="0.4" d="M134.693 450.158C134.693 446.096 156.909 442.607 188.732 441.074L191.286 440.95L194.725 440.813C199.497 440.626 204.456 440.489 209.565 440.377H211.857H213.166C217.091 440.314 221.103 440.289 225.177 440.289C232.553 440.289 239.718 440.389 246.583 440.564L251.567 440.726C264.09 441.137 275.453 441.847 285.023 442.769C303.8 444.588 315.649 447.242 315.649 450.245C315.649 451.566 313.294 452.837 309.02 453.983C301.127 452.134 293.105 450.884 285.023 450.245C275.453 449.323 264.09 448.613 251.567 448.202L246.583 448.04C239.718 447.865 232.553 447.765 225.177 447.765C221.103 447.765 217.091 447.765 213.166 447.853H211.82H209.527C204.419 447.965 199.46 448.102 194.688 448.289L191.249 448.426L188.694 448.55C167.226 449.585 150.143 451.503 141.346 453.896C137.06 452.737 134.693 451.491 134.693 450.158Z" fill="white"/>
<path d="M217.564 445.56C216.879 446.382 216.243 447.093 215.608 447.778C215.284 448.114 214.972 448.451 214.636 448.787C214.038 449.398 213.452 450.033 212.842 450.581C212.443 450.98 212.032 451.366 211.596 451.753C209.485 453.705 207.25 455.52 204.905 457.185L204.506 457.459C204.157 457.708 203.796 457.945 203.422 458.194C202.637 458.718 201.827 459.229 200.93 459.702C200.058 459.702 199.186 459.702 198.326 459.627L194.314 459.49L189.093 459.266L187.735 459.191L184.259 459.017C178.539 458.693 173.169 458.319 168.235 457.87L170.179 457.247C175.163 455.628 180.147 454.108 185.006 452.513C186.252 452.101 187.411 451.703 188.52 451.267C189.475 450.95 190.394 450.532 191.261 450.021C191.809 449.697 192.382 449.335 192.956 448.949C193.255 448.75 193.566 448.538 193.878 448.301C194.775 447.666 195.672 446.955 196.557 446.22C198.351 444.75 200.108 443.13 201.852 441.448L202.787 440.526C203.347 439.99 203.896 439.455 204.431 438.894L206.923 436.402L207.073 436.24C207.824 435.459 208.746 434.861 209.766 434.494C210.786 434.126 211.877 433.999 212.954 434.122C214.525 434.301 215.989 435.01 217.105 436.13C218.221 437.251 218.923 438.717 219.097 440.289C219.206 441.226 219.127 442.175 218.864 443.08C218.601 443.985 218.159 444.828 217.564 445.56Z" fill="#FFB573"/>
<path d="M214.773 431.256C207.82 431.094 192.345 448.376 192.345 448.376L205.117 459.69C205.117 459.69 216.517 454.706 219.309 446.544C222.1 438.383 214.773 431.256 214.773 431.256Z" fill="#407BFF"/>
<path opacity="0.7" d="M219.296 446.544C217.971 449.854 215.759 452.734 212.904 454.868C210.505 456.785 207.881 458.404 205.092 459.69L201.665 456.649L192.32 448.376C192.32 448.376 207.783 431.094 214.748 431.256C214.773 431.256 222.125 438.333 219.296 446.544Z" fill="white"/>
<path opacity="0.1" d="M212.941 454.868C210.542 456.785 207.919 458.404 205.129 459.69L201.703 456.649C203.523 451.322 206.778 446.601 211.11 443.006C212.63 445.847 213.128 451.89 212.941 454.868Z" fill="black"/>
<path d="M262.794 438.545C262.719 438.707 262.644 438.856 262.582 439.018C262.383 439.455 262.196 439.891 262.009 440.339C261.896 440.57 261.797 440.807 261.71 441.049C261.684 441.097 261.663 441.147 261.648 441.199C261.556 441.384 261.477 441.576 261.411 441.772C261.199 442.271 261 442.781 260.8 443.305C260.601 443.828 260.314 444.613 260.078 445.273C260.078 445.273 260.078 445.336 260.078 445.361C259.903 445.834 259.741 446.308 259.579 446.794C259.417 447.279 259.243 447.765 259.093 448.251C259.088 448.301 259.088 448.351 259.093 448.401C258.944 448.849 258.794 449.298 258.657 449.747C258.371 450.694 258.084 451.64 257.81 452.612L257.735 452.874C257.137 454.992 256.576 457.148 256.053 459.316C256.047 459.361 256.047 459.407 256.053 459.453L251.854 459.602L248.951 459.702C246.646 459.764 244.316 459.827 241.948 459.864H241.089H239.481H237.924C235.743 459.864 233.538 459.864 231.32 459.939H225.302C218.025 459.939 210.935 459.852 204.12 459.665L204.307 458.743C204.307 458.543 204.394 458.356 204.444 458.169C204.494 457.983 204.518 457.796 204.568 457.609C204.594 457.519 204.614 457.427 204.631 457.335C205.187 454.843 205.769 452.571 206.375 450.519C206.599 449.796 206.799 449.111 207.01 448.426C207.085 448.214 207.148 448.002 207.222 447.79C207.384 447.279 207.546 446.794 207.708 446.32L207.97 445.56C208.107 445.174 208.244 444.787 208.381 444.426C208.518 444.065 208.693 443.566 208.842 443.18L209.253 442.133L210.001 440.327C210.574 438.956 211.135 437.76 211.658 436.701C211.758 436.526 211.845 436.34 211.932 436.165L212.455 435.156L213.066 434.047C213.104 433.992 213.137 433.933 213.166 433.872C213.378 433.486 213.589 433.137 213.776 432.838L214.262 432.066L214.848 431.219C218.545 430.865 222.262 430.744 225.975 430.857C226.76 430.857 227.557 430.919 228.367 430.969C229.177 431.019 229.912 431.094 230.759 431.194C232.541 431.393 234.497 431.667 236.578 432.003L240.49 432.676C241.799 432.913 243.095 433.15 244.341 433.399L245.001 433.536C245.985 433.723 246.945 433.922 247.829 434.109C248.44 434.234 249.075 434.371 249.649 434.52C249.96 434.595 250.259 434.657 250.558 434.745L251.468 434.969C252.602 435.256 253.723 435.567 254.782 435.866L255.816 436.178L257.748 436.776L259.442 437.324C261.373 437.959 262.657 438.433 262.844 438.495L262.794 438.545Z" fill="#407BFF"/>
<path opacity="0.7" d="M262.806 438.545C262.732 438.707 262.657 438.856 262.594 439.018C262.395 439.455 262.196 439.891 262.021 440.339C261.905 440.572 261.805 440.809 261.722 441.049C261.717 441.099 261.717 441.149 261.722 441.199C261.631 441.385 261.552 441.576 261.486 441.772C261.274 442.271 261.074 442.781 260.875 443.305C260.676 443.828 260.377 444.613 260.152 445.273C260.152 445.273 260.152 445.336 260.152 445.361C259.978 445.834 259.816 446.308 259.654 446.794C259.492 447.279 259.317 447.765 259.168 448.251V448.339C259.018 448.787 258.869 449.236 258.732 449.684C258.445 450.631 258.159 451.578 257.885 452.55L257.81 452.812C257.212 454.93 256.651 457.085 256.128 459.254C256.122 459.299 256.122 459.345 256.128 459.391L251.929 459.54L249.026 459.64C246.72 459.702 244.39 459.764 242.023 459.802H241.163H239.556H237.998C235.818 459.802 233.613 459.802 231.395 459.877H225.376C218.1 459.877 211.01 459.789 204.194 459.602L204.381 458.693C204.469 458.294 204.543 457.92 204.631 457.546C204.656 457.456 204.677 457.365 204.693 457.272C205.249 454.78 205.831 452.508 206.437 450.457C206.662 449.734 206.861 449.049 207.073 448.363C207.147 448.152 207.21 447.94 207.285 447.728C207.447 447.217 207.608 446.731 207.77 446.258L208.032 445.498C208.169 445.111 208.306 444.725 208.443 444.364C208.58 444.002 208.755 443.504 208.904 443.118L209.316 442.071L210.063 440.264C210.636 438.894 211.197 437.698 211.708 436.639C211.808 436.464 211.895 436.277 211.982 436.103L212.505 435.094L213.116 433.985C213.154 433.929 213.187 433.871 213.215 433.81L213.826 432.776L214.312 432.003L214.898 431.156C218.595 430.803 222.312 430.682 226.024 430.795C226.809 430.795 227.607 430.857 228.417 430.907C229.227 430.957 229.962 431.032 230.809 431.131C232.591 431.331 234.547 431.605 236.628 431.941L240.54 432.614C241.849 432.851 243.144 433.088 244.39 433.337L245.051 433.474C246.035 433.661 246.995 433.86 247.879 434.047C248.49 434.172 249.125 434.309 249.698 434.458C250.01 434.533 250.309 434.595 250.608 434.682L251.518 434.894C252.651 435.181 253.773 435.492 254.832 435.804L255.866 436.115L257.797 436.713L259.492 437.262C261.423 437.897 262.707 438.371 262.894 438.433L262.806 438.545Z" fill="white"/>
<path d="M240.266 416.03C240.266 416.03 240.653 429.287 241.911 431.256C243.17 433.225 247.717 434.134 247.717 434.134C247.717 434.134 236.79 439.567 231.681 438.545C226.573 437.523 224.118 430.857 224.118 430.857C224.118 430.857 227.682 430.994 228.554 430.508C229.426 430.022 227.869 421.238 227.869 421.238L240.266 416.03Z" fill="#EBB376"/>
<path opacity="0.2" d="M228.915 424.54L228.467 425.175C228.192 423.12 227.869 421.238 227.869 421.238L240.254 416.03C240.254 416.03 240.578 426.708 241.5 430.321C236.491 430.845 230.635 427.132 228.915 424.54Z" fill="black"/>
<path d="M236.03 393.764C239.419 395.533 244.266 401.24 238.958 403.146C233.65 405.053 230.211 390.736 236.03 393.764Z" fill="#263238"/>
<path d="M220.966 415.818C223.566 418.993 226.398 421.971 229.439 424.727C231.624 426.578 234.307 427.744 237.151 428.079C247.119 429.325 253.574 418.709 249.549 409.949C249.083 408.946 248.563 407.968 247.991 407.021C243.618 399.819 235.208 392.256 226.884 394.723C224.786 395.346 222.881 396.49 221.345 398.049C219.809 399.607 218.694 401.53 218.103 403.637C217.512 405.744 217.464 407.966 217.965 410.096C218.465 412.227 219.498 414.195 220.966 415.818Z" fill="#EBB376"/>
<path d="M225.065 415.22L225.526 416.715C226.402 419.591 227.74 422.306 229.488 424.752C231.674 426.603 234.357 427.769 237.201 428.104C247.169 429.35 253.623 418.734 249.599 409.974C249.133 408.971 248.613 407.993 248.041 407.046C248.041 407.046 248.789 410.56 248.141 412.192C248.141 412.192 244.403 411.233 242.559 412.765C242.559 412.765 238.597 411.681 235.232 415.88C233.695 416.886 231.872 417.365 230.039 417.246C228.205 417.127 226.46 416.416 225.065 415.22Z" fill="#263238"/>
<path opacity="0.5" d="M225.065 415.22L225.526 416.715C226.402 419.591 227.74 422.306 229.488 424.752C231.674 426.603 234.357 427.769 237.201 428.104C247.169 429.35 253.623 418.734 249.599 409.974C249.133 408.971 248.613 407.993 248.041 407.046C248.041 407.046 248.789 410.56 248.141 412.192C248.141 412.192 244.403 411.233 242.559 412.765C242.559 412.765 238.597 411.681 235.232 415.88C233.695 416.886 231.872 417.365 230.039 417.246C228.205 417.127 226.46 416.416 225.065 415.22Z" fill="white"/>
<path d="M210.574 411.158C206.051 407.358 210.337 401.863 215.072 399.944C215.584 399.741 216.019 399.384 216.318 398.922L221.938 407.557C221.427 407.794 220.916 408.03 220.43 408.217C220.43 408.217 226.996 414.024 226.361 419.805C217.19 422.397 208.344 417.674 210.574 411.158Z" fill="#263238"/>
<path d="M222.947 424.191C223.909 424.845 224.992 425.3 226.133 425.529C227.273 425.758 228.448 425.756 229.588 425.524C229.808 425.483 230.025 425.424 230.236 425.35C232.13 423.568 226.498 417.301 226.236 416.977C225.634 416.793 224.999 416.743 224.375 416.829C223.751 416.915 223.153 417.135 222.623 417.475C222.087 417.87 221.657 418.391 221.371 418.992C221.086 419.593 220.953 420.255 220.985 420.92C221.017 421.585 221.213 422.231 221.555 422.802C221.897 423.373 222.375 423.85 222.947 424.191Z" fill="#EBB376"/>
<path d="M233.7 408.99C234.161 409.588 234.859 409.825 235.257 409.513C235.656 409.202 235.581 408.454 235.108 407.856C234.634 407.258 233.937 407.021 233.55 407.333C233.164 407.644 233.226 408.392 233.7 408.99Z" fill="#263238"/>
<path d="M240.478 403.595C240.939 404.193 241.637 404.43 242.036 404.118C242.434 403.807 242.36 403.071 241.886 402.461C241.413 401.85 240.715 401.626 240.329 401.95C239.942 402.274 239.967 403.009 240.478 403.595Z" fill="#263238"/>
<path d="M238.522 405.613C240.649 406.798 242.93 407.682 245.3 408.242C245.001 410.012 242.808 410.996 242.808 410.996L238.522 405.613Z" fill="#D58745"/>
<path d="M231.021 404.355C230.951 404.392 230.893 404.448 230.854 404.516C230.814 404.584 230.794 404.662 230.797 404.741C230.806 405.306 230.683 405.866 230.436 406.375C230.189 406.883 229.826 407.327 229.376 407.669C229.28 407.737 229.212 407.839 229.187 407.954C229.162 408.069 229.18 408.19 229.239 408.292C229.271 408.342 229.312 408.386 229.361 408.42C229.409 408.454 229.464 408.478 229.522 408.491C229.58 408.503 229.64 408.505 229.698 408.494C229.757 408.483 229.812 408.461 229.862 408.429C230.443 407.998 230.911 407.433 231.228 406.782C231.545 406.132 231.7 405.414 231.681 404.691C231.681 404.574 231.636 404.462 231.554 404.378C231.473 404.295 231.362 404.246 231.245 404.243C231.161 404.257 231.083 404.296 231.021 404.355Z" fill="#263238"/>
<path d="M241.537 398.723C241.608 398.67 241.661 398.596 241.687 398.511C241.727 398.4 241.722 398.278 241.673 398.171C241.624 398.064 241.535 397.98 241.425 397.938C240.763 397.68 240.049 397.588 239.343 397.668C238.638 397.748 237.962 397.999 237.375 398.399C237.298 398.475 237.25 398.577 237.242 398.686C237.234 398.794 237.266 398.902 237.331 398.989C237.397 399.076 237.492 399.136 237.599 399.159C237.705 399.181 237.816 399.163 237.911 399.109C238.381 398.799 238.919 398.607 239.479 398.551C240.039 398.495 240.604 398.575 241.126 398.785C241.194 398.81 241.268 398.817 241.339 398.806C241.411 398.795 241.479 398.767 241.537 398.723Z" fill="#263238"/>
<path d="M242.771 419.207C243.014 419.115 243.251 419.006 243.481 418.883L244.091 413.974C244.091 413.974 243.792 413.974 243.331 413.974C241.786 413.974 238.347 414.323 237.425 416.092C237.325 416.295 237.245 416.508 237.189 416.728C236.956 417.519 237.014 418.367 237.351 419.12C237.911 420.166 239.406 420.715 242.771 419.207Z" fill="#263238"/>
<path d="M237.189 416.715L243.182 414.547L243.331 413.961C241.786 413.961 238.348 414.31 237.425 416.08C237.325 416.283 237.245 416.496 237.189 416.715Z" fill="white"/>
<path d="M242.771 419.207C241.724 417.463 238.933 418.36 237.351 419.132C237.911 420.166 239.406 420.715 242.771 419.207Z" fill="#DE5753"/>
<path d="M210.574 411.158C208.73 409.737 206.039 405.912 209.652 401.925C213.265 397.938 217.539 395.969 215.521 393.078C213.502 390.188 217.078 387.733 219.595 389.615C219.595 389.615 225.514 379.933 229.725 387.372C229.725 387.372 233.849 384.531 236.379 387.584C238.908 390.636 239.431 393.901 236.105 395.06C232.778 396.218 232.466 396.58 233.039 398.511C233.613 400.442 230.722 402.037 230.722 402.037C230.722 402.037 232.516 400.891 231.494 399.545C231.314 400.398 230.889 401.18 230.272 401.795C229.654 402.41 228.871 402.832 228.018 403.009C224.791 404.018 226.286 407.158 226.286 407.158C226.286 407.158 224.554 407.831 224.18 405.364C224.18 405.364 222.835 410.871 219.196 412.242C215.558 413.613 213.315 413.289 210.574 411.158Z" fill="#263238"/>
<path opacity="0.1" d="M257.636 452.911C257.037 455.03 256.477 457.185 255.953 459.353C255.948 459.399 255.948 459.445 255.953 459.49L251.754 459.64L248.851 459.739C246.546 459.802 244.216 459.864 241.849 459.901H240.989H239.382H237.824C239.335 457.061 241.464 454.596 244.054 452.687C244.515 452.337 244.998 452.017 245.499 451.728C246.536 451.159 247.66 450.767 248.826 450.569C251.956 450.17 255.117 451.011 257.636 452.911Z" fill="black"/>
<path d="M265.996 448.787C265.933 450.007 265.551 451.188 264.887 452.214C263.305 454.706 261.697 457.023 260.015 459.316L255.928 459.49L251.729 459.64L248.826 459.739C246.521 459.802 244.191 459.864 241.824 459.901C241.961 459.752 242.073 459.602 242.198 459.453C244.44 456.624 246.671 453.647 248.826 450.644C249.437 449.809 250.072 448.962 250.62 448.152C251.48 446.906 252.303 445.759 253.112 444.576L253.2 444.451C254.084 443.173 255.367 442.224 256.849 441.753C258.33 441.281 259.926 441.315 261.386 441.847C261.947 442.051 262.479 442.327 262.968 442.669C263.953 443.346 264.748 444.263 265.278 445.334C265.808 446.405 266.055 447.594 265.996 448.787Z" fill="#FFB573"/>
<path d="M266.706 448.824C266.041 452.538 264.602 456.07 262.482 459.191L259.99 459.316L255.904 459.49L251.705 459.64L248.801 459.739C246.496 459.802 244.166 459.864 241.799 459.901H240.939H239.332C240.715 457.808 242.422 455.192 244.029 452.712C245.126 450.993 246.172 449.348 247.02 447.952L247.904 446.494C249.294 444.093 251.287 442.096 253.686 440.701C256.44 439.137 259.581 438.385 262.744 438.533C263.807 439.222 264.701 440.142 265.361 441.224C266.701 443.516 267.178 446.212 266.706 448.824Z" fill="#407BFF"/>
<path opacity="0.7" d="M266.706 448.824C266.041 452.538 264.602 456.07 262.482 459.191L259.99 459.316L255.904 459.49L251.705 459.64L248.801 459.739C246.496 459.802 244.166 459.864 241.799 459.901H240.939H239.332C240.715 457.808 242.422 455.192 244.029 452.712C245.126 450.993 246.172 449.348 247.02 447.952L247.904 446.494C249.294 444.093 251.287 442.096 253.686 440.701C256.44 439.137 259.581 438.385 262.744 438.533C263.807 439.222 264.701 440.142 265.361 441.224C266.701 443.516 267.178 446.212 266.706 448.824Z" fill="white"/>
</svg>
